<svg width="136" height="44" viewBox="0 0 81 26" fill="none" xmlns="http://www.w3.org/2000/svg">
<g clip-path="url(#clip0_2_9)">
<path d="M27.5 25H23.1V6.70001H27.5V25Z" fill="#1F42C0"/>
<path d="M29.8 6.70001H34.2V21.1H40.9V25H29.8V6.70001Z" fill="#1F42C0"/>
<path d="M75.4 11.3C75.2 11 74.9 10.8 74.6 10.6C74.2 10.4 73.8 10.4 73.3 10.4C72.9 10.4 72.5 10.5 72.1 10.6C71.8 10.7 71.6 10.9 71.4 11.1C71.2 11.4 71.1 11.7 71.2 12.1C71.3 12.4 71.4 12.8 71.7 13C72.2 13.4 72.8 13.6 73.5 13.7L74.9 14C76.4 14.3 77.7 15 78.8 16C79.7 17 80.1 18.3 80.1 19.6C80.1 20.7 79.9 21.7 79.3 22.6C78.7 23.5 77.9 24.1 77 24.5C75.9 25 74.6 25.2 73.4 25.2C72.1 25.2 70.8 25 69.6 24.5C68.6 24.1 67.7 23.3 67.1 22.3C66.5 21.2 66.2 19.9 66.2 18.6H70.4C70.4 19.1 70.5 19.6 70.8 20C71 20.4 71.4 20.7 71.8 20.9C72.3 21.1 72.8 21.2 73.3 21.2C73.7 21.2 74.2 21.1 74.6 21C74.9 20.9 75.2 20.7 75.4 20.4C75.6 20.2 75.7 19.9 75.7 19.5C75.7 19.2 75.6 18.9 75.4 18.7C75.2 18.4 74.9 18.2 74.6 18.1C74.1 17.9 73.6 17.7 73.1 17.6L71.4 17.2C70.1 17 68.9 16.3 67.9 15.4C67.5 14.9 67.2 14.4 67 13.8C66.8 13.2 66.7 12.6 66.8 12C66.8 10.9 67.1 9.90002 67.7 9.00002C68.3 8.10002 69.1 7.40002 70.1 7.00002C71.2 6.50002 72.4 6.30002 73.6 6.30002C74.8 6.30002 76 6.50002 77.1 7.00002C78 7.50002 78.8 8.20002 79.4 9.10002C80 10 80.2 11.1 80.2 12.2H76C75.7 12 75.6 11.6 75.4 11.3Z" fill="#1F42C0"/>
<path d="M15.4 6.40001L14.9 5.80001L14.4 6.30001C14.2 6.50001 10.8 10.3 9.5 11.8C7.5 14.3 7.3 15.1 7.3 16C7.3 16.7 7.6 17.3 8.1 17.8C8.6 18.3 9.3 18.5 9.9 18.5C10.6 18.5 11.2 18.2 11.7 17.8C12.2 17.3 12.5 16.7 12.5 16C12.5 15.2 12.4 14.4 10.7 12.2C10.9 11.9 11.2 11.6 11.5 11.3C13.5 13.9 13.7 14.9 13.7 16C13.6 16.9 13.1 17.8 12.4 18.4C11.7 19 10.8 19.4 9.9 19.4C9 19.4 8.1 19.1 7.4 18.4C6.7 17.8 6.2 16.9 6.1 16C6.1 14.6 6.4 13.4 10.4 8.90001C10.6 8.60001 12.2 6.90001 13.4 5.50001L14.1 4.80001L13.2 3.80001C13.1 3.90001 12.6 4.40001 12.5 4.60001C11.3 6.00001 9.7 7.70001 9.5 8.00001V8.10001C5.6 12.6 4.9 14.1 4.9 16.1C4.9 16.8 5 17.5 5.2 18.1C5.4 18.7 5.8 19.3 6.3 19.8C6.8 20.3 7.3 20.7 8 21C8.6 21.3 9.3 21.4 10 21.4C10.7 21.4 11.4 21.3 12 21C12.6 20.7 13.2 20.3 13.7 19.8C14.2 19.3 14.5 18.7 14.8 18.1C15 17.5 15.2 16.8 15.1 16.1C15.1 14.5 14.7 13.2 12.5 10.4L13.3 9.50001C15.6 12.3 16.3 13.9 16.3 16C16.3 17.7 15.6 19.3 14.5 20.4C13.3 21.6 11.7 22.2 10.1 22.2C8.5 22.2 6.9 21.5 5.7 20.4C4.5 19.2 3.9 17.6 3.9 16C3.9 13.2 5.2 11.2 10.6 5.20001L11 4.80001L12.5 3.20001L11.6 2.20001L11 2.90001L10 3.90001L9.4 4.50001C4 10.4 2.4 12.7 2.4 16.1C2.4 17.1 2.5 18.1 2.9 19.1C3.3 20 3.8 20.9 4.5 21.6C5.2 22.3 6 22.9 7 23.3C8 23.7 8.9 23.9 9.9 23.9C10.9 23.9 11.9 23.7 12.8 23.3C13.7 22.9 14.6 22.3 15.3 21.6C16 20.9 16.6 20 16.9 19.1C17.3 18.2 17.4 17.1 17.4 16.1C17.4 13.7 16.5 11.7 14 8.60001L14.8 7.70001C17.6 11.1 18.6 13.3 18.6 16C18.6 18.3 17.7 20.5 16.1 22.1C14.5 23.7 12.3 24.6 10 24.6C7.7 24.6 5.5 23.7 3.9 22.1C2.3 20.5 1.4 18.3 1.4 16C1.4 11.7 4 8.70001 10.3 1.90001C10.4 1.80001 10.9 1.30001 11 1.20001L10.1 0.200012L9.3 1.00001C2.9 8.00001 0 11.3 0 16.1C0.1 18.7 1.2 21.2 3 23C4.9 24.8 7.3 25.8 9.9 25.8C12.5 25.8 15 24.8 16.8 23C18.7 21.2 19.7 18.7 19.8 16.1C19.9 12.5 18.2 9.70001 15.4 6.40001ZM11.3 16.2C11.3 16.4 11.3 16.6 11.2 16.8C11.1 17 11 17.1 10.9 17.3C10.8 17.4 10.6 17.6 10.4 17.6C10.2 17.7 10 17.7 9.8 17.7C9.6 17.7 9.4 17.7 9.2 17.6C9 17.5 8.9 17.4 8.7 17.3C8.6 17.2 8.5 17 8.4 16.8C8.3 16.6 8.3 16.4 8.3 16.2C8.3 15.7 8.3 15.2 9.7 13.4C11.3 15.2 11.3 15.7 11.3 16.2Z" fill="#1F42C0"/>
<path d="M49.0176 6.61719L53.3848 17.3066H53.6133L57.9805 6.61719H63.998V25H59.2754V14.1836H59.123L54.9336 24.873H52.0391L47.875 14.1074H47.7227V25H43V6.61719H49.0176Z" fill="#1F42C0"/>
</g>
<defs>
<clipPath id="clip0_2_9">
<rect width="81" height="26" fill="white"/>
</clipPath>
</defs>
</svg>
