<?xml version="1.0" encoding="utf-8"?>
<!-- Generator: Adobe Illustrator 26.0.2, SVG Export Plug-In . SVG Version: 6.00 Build 0)  -->
<svg version="1.1" id="Layer_1" xmlns="http://www.w3.org/2000/svg" xmlns:xlink="http://www.w3.org/1999/xlink" x="0px" y="0px"
	 viewBox="0 0 71.3 26" style="enable-background:new 0 0 71.3 26;" xml:space="preserve">
<style type="text/css">
	.st0{fill:#ACACAF;}
</style>
<g>
	<path class="st0" d="M27.5,25h-4.4V6.7h4.4V25z"/>
	<path class="st0" d="M29.8,6.7h4.4v14.4h6.7V25H29.8V6.7z"/>
	<path class="st0" d="M42.9,6.7H50c1.1,0,2.3,0.3,3.3,0.8C54.2,8,55,8.8,55.5,9.8s0.8,2.2,0.8,3.4s-0.2,2.3-0.8,3.4
		c-0.5,0.9-1.3,1.7-2.2,2.2c-1,0.5-2.2,0.8-3.3,0.8h-4.3v-3.8H49c0.5,0,1-0.1,1.4-0.3s0.7-0.5,0.9-0.9s0.3-0.9,0.3-1.4
		s-0.1-1-0.3-1.4s-0.5-0.7-0.9-0.9s-0.9-0.3-1.4-0.3h-1.7V25h-4.4C42.9,25,42.9,6.7,42.9,6.7z"/>
	<path class="st0" d="M66.6,11.3c-0.2-0.3-0.5-0.5-0.8-0.7c-0.4-0.2-0.8-0.2-1.3-0.2c-0.4,0-0.8,0.1-1.2,0.2
		c-0.3,0.1-0.5,0.3-0.7,0.5c-0.2,0.3-0.3,0.6-0.2,1c0.1,0.3,0.2,0.7,0.5,0.9c0.5,0.4,1.1,0.6,1.8,0.7l1.4,0.3c1.5,0.3,2.8,1,3.9,2
		c0.9,1,1.3,2.3,1.3,3.6c0,1.1-0.2,2.1-0.8,3c-0.6,0.9-1.4,1.5-2.3,1.9c-1.1,0.5-2.4,0.7-3.6,0.7c-1.3,0-2.6-0.2-3.8-0.7
		c-1-0.4-1.9-1.2-2.5-2.2c-0.6-1.1-0.9-2.4-0.9-3.7h4.2c0,0.5,0.1,1,0.4,1.4c0.2,0.4,0.6,0.7,1,0.9c0.5,0.2,1,0.3,1.5,0.3
		c0.4,0,0.9-0.1,1.3-0.2c0.3-0.1,0.6-0.3,0.8-0.6c0.2-0.2,0.3-0.5,0.3-0.9c0-0.3-0.1-0.6-0.3-0.8c-0.2-0.3-0.5-0.5-0.8-0.6
		c-0.5-0.2-1-0.4-1.5-0.5l-1.7-0.4c-1.3-0.2-2.5-0.9-3.5-1.8c-0.4-0.5-0.7-1-0.9-1.6S57.9,12.6,58,12c0-1.1,0.3-2.1,0.9-3
		c0.6-0.9,1.4-1.6,2.4-2c1.1-0.5,2.3-0.7,3.5-0.7c1.2,0,2.4,0.2,3.5,0.7c0.9,0.5,1.7,1.2,2.3,2.1c0.6,0.9,0.8,2,0.8,3.1h-4.2
		C66.9,12,66.8,11.6,66.6,11.3z"/>
	<path class="st0" d="M15.4,6.4l-0.5-0.6l-0.5,0.5c-0.2,0.2-3.6,4-4.9,5.5c-2,2.5-2.2,3.3-2.2,4.2c0,0.7,0.3,1.3,0.8,1.8
		s1.2,0.7,1.8,0.7c0.7,0,1.3-0.3,1.8-0.7c0.5-0.5,0.8-1.1,0.8-1.8c0-0.8-0.1-1.6-1.8-3.8c0.2-0.3,0.5-0.6,0.8-0.9
		c2,2.6,2.2,3.6,2.2,4.7c-0.1,0.9-0.6,1.8-1.3,2.4s-1.6,1-2.5,1s-1.8-0.3-2.5-1c-0.7-0.6-1.2-1.5-1.3-2.4c0-1.4,0.3-2.6,4.3-7.1l0,0
		c0.2-0.3,1.8-2,3-3.4l0.7-0.7l-0.9-1c-0.1,0.1-0.6,0.6-0.7,0.8C11.3,6,9.7,7.7,9.5,8v0.1c-3.9,4.5-4.6,6-4.6,8c0,0.7,0.1,1.4,0.3,2
		c0.2,0.6,0.6,1.2,1.1,1.7s1,0.9,1.7,1.2c0.6,0.3,1.3,0.4,2,0.4s1.4-0.1,2-0.4s1.2-0.7,1.7-1.2s0.8-1.1,1.1-1.7
		c0.2-0.6,0.4-1.3,0.3-2c0-1.6-0.4-2.9-2.6-5.7l0.8-0.9c2.3,2.8,3,4.4,3,6.5c0,1.7-0.7,3.3-1.8,4.4c-1.2,1.2-2.8,1.8-4.4,1.8
		s-3.2-0.7-4.4-1.8c-1.2-1.2-1.8-2.8-1.8-4.4c0-2.8,1.3-4.8,6.7-10.8L11,4.8l1.5-1.6l-0.9-1L11,2.9l-1,1L9.4,4.5
		c-5.4,5.9-7,8.2-7,11.6c0,1,0.1,2,0.5,3c0.4,0.9,0.9,1.8,1.6,2.5S6,22.9,7,23.3s1.9,0.6,2.9,0.6s2-0.2,2.9-0.6s1.8-1,2.5-1.7
		s1.3-1.6,1.6-2.5c0.4-0.9,0.5-2,0.5-3c0-2.4-0.9-4.4-3.4-7.5l0.8-0.9c2.8,3.4,3.8,5.6,3.8,8.3c0,2.3-0.9,4.5-2.5,6.1
		s-3.8,2.5-6.1,2.5s-4.5-0.9-6.1-2.5S1.4,18.3,1.4,16c0-4.3,2.6-7.3,8.9-14.1c0.1-0.1,0.6-0.6,0.7-0.7l-0.9-1L9.3,1
		C2.9,8,0,11.3,0,16.1c0.1,2.6,1.2,5.1,3,6.9c1.9,1.8,4.3,2.8,6.9,2.8s5.1-1,6.9-2.8c1.9-1.8,2.9-4.3,3-6.9
		C19.9,12.5,18.2,9.7,15.4,6.4z M11.3,16.2c0,0.2,0,0.4-0.1,0.6s-0.2,0.3-0.3,0.5c-0.1,0.1-0.3,0.3-0.5,0.3
		c-0.2,0.1-0.4,0.1-0.6,0.1c-0.2,0-0.4,0-0.6-0.1c-0.2-0.1-0.3-0.2-0.5-0.3c-0.1-0.1-0.2-0.3-0.3-0.5s-0.1-0.4-0.1-0.6
		c0-0.5,0-1,1.4-2.8C11.3,15.2,11.3,15.7,11.3,16.2L11.3,16.2z"/>
</g>
</svg>
