<?xml version="1.0" encoding="UTF-8"?>
<svg id="Layer_1" data-name="Layer 1" xmlns="http://www.w3.org/2000/svg" viewBox="0 0 114.71 55.06">
  <defs>
    <style>
      .cls-1 {
        fill: #1f42c0;
      }
    </style>
  </defs>
  <path class="cls-1" d="M99.07,3.34h-5.43c-8.62,0-15.63,7.01-15.63,15.63v35.61h11.28v-14.38h14.13v14.38h11.28V18.97c0-8.62-7.01-15.63-15.63-15.63ZM89.29,28.92v-9.95c0-2.4,1.95-4.35,4.35-4.35h5.43c2.4,0,4.35,1.95,4.35,4.35v9.95h-14.13Z"/>
  <path class="cls-1" d="M60.07,55.06h-5.43c-8.62,0-15.63-7.01-15.63-15.63v-20.45c0-8.62,7.01-15.63,15.63-15.63h5.43c8.62,0,15.63,7.01,15.63,15.63v2.73h-11.28v-2.73c0-2.4-1.95-4.35-4.35-4.35h-5.43c-2.4,0-4.35,1.95-4.35,4.35v20.45c0,2.4,1.95,4.35,4.35,4.35h5.43c2.4,0,4.35-1.95,4.35-4.35v-1.23l-6.98.1-.17-11.28,18.43-.27v12.68c0,8.62-7.01,15.63-15.63,15.63Z"/>
  <g>
    <path class="cls-1" d="M39.54,16.41l-3.98-7.35c-.11-.21-.34-.34-.58-.34h-2.12c-.23,0-.46-.09-.63-.25l-1.86-1.79c-.2-.19-.5-.22-.73-.06h0s-2.73-3.62-2.73-3.62c-.09-.14-.21-.26-.35-.35L23.05.18c-.52-.33-1.21-.18-1.54.33-.33.52-.19,1.21.33,1.54l3.32,2.33,2.65,3.5-.31.21c-.2.14-.26.41-.14.62l1.01,1.69c.25.36-.16.88-.16.88l-2.85,2.73c-.22.21-.34.49-.34.79v2.82c0,.32.16.62.42.8v6.49c0,1.6,1.3,2.9,2.9,2.9h3.83v3.26c0,.4.32.72.72.72h3.09c.4,0,.72-.32.72-.72v-10.68c0-.33.14-.64.38-.87l2.29-2.09c.28-.26.35-.67.17-1.01ZM28.34,26.31c-.78,0-1.41-.63-1.41-1.41v-5.78l4.74,2.21c.3.14.49.44.49.78v4.21h-3.83Z"/>
    <path class="cls-1" d="M21.06,55.06h-5.43c-8.62,0-15.63-7.01-15.63-15.63V3.32h11.28v36.1c0,2.4,1.95,4.35,4.35,4.35h5.43c2.4,0,4.35-1.95,4.35-4.35v-10.43h11.28v10.43c0,8.62-7.01,15.63-15.63,15.63Z"/>
    <path class="cls-1" d="M22.12,31.47h.02c-2.33-2.09-3.79-5.12-3.79-8.49,0,3.37-1.47,6.4-3.79,8.49h.02c-.97.97-1.57,2.31-1.57,3.78,0,2.95,2.39,5.34,5.34,5.34s5.34-2.39,5.34-5.34c0-1.48-.6-2.82-1.57-3.78ZM14.82,35.37c0-.68.35-1.22.78-1.22s.78.55.78,1.22-.35,1.22-.78,1.22-.78-.55-.78-1.22ZM18.35,39.04c-.99,0-1.89-.38-2.56-1,.38.13.79.2,1.22.2,2.09,0,3.78-1.69,3.78-3.78,0-1.1-.47-2.09-1.22-2.79,1.49.51,2.56,1.92,2.56,3.58,0,2.09-1.69,3.78-3.78,3.78Z"/>
  </g>
</svg>