<svg width="95" height="96" viewBox="0 0 95 96" fill="none" xmlns="http://www.w3.org/2000/svg">
<g clip-path="url(#clip0_8015_3479)">
<path d="M9.12521 3.50439e-05H85.8497C87.0484 -0.0033027 88.236 0.231818 89.3442 0.691787C90.4524 1.15176 91.4594 1.82753 92.3073 2.68035C93.1553 3.53317 93.8274 4.54618 94.2852 5.66123C94.743 6.77628 94.9774 7.97137 94.9749 9.17786V75.7266C94.9774 76.933 94.743 78.1281 94.2852 79.2432C93.8274 80.3582 93.1553 81.3713 92.3073 82.2241C91.4594 83.077 90.4524 83.7527 89.3442 84.2127C88.236 84.6727 87.0484 84.9077 85.8497 84.9044H9.12521C7.92647 84.9077 6.7389 84.6727 5.6307 84.2127C4.52249 83.7527 3.51547 83.077 2.66754 82.2241C1.81961 81.3713 1.14745 80.3582 0.689671 79.2432C0.231892 78.1281 -0.00247025 76.933 1.96329e-05 75.7266V9.17786C-0.00247025 7.97137 0.231892 6.77628 0.689671 5.66123C1.14745 4.54618 1.81961 3.53317 2.66754 2.68035C3.51547 1.82753 4.52249 1.15176 5.6307 0.691787C6.7389 0.231818 7.92647 -0.0033027 9.12521 3.50439e-05Z" fill="#E6ECFF"/>
<path d="M95.0063 9.17782V20.6533H0V9.17782C0.00166717 6.74313 0.963806 4.40873 2.67493 2.68773C4.38605 0.966739 6.70613 -5.78201e-07 9.12519 0H85.8497C88.2687 -5.78201e-07 90.5888 0.966739 92.2999 2.68773C94.0111 4.40873 94.9732 6.74313 94.9749 9.17782H95.0063Z" fill="#BAC7E5"/>
<path d="M10.2634 37.8633H84.7428C85.342 37.8616 85.9357 37.9792 86.4896 38.2092C87.0435 38.4392 87.5468 38.7772 87.9705 39.2036C88.3942 39.6301 88.73 40.1366 88.9585 40.6941C89.1871 41.2516 89.3039 41.8491 89.3022 42.4522V56.2189C89.3039 56.822 89.1871 57.4195 88.9585 57.977C88.73 58.5345 88.3942 59.0411 87.9705 59.4675C87.5468 59.894 87.0435 60.2319 86.4896 60.4619C85.9357 60.692 85.342 60.8095 84.7428 60.8078H10.2634C9.66422 60.8095 9.07058 60.692 8.51665 60.4619C7.96272 60.2319 7.45942 59.894 7.0357 59.4675C6.61199 59.0411 6.27624 58.5345 6.04769 57.977C5.81914 57.4195 5.70234 56.822 5.704 56.2189V42.4522C5.70234 41.8491 5.81914 41.2516 6.04769 40.6941C6.27624 40.1366 6.61199 39.6301 7.0357 39.2036C7.45942 38.7772 7.96272 38.4392 8.51665 38.2092C9.07058 37.9792 9.66422 37.8616 10.2634 37.8633Z" fill="#D0DBF7"/>
<path d="M50.5438 71.1377H44.4624V80.7016H50.5438V71.1377Z" fill="#376CFB"/>
<path d="M71.8506 49.3386C71.8518 54.1814 70.4261 58.9157 67.7536 62.9428C65.0812 66.9699 61.2821 70.1089 56.837 71.9628C52.3919 73.8166 47.5003 74.3019 42.781 73.3575C38.0618 72.413 33.7268 70.0811 30.3245 66.6568C26.9221 63.2324 24.6052 58.8694 23.6668 54.1197C22.7284 49.3699 23.2107 44.4468 25.0526 39.9729C26.8945 35.499 30.0133 31.6755 34.0146 28.9858C38.0158 26.2961 42.7198 24.8611 47.5314 24.8623C53.9813 24.8623 60.1669 27.441 64.7277 32.0312C69.2884 36.6214 71.8506 42.8471 71.8506 49.3386Z" fill="#4294FF"/>
<path d="M44.4625 79.5496H50.5439C50.8436 79.5487 51.1405 79.6076 51.4175 79.7229C51.6945 79.8381 51.9461 80.0075 52.1577 80.2211C52.3694 80.4347 52.5369 80.6884 52.6507 80.9675C52.7644 81.2466 52.8221 81.5455 52.8204 81.8472V93.7024C52.8221 94.0041 52.7644 94.3031 52.6507 94.5822C52.5369 94.8613 52.3694 95.115 52.1577 95.3286C51.9461 95.5422 51.6945 95.7115 51.4175 95.8267C51.1405 95.942 50.8436 96.0009 50.5439 96H44.4625C44.1628 96.0009 43.8659 95.942 43.5889 95.8267C43.3119 95.7115 43.0603 95.5422 42.8487 95.3286C42.637 95.115 42.4695 94.8613 42.3557 94.5822C42.242 94.3031 42.1843 94.0041 42.1859 93.7024V81.8472C42.1843 81.5455 42.242 81.2466 42.3557 80.9675C42.4695 80.6884 42.637 80.4347 42.8487 80.2211C43.0603 80.0075 43.3119 79.8381 43.5889 79.7229C43.8659 79.6076 44.1628 79.5487 44.4625 79.5496Z" fill="#2946ED"/>
</g>
<defs>
<clipPath id="clip0_8015_3479">
<rect width="95" height="96" fill="white"/>
</clipPath>
</defs>
</svg>
