<svg width="97" height="97" viewBox="0 0 97 97" fill="none" xmlns="http://www.w3.org/2000/svg">
<g clip-path="url(#clip0_8015_3464)">
<path d="M9.31322 3.05468e-05H87.6749C88.8983 -0.00310666 90.1103 0.235433 91.2413 0.701981C92.3722 1.16853 93.3999 1.85389 94.2653 2.7187C95.1306 3.5835 95.8166 4.61072 96.2839 5.74138C96.7511 6.87203 96.9905 8.08387 96.9881 9.30728V87.6868C96.9905 88.9105 96.7512 90.1226 96.284 91.2536C95.8168 92.3846 95.1309 93.4122 94.2656 94.2775C93.4003 95.1428 92.3727 95.8287 91.2417 96.2959C90.1107 96.7631 88.8986 97.0024 87.6749 97H9.31322C8.08954 97.0024 6.87744 96.7631 5.74645 96.2959C4.61546 95.8287 3.58781 95.1428 2.72253 94.2775C1.85726 93.4122 1.17134 92.3846 0.704147 91.2536C0.236948 90.1226 -0.00233528 88.9105 1.72159e-05 87.6868V9.30728C-0.00233801 8.08387 0.236985 6.87203 0.704255 5.74138C1.17153 4.61072 1.85754 3.5835 2.7229 2.7187C3.58825 1.85389 4.61593 1.16853 5.74688 0.701981C6.87784 0.235433 8.08982 -0.00310666 9.31322 3.05468e-05Z" fill="#E6ECFF"/>
<path d="M-8.57497e-05 9.30725C-8.59993e-05 8.0845 0.240842 6.87377 0.708947 5.74418C1.17705 4.61459 1.86317 3.58823 2.72806 2.7239C3.59295 1.85956 4.61968 1.17413 5.74958 0.706746C6.87947 0.239364 8.09037 -0.000779903 9.31312 1.90279e-06H87.6748C90.1438 1.39875e-06 92.5118 0.980367 94.2582 2.72564C96.0046 4.47092 96.9865 6.83827 96.988 9.30725V20.9472H-0.0119629V9.30725H-8.57497e-05Z" fill="#D0DBF7"/>
<path d="M83.2355 15.032C82.9596 15.0321 82.69 14.9502 82.4607 14.7969C82.2315 14.6435 82.0529 14.4255 81.9477 14.1705C81.8426 13.9155 81.8155 13.635 81.8699 13.3646C81.9244 13.0942 82.0579 12.846 82.2536 12.6516L87.8117 7.0935C88.0722 6.83308 88.4254 6.68677 88.7937 6.68677C89.1619 6.68677 89.5152 6.83308 89.7756 7.0935C90.036 7.35391 90.1823 7.70713 90.1823 8.07541C90.1823 8.4437 90.036 8.79684 89.7756 9.05726L84.2174 14.6155C84.0893 14.7463 83.9366 14.8505 83.7681 14.9219C83.5996 14.9934 83.4185 15.0308 83.2355 15.032Z" fill="#BAC7E5"/>
<path d="M88.7937 15.0319C88.6109 15.0325 88.4298 14.9964 88.2612 14.9259C88.0926 14.8554 87.9397 14.7519 87.8118 14.6213L82.2537 9.06312C81.9932 8.8027 81.8469 8.44948 81.8469 8.0812C81.8469 7.71291 81.9932 7.35977 82.2537 7.09936C82.5141 6.83894 82.8672 6.69263 83.2355 6.69263C83.6038 6.69263 83.957 6.83894 84.2174 7.09936L89.7756 12.6575C89.9713 12.8519 90.1048 13.1001 90.1593 13.3705C90.2137 13.6409 90.1866 13.9213 90.0815 14.1763C89.9763 14.4313 89.7977 14.6493 89.5684 14.8027C89.3392 14.9561 89.0695 15.038 88.7937 15.0379V15.0319Z" fill="#BAC7E5"/>
<path d="M76.3682 15.7224H69.4294C69.2468 15.7232 69.0658 15.6878 68.8969 15.6185C68.728 15.5492 68.5745 15.4472 68.4451 15.3183C68.3157 15.1895 68.213 15.0364 68.143 14.8678C68.0729 14.6992 68.0369 14.5184 68.0369 14.3358V7.3911C68.0369 7.20824 68.0729 7.02714 68.1429 6.85819C68.2128 6.68925 68.3154 6.53573 68.4447 6.40643C68.574 6.27712 68.7275 6.17457 68.8965 6.10459C69.0654 6.03461 69.2465 5.99854 69.4294 5.99854H76.3682C76.7375 5.99854 77.0916 6.14528 77.3528 6.40643C77.6139 6.66757 77.7607 7.02178 77.7607 7.3911V14.3358C77.7607 14.5184 77.7246 14.6992 77.6546 14.8678C77.5845 15.0364 77.4819 15.1895 77.3525 15.3183C77.2231 15.4472 77.0695 15.5492 76.9006 15.6185C76.7317 15.6878 76.5507 15.7232 76.3682 15.7224ZM70.81 12.9433H74.9756V8.77764H70.81V12.9433Z" fill="#BAC7E5"/>
<path d="M62.5679 12.9491H55.6232C55.0708 12.9491 54.541 12.7296 54.1504 12.339C53.7598 11.9484 53.5404 11.4187 53.5404 10.8663C53.5404 10.3139 53.7598 9.78411 54.1504 9.3935C54.541 9.0029 55.0708 8.78345 55.6232 8.78345H62.5679C63.1203 8.78345 63.6501 9.0029 64.0407 9.3935C64.4313 9.78411 64.6508 10.3139 64.6508 10.8663C64.6508 11.4187 64.4313 11.9484 64.0407 12.339C63.6501 12.7296 63.1203 12.9491 62.5679 12.9491Z" fill="#BAC7E5"/>
<path d="M36.5743 88.996H31.5636C31.2067 88.9959 30.8584 88.8864 30.5657 88.682C30.273 88.4777 30.0502 88.1884 29.9271 87.8534L22.4766 67.4834C22.374 67.218 22.3377 66.9315 22.3708 66.6489C22.4039 66.3662 22.5055 66.0959 22.6667 65.8614C22.828 65.6269 23.0439 65.4352 23.296 65.3031C23.548 65.1709 23.8285 65.1023 24.1131 65.103H29.1237C29.4824 65.1023 29.8325 65.2122 30.1265 65.4177C30.4204 65.6233 30.6438 65.9144 30.7662 66.2515L38.2168 86.6216C38.3137 86.8856 38.3453 87.169 38.309 87.4479C38.2727 87.7267 38.1694 87.9927 38.0081 88.223C37.8467 88.4533 37.6321 88.6412 37.3824 88.7706C37.1327 88.9 36.8555 88.9671 36.5743 88.9662V88.996Z" fill="#2946ED"/>
<path d="M83.4379 39.3237L79.5281 36.497L81.6228 32.254C81.7927 31.9116 81.8454 31.5229 81.7728 31.1476C81.7002 30.7724 81.5063 30.4314 81.2209 30.1771C80.9355 29.9228 80.5745 29.7694 80.1934 29.7404C79.8123 29.7114 79.4321 29.8084 79.1115 30.0165L70.9647 35.2711C70.6446 35.478 70.38 35.7602 70.1942 36.093C70.0083 36.4257 69.9068 36.799 69.8986 37.1801C69.8904 37.5612 69.9757 37.9385 70.147 38.279C70.3183 38.6195 70.5705 38.9128 70.8814 39.1333L74.9697 42.0135L73.1844 45.5841C73.0139 45.9239 72.959 46.3102 73.0283 46.6841C73.0976 47.058 73.2873 47.3989 73.5683 47.655C73.8494 47.9112 74.2065 48.0684 74.5851 48.1027C74.9638 48.1371 75.3434 48.0468 75.666 47.8454L83.2891 43.168C83.6152 42.9674 83.8867 42.6893 84.0796 42.3586C84.2725 42.0279 84.3808 41.6548 84.3949 41.2722C84.4091 40.8896 84.3286 40.5094 84.1606 40.1653C83.9926 39.8213 83.7423 39.5241 83.4319 39.2999L83.4379 39.3237Z" fill="#D0DBF7"/>
<path d="M81.4205 64.8829L79.2723 62.1633L81.5515 59.646C81.7386 59.4439 81.8536 59.1855 81.8787 58.9112C81.9038 58.6369 81.8376 58.3619 81.6903 58.1291C81.543 57.8963 81.323 57.7188 81.0643 57.624C80.8057 57.5291 80.5229 57.5224 80.2601 57.6049L73.601 59.6282C73.3389 59.7072 73.1002 59.8494 72.9059 60.0422C72.7116 60.235 72.5675 60.4725 72.4864 60.7339C72.4053 60.9954 72.3897 61.2728 72.4408 61.5417C72.492 61.8107 72.6084 62.0629 72.7798 62.2764L75.0352 65.0673L73.0952 67.2038C72.9122 67.4054 72.7998 67.6611 72.7748 67.9322C72.7499 68.2034 72.8137 68.4753 72.9568 68.707C73.0998 68.9387 73.3143 69.1176 73.5679 69.2168C73.8215 69.3159 74.1005 69.33 74.3627 69.2568L80.5458 67.5251C80.8104 67.4509 81.0528 67.3128 81.2516 67.1231C81.4504 66.9333 81.5995 66.6976 81.6859 66.4366C81.7723 66.1757 81.7933 65.8976 81.747 65.6267C81.7008 65.3558 81.5886 65.1003 81.4205 64.8829Z" fill="#D0DBF7"/>
<path d="M55.9506 32.8372C55.0576 32.8538 54.1897 33.1355 53.4572 33.6465C47.1075 35.6936 30.3378 41.1029 22.9468 43.3464C19.754 44.4037 17.006 46.4971 15.1387 49.2944C13.2715 52.0917 12.3922 55.4325 12.6404 58.7866C12.8886 62.1406 14.25 65.3157 16.5086 67.8077C18.7671 70.2997 21.7934 71.9659 25.107 72.5417C32.5278 73.6426 48.4643 77.5345 54.0046 78.9091C54.6073 79.2187 55.2731 79.3857 55.9506 79.3972C61.2231 79.3972 65.4721 68.9711 65.4721 56.1172C65.4721 43.2632 61.2053 32.8372 55.9506 32.8372Z" fill="#4294FF"/>
<path d="M28.1657 73.0535C27.0469 72.8452 26.0234 72.6667 25.1188 72.5417C21.8053 71.9659 18.779 70.2997 16.5204 67.8077C14.2619 65.3157 12.9004 62.1406 12.6522 58.7866C12.4041 55.4325 13.2834 52.0917 15.1506 49.2944C17.0178 46.4971 19.7659 44.4037 22.9587 43.3464C24.0834 43.0013 25.4223 42.5907 26.9041 42.1562C25.2981 46.6446 24.4925 51.38 24.5238 56.1469C24.4564 61.984 25.7011 67.7617 28.1657 73.0535Z" fill="#376CFB"/>
<path d="M65.4958 56.1172C65.4958 68.9711 61.2231 79.3972 55.9744 79.3972C50.7256 79.3972 46.4529 68.9711 46.4529 56.1172C46.4529 43.2632 50.7256 32.8372 55.9744 32.8372C61.2231 32.8372 65.4958 43.2572 65.4958 56.1172Z" fill="#376CFB"/>
<path d="M46.929 48.5654C46.2387 53.5743 46.2387 58.6541 46.929 63.6629C48.8944 63.6077 50.7607 62.7882 52.1313 61.3786C53.5019 59.9689 54.2687 58.0803 54.2687 56.1142C54.2687 54.1481 53.5019 52.2594 52.1313 50.8498C50.7607 49.4401 48.8944 48.6206 46.929 48.5654Z" fill="#2946ED"/>
</g>
<defs>
<clipPath id="clip0_8015_3464">
<rect width="97" height="97" fill="white"/>
</clipPath>
</defs>
</svg>
