<svg width="90" height="93" viewBox="0 0 90 93" fill="none" xmlns="http://www.w3.org/2000/svg">
<g clip-path="url(#clip0_8015_3429)">
<path d="M89.6284 19.3942C89.6284 15.1657 85.1527 11.3942 76.207 12.4799C68.7761 13.3657 62.0482 23.3371 62.0482 23.3371C62.0482 23.3371 69.342 27.0571 76.8129 27.0571C84.2839 27.0571 89.6284 23.6285 89.6284 19.3942Z" fill="#E6ECFF"/>
<path d="M29.2492 11.4114C29.1406 4.70285 35.7199 -1.25715 46.2089 0.234277C58.0813 1.94856 62.0482 23.3314 62.0482 23.3314C54.7659 24.4743 29.5351 28.8914 29.2492 11.4114Z" fill="#E6ECFF"/>
<path d="M71.7371 19.2344C68.4903 19.2344 63.9975 21.1715 62.2598 21.9887C57.967 17.8744 53.4913 14.0744 49.5929 13.2915C49.3306 13.2946 49.0773 13.3878 48.8755 13.5555C48.6737 13.7232 48.5358 13.9551 48.4849 14.2124C48.4339 14.4697 48.4731 14.7367 48.5957 14.9685C48.7184 15.2004 48.9171 15.3831 49.1585 15.4858C52.5882 16.1715 56.9953 20.0572 60.9279 23.8058V38.9315C60.892 39.0982 60.8938 39.2709 60.9332 39.4368C60.9726 39.6027 61.0487 39.7577 61.1559 39.8905C61.263 40.0232 61.3986 40.1302 61.5525 40.2037C61.7064 40.2773 61.8748 40.3154 62.0454 40.3154C62.216 40.3154 62.3845 40.2773 62.5384 40.2037C62.6923 40.1302 62.8278 40.0232 62.935 39.8905C63.0422 39.7577 63.1182 39.6027 63.1577 39.4368C63.1971 39.2709 63.1989 39.0982 63.1629 38.9315V24.0344C64.7234 23.303 68.9248 21.4686 71.7371 21.4686C71.9039 21.5046 72.0766 21.5028 72.2425 21.4634C72.4085 21.424 72.5636 21.3479 72.6963 21.2408C72.8291 21.1337 72.9361 20.9982 73.0097 20.8443C73.0833 20.6905 73.1215 20.5221 73.1215 20.3515C73.1215 20.181 73.0833 20.0126 73.0097 19.8587C72.9361 19.7048 72.8291 19.5694 72.6963 19.4622C72.5636 19.3551 72.4085 19.279 72.2425 19.2396C72.0766 19.2002 71.9039 19.1984 71.7371 19.2344Z" fill="#BAC7E5"/>
<path d="M90 65.0627C90 70.5893 88.3607 75.9918 85.2893 80.587C82.2179 85.1821 77.8525 88.7636 72.745 90.8786C67.6375 92.9935 62.0173 93.5469 56.5952 92.4687C51.1731 91.3905 46.1926 88.7292 42.2834 84.8213C38.3743 80.9134 35.7122 75.9345 34.6337 70.5141C33.5551 65.0937 34.1087 59.4753 36.2243 54.3695C38.3399 49.2636 41.9225 44.8995 46.5191 41.8291C51.1158 38.7587 56.52 37.1199 62.0483 37.1199C69.4616 37.1199 76.5712 40.0639 81.8132 45.3042C87.0551 50.5445 90 57.6518 90 65.0627Z" fill="#D0DBF7"/>
<path d="M82.1232 65.0628C82.1232 69.0334 80.9454 72.9147 78.7386 76.2161C76.5319 79.5174 73.3954 82.0904 69.7258 83.6096C66.0562 85.1288 62.0184 85.526 58.1229 84.7509C54.2275 83.9759 50.6495 82.0634 47.8414 79.2554C45.0333 76.4474 43.1212 72.87 42.3471 68.9756C41.5729 65.0812 41.9714 61.0447 43.4921 57.3767C45.0128 53.7087 47.5875 50.574 50.8905 48.3689C54.1935 46.1638 58.0765 44.9874 62.0483 44.9885C64.6851 44.9885 67.296 45.5078 69.732 46.5167C72.1679 47.5256 74.3812 49.0043 76.2454 50.8685C78.1096 52.7326 79.5882 54.9456 80.5968 57.3811C81.6053 59.8166 82.124 62.4269 82.1232 65.0628Z" fill="#BAC7E5"/>
<path d="M52.0622 93.0058C53.1678 93.0076 54.2349 92.5998 55.0573 91.861C55.8797 91.1222 56.3991 90.105 56.515 89.0058C56.595 88.16 56.6408 87.2915 56.6408 86.4458C56.6941 82.694 56.001 78.9691 54.6016 75.4874C53.2023 72.0058 51.1248 68.837 48.4897 66.165C45.8546 63.4931 42.7146 61.3714 39.2521 59.9232C35.7896 58.475 32.0737 57.7292 28.3203 57.7292C24.567 57.7292 20.8511 58.475 17.3886 59.9232C13.9261 61.3714 10.7861 63.4931 8.15101 66.165C5.51592 68.837 3.43835 72.0058 2.03905 75.4874C0.639738 78.9691 -0.0533906 82.694 -7.13866e-05 86.4458C-7.13866e-05 87.3086 0.0456581 88.16 0.125684 89.0058C0.240388 90.1055 0.759351 91.1235 1.58203 91.8625C2.4047 92.6015 3.47252 93.0089 4.57853 93.0058H52.0622Z" fill="#376CFB"/>
<path d="M72.8059 62.9827H71.6284L72.7373 59.1542C72.7996 58.929 72.817 58.6938 72.7884 58.462C72.7598 58.2302 72.6857 58.0063 72.5706 57.8031C72.4554 57.5999 72.3013 57.4213 72.1171 57.2776C71.9329 57.1339 71.7221 57.0279 71.4969 56.9656C71.2717 56.9033 71.0365 56.886 70.8046 56.9146C70.5727 56.9432 70.3487 57.0172 70.1454 57.1323C69.9421 57.2475 69.7635 57.4015 69.6198 57.5857C69.476 57.7698 69.37 57.9805 69.3077 58.2056L66.8269 67.537L64.5405 58.7142C64.4008 58.1896 64.0916 57.7258 63.6611 57.395C63.2306 57.0641 62.7027 56.8848 62.1597 56.8848C61.6167 56.8848 61.0888 57.0641 60.6583 57.395C60.2278 57.7258 59.9186 58.1896 59.7789 58.7142L57.4525 67.577L54.9889 58.2056C54.8884 57.827 54.666 57.492 54.3561 57.2524C54.0461 57.0128 53.6658 56.8819 53.274 56.8799H53.0968C52.8193 56.8793 52.5455 56.9434 52.2971 57.0672C52.0488 57.191 51.8328 57.3711 51.6663 57.593C51.4998 57.815 51.3874 58.0727 51.338 58.3457C51.2887 58.6187 51.3037 58.8994 51.382 59.1656L52.4852 62.9942H51.3134C51.0856 62.9809 50.8575 63.0142 50.6431 63.0922C50.4286 63.1702 50.2324 63.2911 50.0664 63.4476C49.9004 63.6041 49.7682 63.7929 49.6778 64.0023C49.5874 64.2118 49.5408 64.4375 49.5408 64.6656C49.5408 64.8937 49.5874 65.1194 49.6778 65.3289C49.7682 65.5383 49.9004 65.7271 50.0664 65.8836C50.2324 66.0401 50.4286 66.161 50.6431 66.239C50.8575 66.317 51.0856 66.3503 51.3134 66.337H52.9711C53.1254 66.3304 53.2778 66.2995 53.4226 66.2456L54.9317 71.4799C55.08 71.9899 55.3896 72.4382 55.8142 72.7576C56.2387 73.077 56.7554 73.2502 57.2867 73.2513C57.8198 73.2511 58.3383 73.0776 58.7641 72.757C59.1899 72.4365 59.5 71.9862 59.6475 71.4742L62.0711 62.9942L64.4947 71.4742C64.6428 71.9841 64.9524 72.4322 65.3771 72.7511C65.8018 73.07 66.3186 73.2423 66.8498 73.2423C67.3809 73.2423 67.8977 73.07 68.3224 72.7511C68.7471 72.4322 69.0568 71.9841 69.2048 71.4742L70.7138 66.2399C70.8608 66.2933 71.015 66.3241 71.1711 66.3313H72.8288C73.0566 66.3446 73.2847 66.3113 73.4991 66.2333C73.7136 66.1553 73.9098 66.0344 74.0758 65.8779C74.2418 65.7213 74.374 65.5326 74.4644 65.3231C74.5548 65.1137 74.6014 64.888 74.6014 64.6599C74.6014 64.4318 74.5548 64.2061 74.4644 63.9966C74.374 63.7872 74.2418 63.5984 74.0758 63.4419C73.9098 63.2854 73.7136 63.1644 73.4991 63.0865C73.2847 63.0085 73.0566 62.9751 72.8288 62.9885L72.8059 62.9827Z" fill="#D0DBF7"/>
<path d="M41.3617 44.9428C41.3617 47.5219 40.5967 50.043 39.1634 52.1875C37.7301 54.3319 35.6929 56.0033 33.3094 56.9902C30.9259 57.9772 28.3031 58.2354 25.7728 57.7323C23.2425 57.2291 20.9182 55.9872 19.094 54.1635C17.2697 52.3398 16.0274 50.0163 15.5241 47.4868C15.0208 44.9573 15.2791 42.3354 16.2664 39.9526C17.2536 37.5699 18.9255 35.5333 21.0706 34.1005C23.2157 32.6676 25.7377 31.9028 28.3176 31.9028C31.7771 31.9028 35.0949 33.2767 37.5412 35.7222C39.9874 38.1676 41.3617 41.4844 41.3617 44.9428Z" fill="#376CFB"/>
</g>
<defs>
<clipPath id="clip0_8015_3429">
<rect width="90" height="93" fill="white"/>
</clipPath>
</defs>
</svg>
