<svg width="89" height="89" viewBox="0 0 89 89" fill="none" xmlns="http://www.w3.org/2000/svg">
<g clip-path="url(#clip0_8015_3451)">
<path d="M8.53955 2.80275e-05H44.8548C45.9773 -0.00285044 47.0894 0.216015 48.127 0.644085C49.1647 1.07215 50.1076 1.70099 50.9016 2.49447C51.6956 3.28795 52.325 4.23045 52.7537 5.26786C53.1825 6.30527 53.4021 7.41716 53.3999 8.53967V80.4549C53.4021 81.5777 53.1825 82.6898 52.7538 83.7275C52.3252 84.7652 51.6958 85.7081 50.9019 86.502C50.108 87.296 49.1651 87.9253 48.1274 88.354C47.0897 88.7826 45.9776 89.0022 44.8548 89H8.53955C7.41704 89.0022 6.30518 88.7826 5.26777 88.3538C4.23036 87.9251 3.28783 87.2957 2.49435 86.5017C1.70087 85.7077 1.07207 84.7648 0.643997 83.7271C0.215927 82.6894 -0.00297251 81.5774 -9.4047e-05 80.4549V8.53967C-0.00225253 7.41762 0.217171 6.30618 0.645563 5.26913C1.07395 4.23208 1.70291 3.28982 2.49632 2.49641C3.28973 1.703 4.23199 1.07408 5.26904 0.645685C6.30609 0.217293 7.4175 -0.00213045 8.53955 2.80275e-05Z" fill="#E6ECFF"/>
<path d="M12.6019 0L15.1573 4.76121C15.6099 5.66531 16.3006 6.42881 17.155 6.96952C18.0093 7.51023 18.995 7.80767 20.0059 7.8298H33.3886C34.3995 7.80767 35.3851 7.51023 36.2395 6.96952C37.0938 6.42881 37.7845 5.66531 38.2372 4.76121L40.7925 0H12.6019Z" fill="#D0DBF7"/>
<path d="M82.5898 65.8599H26.7V23.1399H82.5898C84.2889 23.1399 85.9185 23.8145 87.1205 25.0155C88.3225 26.2164 88.9985 27.8455 88.9999 29.5446V59.4497C88.9999 61.1498 88.3246 62.7802 87.1225 63.9824C85.9203 65.1845 84.2898 65.8599 82.5898 65.8599Z" fill="#009EE5"/>
<path d="M34.5298 31.6797H40.94C41.2208 31.6797 41.4989 31.7351 41.7583 31.8427C42.0176 31.9503 42.2532 32.1081 42.4515 32.3069C42.6499 32.5057 42.807 32.7417 42.914 33.0014C43.0209 33.261 43.0756 33.5393 43.0749 33.8201V40.2248C43.0756 40.5054 43.0209 40.7833 42.9139 41.0426C42.8068 41.302 42.6496 41.5376 42.4512 41.736C42.2528 41.9344 42.0172 42.0916 41.7578 42.1986C41.4985 42.3057 41.2206 42.3604 40.94 42.3597H34.5298C34.2493 42.3604 33.9713 42.3057 33.712 42.1986C33.4526 42.0916 33.217 41.9344 33.0186 41.736C32.8202 41.5376 32.663 41.302 32.5559 41.0426C32.4489 40.7833 32.3942 40.5054 32.3949 40.2248V33.8201C32.3942 33.5393 32.4489 33.261 32.5558 33.0014C32.6628 32.7417 32.82 32.5057 33.0183 32.3069C33.2166 32.1081 33.4522 31.9503 33.7115 31.8427C33.9709 31.7351 34.249 31.6797 34.5298 31.6797Z" fill="#2946ED"/>
<path d="M33.2849 50.9048H37.5547C37.8443 50.9048 38.1221 51.0199 38.3269 51.2246C38.5317 51.4294 38.6467 51.7072 38.6467 51.9968V56.2667C38.6467 56.5563 38.5317 56.834 38.3269 57.0388C38.1221 57.2436 37.8443 57.3587 37.5547 57.3587H33.2849C32.9953 57.3587 32.7175 57.2436 32.5127 57.0388C32.3079 56.834 32.1929 56.5563 32.1929 56.2667V51.9968C32.1929 51.7072 32.3079 51.4294 32.5127 51.2246C32.7175 51.0199 32.9953 50.9048 33.2849 50.9048Z" fill="#376CFB"/>
<path d="M48.2347 50.9048H52.51C52.7949 50.9119 53.0656 51.0301 53.2646 51.2341C53.4635 51.4381 53.5748 51.7119 53.5747 51.9968V56.2667C53.5748 56.5516 53.4635 56.8253 53.2646 57.0293C53.0656 57.2333 52.7949 57.3516 52.51 57.3587H48.2347C47.9451 57.3587 47.6673 57.2436 47.4625 57.0388C47.2577 56.834 47.1427 56.5563 47.1427 56.2667V51.9968C47.1427 51.7072 47.2577 51.4294 47.4625 51.2246C47.6673 51.0199 47.9451 50.9048 48.2347 50.9048Z" fill="#376CFB"/>
<path d="M63.1791 50.9048H67.4489C67.7385 50.9048 68.0162 51.0199 68.221 51.2246C68.4258 51.4294 68.5409 51.7072 68.5409 51.9968V56.2667C68.5409 56.5563 68.4258 56.834 68.221 57.0388C68.0162 57.2436 67.7385 57.3587 67.4489 57.3587H63.1791C62.8894 57.3587 62.6117 57.2436 62.4069 57.0388C62.2021 56.834 62.087 56.5563 62.087 56.2667V51.9968C62.087 51.7072 62.2021 51.4294 62.4069 51.2246C62.6117 51.0199 62.8894 50.9048 63.1791 50.9048Z" fill="#376CFB"/>
<path d="M78.1399 50.9048H82.4097C82.6993 50.9048 82.9771 51.0199 83.1819 51.2246C83.3867 51.4294 83.5017 51.7072 83.5017 51.9968V56.2667C83.5017 56.5563 83.3867 56.834 83.1819 57.0388C82.9771 57.2436 82.6993 57.3587 82.4097 57.3587H78.1399C77.8503 57.3587 77.5725 57.2436 77.3677 57.0388C77.1629 56.834 77.0479 56.5563 77.0479 56.2667V51.9968C77.0479 51.7072 77.1629 51.4294 77.3677 51.2246C77.5725 51.0199 77.8503 50.9048 78.1399 50.9048Z" fill="#376CFB"/>
<path d="M63.7251 34.8847H82.2349C82.5245 34.8847 82.8023 34.9997 83.0071 35.2045C83.2119 35.4093 83.3269 35.6871 83.3269 35.9767V38.0897C83.3269 38.3794 83.2119 38.6571 83.0071 38.8619C82.8023 39.0667 82.5245 39.1818 82.2349 39.1818H63.7251C63.4355 39.1818 63.1577 39.0667 62.9529 38.8619C62.7481 38.6571 62.6331 38.3794 62.6331 38.0897V35.9548C62.6331 35.6652 62.7481 35.3874 62.9529 35.1827C63.1577 34.9779 63.4355 34.8628 63.7251 34.8628V34.8847Z" fill="#376CFB"/>
<path d="M18.5099 79.7396C18.5099 80.0292 18.6249 80.307 18.8297 80.5118C19.0345 80.7166 19.3123 80.8316 19.6019 80.8316H34.5517C34.711 80.866 34.876 80.8643 35.0345 80.8266C35.193 80.7889 35.3412 80.7162 35.468 80.6139C35.5948 80.5115 35.6971 80.3821 35.7673 80.235C35.8376 80.088 35.8741 79.9271 35.8741 79.7641C35.8741 79.6012 35.8376 79.4403 35.7673 79.2932C35.6971 79.1462 35.5948 79.0168 35.468 78.9144C35.3412 78.8121 35.193 78.7394 35.0345 78.7017C34.876 78.664 34.711 78.6623 34.5517 78.6967H19.5801C19.2904 78.6967 19.0127 78.8118 18.8079 79.0166C18.6031 79.2214 18.488 79.4991 18.488 79.7887L18.5099 79.7396Z" fill="#D0DBF7"/>
<path d="M26.7 18.8647C26.4104 18.8647 26.1326 18.9797 25.9278 19.1845C25.723 19.3893 25.608 19.6671 25.608 19.9568V69.0979C25.5736 69.2572 25.5753 69.4221 25.613 69.5806C25.6506 69.7392 25.7233 69.8873 25.8257 70.0141C25.928 70.1409 26.0575 70.2432 26.2045 70.3135C26.3516 70.3837 26.5125 70.4202 26.6754 70.4202C26.8384 70.4202 26.9993 70.3837 27.1463 70.3135C27.2933 70.2432 27.4228 70.1409 27.5251 70.0141C27.6275 69.8873 27.7002 69.7392 27.7378 69.5806C27.7755 69.4221 27.7772 69.2572 27.7428 69.0979V19.9568C27.7429 19.6718 27.6316 19.3981 27.4327 19.1941C27.2338 18.99 26.963 18.8719 26.6781 18.8647H26.7Z" fill="#D0DBF7"/>
</g>
<defs>
<clipPath id="clip0_8015_3451">
<rect width="89" height="89" fill="white"/>
</clipPath>
</defs>
</svg>
