<svg width="97" height="97" viewBox="0 0 97 97" fill="none" xmlns="http://www.w3.org/2000/svg">
<g clip-path="url(#clip0_8015_3487)">
<path d="M9.34354 1.99918e-05H87.7208C88.9446 -0.00167064 90.1567 0.238217 91.2876 0.70596C92.4184 1.1737 93.4459 1.86011 94.3109 2.72577C95.176 3.59143 95.8617 4.61935 96.3286 5.75056C96.7956 6.88177 97.0347 8.09403 97.0322 9.31784V87.6951C97.0347 88.9185 96.7956 90.1305 96.3286 91.2614C95.8615 92.3922 95.1757 93.4197 94.3105 94.2848C93.4454 95.15 92.4179 95.8357 91.2871 96.3028C90.1562 96.7698 88.9443 97.009 87.7208 97.0064H9.34354C8.12004 97.009 6.90805 96.7698 5.7772 96.3028C4.64635 95.8357 3.61889 95.15 2.75374 94.2848C1.8886 93.4197 1.20285 92.3922 0.73581 91.2614C0.268767 90.1305 0.0296042 88.9185 0.03214 87.6951V9.31784C0.0287583 8.0938 0.267267 6.88114 0.733931 5.74954C1.2006 4.61795 1.88624 3.58972 2.75147 2.72389C3.61671 1.85807 4.64444 1.17168 5.77571 0.704238C6.90699 0.236795 8.1195 -0.00251893 9.34354 1.99918e-05Z" fill="#E6ECFF"/>
<path d="M14.7431 38.0278H82.257C82.8686 38.027 83.4745 38.1468 84.0397 38.3805C84.6049 38.6142 85.1185 38.957 85.551 39.3895C85.9835 39.822 86.3264 40.3356 86.5601 40.9008C86.7937 41.4661 86.9136 42.0718 86.9127 42.6835V62.0822C86.9144 62.694 86.7952 63.3003 86.5618 63.8659C86.3284 64.4315 85.9855 64.9454 85.5529 65.378C85.1202 65.8107 84.6063 66.1536 84.0407 66.3869C83.4751 66.6203 82.8689 66.7396 82.257 66.7379H14.7431C14.1312 66.7396 13.525 66.6203 12.9594 66.3869C12.3938 66.1536 11.8799 65.8107 11.4472 65.378C11.0146 64.9454 10.6717 64.4315 10.4384 63.8659C10.205 63.3003 10.0857 62.694 10.0874 62.0822V42.6835C10.0866 42.0718 10.2064 41.4661 10.4401 40.9008C10.6737 40.3356 11.0166 39.822 11.4491 39.3895C11.8816 38.957 12.3952 38.6142 12.9604 38.3805C13.5257 38.1468 14.1315 38.027 14.7431 38.0278Z" fill="#D0DBF7"/>
<path d="M96.9999 9.31782V20.9571H0V9.31782C-5.85002e-07 6.84769 0.98081 4.47863 2.72685 2.73139C4.47289 0.984147 6.8412 0.00170002 9.31132 0H87.6886C90.1587 0.00170002 92.527 0.984147 94.2731 2.73139C96.0191 4.47863 96.9999 6.84769 96.9999 9.31782Z" fill="#BAC7E5"/>
<path d="M34.2252 53.3866L33.8532 70.4254C33.8335 71.3543 34.0921 72.2679 34.5958 73.0486C35.0995 73.8293 35.8253 74.4414 36.6797 74.8063C37.5342 75.1711 38.4783 75.2719 39.3905 75.0958C40.3028 74.9196 41.1415 74.4745 41.7987 73.8178L42.8247 72.7918L60.383 90.35C60.8149 90.7834 61.3281 91.1272 61.8932 91.3618C62.4583 91.5964 63.0641 91.7172 63.676 91.7172C64.2878 91.7172 64.8937 91.5964 65.4587 91.3618C66.0238 91.1272 66.537 90.7834 66.9689 90.35L75.7481 81.5709C76.1814 81.1389 76.5253 80.6257 76.7599 80.0607C76.9945 79.4956 77.1153 78.8897 77.1153 78.2779C77.1153 77.666 76.9945 77.0603 76.7599 76.4952C76.5253 75.9301 76.1814 75.4169 75.7481 74.985L58.1898 57.4267L59.2159 56.4006C59.8726 55.7434 60.3177 54.9048 60.4938 53.9925C60.67 53.0803 60.5692 52.1362 60.2043 51.2817C59.8395 50.4273 59.2273 49.7014 58.4466 49.1977C57.6659 48.694 56.7524 48.4354 55.8235 48.4552L38.7783 48.8336C37.5789 48.8597 36.436 49.3478 35.5877 50.1961C34.7394 51.0443 34.2514 52.1873 34.2252 53.3866Z" fill="#2946ED"/>
<path d="M72.471 5.5149H65.5259C65.252 5.51406 64.9806 5.56742 64.7274 5.67186C64.4742 5.7763 64.244 5.92976 64.0503 6.12346C63.8566 6.31716 63.7032 6.54727 63.5987 6.80052C63.4943 7.05376 63.4409 7.32513 63.4418 7.59906V13.159C63.4418 13.7117 63.6614 14.2419 64.0522 14.6327C64.4431 15.0236 64.9732 15.2431 65.5259 15.2431H72.471C73.0232 15.2415 73.5524 15.0213 73.9429 14.6308C74.3334 14.2403 74.5534 13.7112 74.5551 13.159V7.6119C74.5568 7.33713 74.5042 7.06472 74.4002 6.81038C74.2962 6.55603 74.143 6.32477 73.9493 6.12988C73.7556 5.93499 73.5253 5.78029 73.2716 5.67475C73.0179 5.56921 72.7458 5.5149 72.471 5.5149ZM70.3868 11.0748H67.6101V9.68322H70.3868V11.0748Z" fill="#D0DBF7"/>
<path d="M57.4716 11.075H49.1349C48.5822 11.075 48.0521 11.2945 47.6612 11.6854C47.2704 12.0762 47.0508 12.6064 47.0508 13.1591C47.0508 13.7119 47.2704 14.242 47.6612 14.6328C48.0521 15.0237 48.5822 15.2433 49.1349 15.2433H57.4716C58.0243 15.2433 58.5544 15.0237 58.9453 14.6328C59.3362 14.242 59.5557 13.7119 59.5557 13.1591C59.5557 12.6064 59.3362 12.0762 58.9453 11.6854C58.5544 11.2945 58.0243 11.075 57.4716 11.075Z" fill="#D0DBF7"/>
<path d="M86.2458 10.3759L87.5283 9.09333C87.9195 8.70215 88.1392 8.17156 88.1392 7.61835C88.1392 7.06514 87.9195 6.53456 87.5283 6.14338C87.1371 5.7522 86.6066 5.53247 86.0533 5.53247C85.5001 5.53247 84.9695 5.7522 84.5784 6.14338L83.2958 7.42594L82.0132 6.14338C81.6221 5.7522 81.0916 5.53247 80.5384 5.53247C79.9851 5.53247 79.4546 5.7522 79.0634 6.14338C78.6722 6.53456 78.4525 7.06514 78.4525 7.61835C78.4525 8.17156 78.6722 8.70215 79.0634 9.09333L80.3459 10.3759L79.0634 11.6584C78.8628 11.8505 78.7026 12.0807 78.5923 12.3355C78.4819 12.5903 78.4236 12.8646 78.4208 13.1423C78.4179 13.4199 78.4706 13.6954 78.5757 13.9524C78.6808 14.2094 78.8361 14.4429 79.0327 14.6391C79.2293 14.8352 79.463 14.9901 79.7203 15.0946C79.9776 15.1991 80.2532 15.2512 80.5308 15.2477C80.8085 15.2443 81.0826 15.1853 81.3372 15.0744C81.5918 14.9635 81.8216 14.8029 82.0132 14.6019L83.2958 13.3193L84.5784 14.6019C84.9717 14.9785 85.4968 15.1862 86.0413 15.1806C86.5858 15.175 87.1065 14.9565 87.4919 14.5719C87.8774 14.1873 88.097 13.667 88.1038 13.1225C88.1106 12.578 87.9041 12.0526 87.5283 11.6584L86.2458 10.3759Z" fill="#D0DBF7"/>
</g>
<defs>
<clipPath id="clip0_8015_3487">
<rect width="97" height="97" fill="white"/>
</clipPath>
</defs>
</svg>
