<svg width="87" height="87" viewBox="0 0 87 87" fill="none" xmlns="http://www.w3.org/2000/svg">
<g clip-path="url(#clip0_8015_3439)">
<path d="M78.7903 0H15.8781C11.2428 0 7.4916 4.98515 7.4916 11.1339V75.8661H2.07922C1.77253 75.8662 1.46958 75.9331 1.19164 76.0623C0.913693 76.1914 0.667494 76.3795 0.470355 76.6135C0.273217 76.8475 0.129912 77.1216 0.0505059 77.4167C-0.0288999 77.7117 -0.0424671 78.0205 0.0107336 78.3213C0.852064 83.2905 4.19594 87 8.1936 87H62.0173C66.6527 87 70.4038 82.0149 70.4038 75.8661V11.1339H84.9047C85.2113 11.1344 85.5143 11.0677 85.7921 10.9386C86.0699 10.8095 86.3158 10.621 86.5124 10.3867C86.7072 10.1513 86.8492 9.87703 86.9287 9.58241C87.0082 9.28778 87.0234 8.97961 86.9732 8.67866C86.1265 3.70951 82.788 0 78.7903 0Z" fill="#D0DBF7"/>
<path d="M78.7903 0C74.155 0 70.4038 4.98515 70.4038 11.1339H84.9047C85.2113 11.1344 85.5143 11.0677 85.7921 10.9386C86.0699 10.8095 86.3158 10.621 86.5123 10.3867C86.7072 10.1513 86.8492 9.87703 86.9287 9.58241C87.0082 9.28779 87.0233 8.97962 86.9732 8.67866C86.1265 3.70951 82.788 0 78.7903 0Z" fill="#BAC7E5"/>
<path d="M59.9916 57.7669H20.6259C20.2208 57.7664 19.8242 57.8833 19.4845 58.1032L14.3669 61.4178C14.2254 61.5161 14.1098 61.647 14.03 61.7994C13.9502 61.9518 13.9086 62.1212 13.9086 62.2931C13.9086 62.465 13.9502 62.6343 14.03 62.7867C14.1098 62.9391 14.2254 63.07 14.3669 63.1684L19.4845 66.4776C19.8232 66.6998 20.2204 66.8169 20.6259 66.8139H60.1846C60.793 66.8149 61.3954 66.694 61.956 66.4585C62.5166 66.223 63.0239 65.8777 63.4478 65.443C63.8718 65.0083 64.2036 64.4932 64.4237 63.9282C64.6437 63.3632 64.7475 62.76 64.7288 62.1543C64.6598 60.9556 64.1284 59.8298 63.2456 59.0122C62.3628 58.1946 61.197 57.7484 59.9916 57.7669Z" fill="#009EE5"/>
<path d="M8.2151 87.0001H62.0174C57.8536 87.0001 54.4025 82.9757 53.7488 77.6916C53.686 77.1878 53.4406 76.7242 53.0587 76.388C52.6767 76.0519 52.1846 75.8663 51.6749 75.8662H2.09535C1.78912 75.867 1.48677 75.9346 1.20948 76.064C0.932197 76.1935 0.686681 76.3817 0.490133 76.6156C0.293584 76.8495 0.150756 77.1234 0.0716568 77.4181C-0.00744283 77.7127 -0.020912 78.021 0.0322116 78.3214C0.873542 83.2906 4.21744 87.0001 8.2151 87.0001Z" fill="#E6ECFF"/>
<path d="M52.4572 23.095L41.7396 17.0049C40.995 16.5798 40.1516 16.3562 39.2933 16.3562C38.435 16.3562 37.5917 16.5798 36.847 17.0049L26.1294 23.095C25.3734 23.5247 24.7451 24.1462 24.3084 24.8961C23.8716 25.6461 23.642 26.4979 23.643 27.3649V39.4595C23.6409 40.3267 23.8701 41.1789 24.3069 41.9291C24.7438 42.6793 25.3727 43.3006 26.1294 43.7295L36.847 49.8248C37.5925 50.2473 38.4356 50.4695 39.2933 50.4695C40.1511 50.4695 40.9941 50.2473 41.7396 49.8248L52.4572 43.7295C53.214 43.3006 53.8429 42.6793 54.2797 41.9291C54.7166 41.1789 54.9457 40.3267 54.9437 39.4595V27.3649C54.9446 26.4979 54.715 25.6461 54.2783 24.8961C53.8415 24.1462 53.2132 23.5247 52.4572 23.095Z" fill="#2946ED"/>
<path d="M52.4572 23.095L41.7396 17.0049C40.995 16.5798 40.1516 16.3562 39.2933 16.3562C38.435 16.3562 37.5917 16.5798 36.847 17.0049L26.1294 23.095C25.3642 23.5315 24.7297 24.1635 24.2914 24.9257L39.296 33.4656L54.3006 24.9257C53.8623 24.1635 53.2278 23.5315 52.4625 23.095H52.4572Z" fill="#009EE5"/>
<path d="M54.2953 24.9258L39.2906 33.4657V50.476C40.1494 50.4759 40.9933 50.2533 41.7396 49.8302L52.4572 43.7349C53.214 43.306 53.8429 42.6847 54.2797 41.9345C54.7166 41.1843 54.9457 40.3321 54.9437 39.4649V27.3703C54.9429 26.5168 54.7194 25.678 54.2953 24.9364V24.9258Z" fill="#376CFB"/>
<path d="M60.1846 57.7668H55.6404V66.8405H60.1846C61.3927 66.8405 62.5513 66.3625 63.4055 65.5117C64.2597 64.6609 64.7396 63.5069 64.7396 62.3037C64.7396 61.1004 64.2597 59.9465 63.4055 59.0957C62.5513 58.2448 61.3927 57.7668 60.1846 57.7668Z" fill="#2946ED"/>
<path d="M20.0044 66.7178V57.8577C19.8162 57.9145 19.6361 57.9952 19.4685 58.0978L14.3509 61.4124C14.2094 61.5108 14.0938 61.6417 14.014 61.7941C13.9342 61.9465 13.8926 62.1159 13.8926 62.2878C13.8926 62.4596 13.9342 62.629 14.014 62.7814C14.0938 62.9338 14.2094 63.0647 14.3509 63.163L19.4685 66.4723C19.6336 66.5794 19.8144 66.6604 20.0044 66.7124V66.7178Z" fill="#2946ED"/>
<path d="M57.7356 57.7668H53.545V66.8138H57.7356V57.7668Z" fill="#376CFB"/>
</g>
<defs>
<clipPath id="clip0_8015_3439">
<rect width="87" height="87" fill="white"/>
</clipPath>
</defs>
</svg>
