<svg width="129" height="181" viewBox="0 0 129 181" fill="none" xmlns="http://www.w3.org/2000/svg">
<path d="M13.0751 103.846L13.0053 103.72C6.15382 92.1057 5.05863e-06 80.3933 5.05863e-06 64.7535C-0.0139492 29.0433 28.8434 0 64.301 0C99.7587 0 128.602 29.0433 128.602 64.7396C128.602 80.0579 122.337 92.539 115.569 103.748L115.443 103.944L64.301 180.284L13.0751 103.832V103.846Z" fill="#FF643C"/>
<path d="M64.2454 94.1641C80.6452 94.1641 93.9399 80.848 93.9399 64.4219C93.9399 47.9957 80.6452 34.6797 64.2454 34.6797C47.8455 34.6797 34.5508 47.9957 34.5508 64.4219C34.5508 80.848 47.8455 94.1641 64.2454 94.1641Z" fill="white"/>
</svg>
