<svg id="ico_walking_man" xmlns="http://www.w3.org/2000/svg" width="57" height="57" viewBox="0 0 57 57">
  <circle id="타원_742" data-name="타원 742" cx="28.5" cy="28.5" r="28.5" fill="#ff643c" opacity="0.46"/>
  <circle id="타원_743" data-name="타원 743" cx="21.5" cy="21.5" r="21.5" transform="translate(7 7)" fill="#ff643c" opacity="0.88"/>
  <circle id="타원_744" data-name="타원 744" cx="16.5" cy="16.5" r="16.5" transform="translate(12 12)" fill="#ff643c" opacity="0.88"/>
  <g id="ico_walking_man-2" data-name="ico_walking_man" transform="translate(20.182 14.713)">
    <g id="그룹_15159" data-name="그룹 15159">
      <path id="패스_71540" data-name="패스 71540" d="M15.158,12.767a1.706,1.706,0,0,1-2.124-.96L11.721,8.619,11.289,8.4v3.169a2.772,2.772,0,0,1-.988,2.127l-3.68,3.1a2.836,2.836,0,0,0-.733.955L3.325,23.263A1.743,1.743,0,0,1,.154,21.815l2.565-5.708a3.886,3.886,0,0,1,1.043-1.381L6.17,12.7A1.31,1.31,0,0,0,6.639,11.7V4.917a1.849,1.849,0,0,1,1.6-1.873,2.863,2.863,0,0,1,1.233,0,3.265,3.265,0,0,1,1.314.61l3.483,2.755a1.071,1.071,0,0,1,.323.421l1.573,3.658a1.693,1.693,0,0,1-.007,1.359,1.714,1.714,0,0,1-1,.92m.013-1.852L13.6,7.26l-3.03-2.582a3.673,3.673,0,0,0-1.245-.641,1.856,1.856,0,0,0-1.087.091c-.292,0-.517.5-.517.789V11.7a2.4,2.4,0,0,1-.855,1.839l-2.41,2.022a2.773,2.773,0,0,0-.75.992L1.142,22.258a.655.655,0,0,0-.009.517.646.646,0,0,0,.362.364.661.661,0,0,0,.848-.332l2.563-5.516a3.89,3.89,0,0,1,1.016-1.328l3.675-3.1a1.7,1.7,0,0,0,.609-1.3V6.616l2.009,1.04a1.073,1.073,0,0,1,.506.55l1.317,3.187a.614.614,0,0,0,1.13.015.6.6,0,0,0,0-.493" transform="translate(0 3.714)" fill="#fff"/>
      <path id="패스_71541" data-name="패스 71541" d="M.44,7.28c.209-.161.438-.467.7-.421a.951.951,0,0,1,.633.421l5.452,7.874a1.841,1.841,0,0,1,.345,1.461,1.678,1.678,0,0,1-.831,1.163,1.976,1.976,0,0,1-2.665-.67l-5.286-7.8c-.257-.414-.108-.751.291-1.056M4.988,16.53a.9.9,0,0,0,1.213.308.6.6,0,0,0,.3-.425.761.761,0,0,0-.142-.6L.941,7.988l-1.167.851Z" transform="translate(8.704 9.947)" fill="#fff"/>
      <path id="패스_71542" data-name="패스 71542" d="M7.347,10.123a1.608,1.608,0,0,1-1.136.471c-.057,0-.113,0-.17-.009a1.61,1.61,0,0,1-.975-2.733L8.077,4.814a.744.744,0,0,1,1.272.523V7.715a.97.97,0,0,1-.288.691Zm.918-3.959L5.835,8.616a.525.525,0,0,0,.744.742L8.265,7.672Z" transform="translate(-1.674 5.084)" fill="#fff"/>
      <path id="패스_71543" data-name="패스 71543" d="M1.956,3.093A3.095,3.095,0,1,1,5.051,6.187,3.1,3.1,0,0,1,1.956,3.093M5.051,5.211A2.119,2.119,0,1,0,2.932,3.093,2.121,2.121,0,0,0,5.051,5.211" transform="translate(3.688 0)" fill="#fff"/>
    </g>
  </g>
</svg>
