<svg xmlns="http://www.w3.org/2000/svg" xmlns:xlink="http://www.w3.org/1999/xlink" width="58" height="58" viewBox="0 0 58 58">
  <defs>
    <clipPath id="clip-path">
      <rect id="사각형_42" data-name="사각형 42" width="48.082" height="41.723" fill="#484848"/>
    </clipPath>
  </defs>
  <g id="icon_1" transform="translate(4 15)">
    <g id="그룹_38" data-name="그룹 38" transform="translate(1 -7)" clip-path="url(#clip-path)">
      <path id="패스_78" data-name="패스 78" d="M24.041,7.68C31.811-5.559,48.082.149,48.082,11c0,4.128-1.955,8.256-5.075,12.385H31.919L29.48,17.6l-1.566-3.715-1.291,3.823-2.889,8.554L19.949,10.324,18.508,4.25l-1.536,6.055L14.358,20.612l-.17-.333-1.341-2.625-1.373,2.607L9.828,23.389H5.075C1.955,19.261,0,15.133,0,11,0,.149,16.27-5.559,24.041,7.68M40.486,26.457c-4.5,5.089-10.472,10.178-16.445,15.267C18.067,36.634,12.093,31.545,7.595,26.457h4.076l.432-.821.706-1.341.676,1.323,1.846,3.616,1-3.939L18.408,17.1l3.574,15.061,1.233,5.193L24.924,32.3,28.23,22.5l1.27,3.011.4.941h10.59Z" transform="translate(0 0)" fill="#484848" fill-rule="evenodd"/>
    </g>
    <rect id="사각형_111" data-name="사각형 111" width="58" height="58" transform="translate(-4 -15)" fill="none"/>
  </g>
</svg>
