<svg xmlns="http://www.w3.org/2000/svg" xmlns:xlink="http://www.w3.org/1999/xlink" width="58" height="58" viewBox="0 0 58 58">
  <defs>
    <clipPath id="clip-path">
      <rect id="사각형_107" data-name="사각형 107" width="27.38" height="54.778" fill="#484848" stroke="#484848" stroke-width="1"/>
    </clipPath>
  </defs>
  <g id="icon_2" transform="translate(15.31 2.979)">
    <g id="그룹_145" data-name="그룹 145" transform="translate(-0.31 -0.979)" clip-path="url(#clip-path)">
      <path id="패스_94" data-name="패스 94" d="M26.633,43.27H1.5a.852.852,0,0,1-.852-.852V31.77a.852.852,0,0,1,.852-.852H26.633a.852.852,0,0,1,.852.852V42.418a.852.852,0,0,1-.852.852m-24.279-1.7H25.781V32.622H2.354Z" transform="translate(-0.378 -17.963)" fill="#484848" stroke="#484848" stroke-width="1"/>
      <path id="패스_95" data-name="패스 95" d="M26.633,43.27H1.5a.852.852,0,0,1-.852-.852V31.77a.852.852,0,0,1,.852-.852H26.633a.852.852,0,0,1,.852.852V42.418A.852.852,0,0,1,26.633,43.27Zm-24.279-1.7H25.781V32.622H2.354Z" transform="translate(-0.378 -17.963)" fill="#484848" stroke="#484848" stroke-miterlimit="10" stroke-width="1.3"/>
      <path id="패스_96" data-name="패스 96" d="M27.235,87.235H5.221a.852.852,0,0,1-.852-.852v-29.2a.852.852,0,1,1,1.7,0V85.531H26.384V57.184a.852.852,0,1,1,1.7,0v29.2a.852.852,0,0,1-.852.852" transform="translate(-2.538 -32.729)" fill="#484848" stroke="#484848" stroke-width="1"/>
      <path id="패스_97" data-name="패스 97" d="M27.235,87.235H5.221a.852.852,0,0,1-.852-.852v-29.2a.852.852,0,1,1,1.7,0V85.531H26.384V57.184a.852.852,0,1,1,1.7,0v29.2A.852.852,0,0,1,27.235,87.235Z" transform="translate(-2.538 -32.729)" fill="#484848" stroke="#484848" stroke-miterlimit="10" stroke-width="1.3"/>
      <path id="패스_98" data-name="패스 98" d="M28.555,15.036h-.029a.852.852,0,0,1-.823-.88c.115-3.467-4.467-5.36-4.514-5.379a.854.854,0,0,1-.534-.791V4.1a1.733,1.733,0,0,0-1.611-1.746h-.152A1.733,1.733,0,0,0,19.282,4.1V7.986a.852.852,0,0,1-.535.791c-.045.018-4.628,1.912-4.512,5.378a.852.852,0,1,1-1.7.057c-.128-3.86,3.618-6.073,5.047-6.774V4.1A3.451,3.451,0,0,1,20.846.65h.246A3.451,3.451,0,0,1,24.359,4.1V7.439c1.428.7,5.175,2.914,5.047,6.774a.852.852,0,0,1-.851.823" transform="translate(-7.279 -0.378)" fill="#484848" stroke="#484848" stroke-width="1"/>
      <path id="패스_99" data-name="패스 99" d="M28.555,15.036h-.029a.852.852,0,0,1-.823-.88c.115-3.467-4.467-5.36-4.514-5.379a.854.854,0,0,1-.534-.791V4.1a1.733,1.733,0,0,0-1.611-1.746h-.152A1.733,1.733,0,0,0,19.282,4.1V7.986a.852.852,0,0,1-.535.791c-.045.018-4.628,1.912-4.512,5.378a.852.852,0,1,1-1.7.057c-.128-3.86,3.618-6.073,5.047-6.774V4.1A3.451,3.451,0,0,1,20.846.65h.246A3.451,3.451,0,0,1,24.359,4.1V7.439c1.428.7,5.175,2.914,5.047,6.774A.852.852,0,0,1,28.555,15.036Z" transform="translate(-7.279 -0.378)" fill="#484848" stroke="#484848" stroke-miterlimit="10" stroke-width="1.3"/>
      <path id="패스_100" data-name="패스 100" d="M17.884,74.894H14.66a.852.852,0,1,1,0-1.7h3.223a.852.852,0,0,1,0,1.7" transform="translate(-8.022 -42.523)" fill="#484848" stroke="#484848" stroke-width="1"/>
      <path id="패스_101" data-name="패스 101" d="M17.884,74.894H14.66a.852.852,0,1,1,0-1.7h3.223a.852.852,0,0,1,0,1.7Z" transform="translate(-8.022 -42.523)" fill="#484848" stroke="#484848" stroke-miterlimit="10" stroke-width="1.3"/>
      <path id="패스_102" data-name="패스 102" d="M17.884,86.72H14.66a.852.852,0,1,1,0-1.7h3.223a.852.852,0,1,1,0,1.7" transform="translate(-8.022 -49.394)" fill="#484848" stroke="#484848" stroke-width="1"/>
      <path id="패스_103" data-name="패스 103" d="M17.884,86.72H14.66a.852.852,0,1,1,0-1.7h3.223a.852.852,0,1,1,0,1.7Z" transform="translate(-8.022 -49.394)" fill="#484848" stroke="#484848" stroke-miterlimit="10" stroke-width="1.3"/>
      <path id="패스_104" data-name="패스 104" d="M17.884,98.546H14.66a.852.852,0,1,1,0-1.7h3.223a.852.852,0,1,1,0,1.7" transform="translate(-8.022 -56.265)" fill="#484848" stroke="#484848" stroke-width="1"/>
      <path id="패스_105" data-name="패스 105" d="M17.884,98.546H14.66a.852.852,0,1,1,0-1.7h3.223a.852.852,0,1,1,0,1.7Z" transform="translate(-8.022 -56.265)" fill="#484848" stroke="#484848" stroke-miterlimit="10" stroke-width="1.3"/>
      <path id="패스_106" data-name="패스 106" d="M17.884,110.373H14.66a.852.852,0,1,1,0-1.7h3.223a.852.852,0,1,1,0,1.7" transform="translate(-8.022 -63.136)" fill="#484848" stroke="#484848" stroke-width="1"/>
      <path id="패스_107" data-name="패스 107" d="M17.884,110.373H14.66a.852.852,0,1,1,0-1.7h3.223a.852.852,0,1,1,0,1.7Z" transform="translate(-8.022 -63.136)" fill="#484848" stroke="#484848" stroke-miterlimit="10" stroke-width="1.3"/>
    </g>
    <rect id="사각형_110" data-name="사각형 110" width="58" height="58" transform="translate(-15.31 -2.979)" fill="none"/>
  </g>
</svg>
