<svg xmlns="http://www.w3.org/2000/svg" width="58" height="58" viewBox="0 0 58 58">
  <g id="icon_4" transform="translate(0 1.669)">
    <rect id="사각형_108" data-name="사각형 108" width="58" height="58" transform="translate(0 -1.669)" fill="none"/>
    <g id="그룹_46" data-name="그룹 46" transform="translate(5)">
      <path id="패스_83" data-name="패스 83" d="M19.006,70.389a4.907,4.907,0,0,0-4.8-4.932c-3.121-.085-6.286-.085-9.407,0A4.907,4.907,0,0,0,0,70.389V88.461H4.815v19.486H6.541V86.734H1.726V70.389a3.19,3.19,0,0,1,3.12-3.206c3.09-.084,6.224-.084,9.314,0a3.19,3.19,0,0,1,3.12,3.206V86.734H12.464v21.213h1.726V88.461h4.815Z" transform="translate(0 -52.815)" fill="#484848" stroke="#484848" stroke-width="1.5"/>
      <path id="패스_84" data-name="패스 84" d="M28.836,9.795a4.9,4.9,0,1,0-4.9-4.9,4.9,4.9,0,0,0,4.9,4.9m0-8.068A3.171,3.171,0,1,1,25.664,4.9a3.176,3.176,0,0,1,3.172-3.172" transform="translate(-19.333)" fill="#484848" stroke="#484848" stroke-width="1.5"/>
      <path id="패스_85" data-name="패스 85" d="M170.493,4.9a4.9,4.9,0,1,0-4.9,4.9,4.9,4.9,0,0,0,4.9-4.9m-8.071,0a3.172,3.172,0,1,1,3.172,3.17,3.176,3.176,0,0,1-3.172-3.17" transform="translate(-129.786)" fill="#484848" stroke="#484848" stroke-width="1.5"/>
      <path id="패스_86" data-name="패스 86" d="M134.156,95.88v11.97h1.726v-13.7h-6.328l4.568-14.422.055-.174-.991-8.96a3.207,3.207,0,0,1,3.075-3.557l.062,0c1.491-.051,3-.05,4.492,0a3.207,3.207,0,0,1,3.075,3.557l-.991,8.96,4.623,14.6H141.2v13.7h1.726V95.88h6.959l-5.225-16.5.951-8.6a4.934,4.934,0,0,0-4.731-5.472c-1.551-.054-3.123-.054-4.674,0l-.091,0h0a4.933,4.933,0,0,0-4.635,5.468l.951,8.6L127.2,95.88Z" transform="translate(-102.73 -52.718)" fill="#484848" stroke="#484848" stroke-width="1.5"/>
    </g>
  </g>
</svg>
