<svg xmlns="http://www.w3.org/2000/svg" xmlns:xlink="http://www.w3.org/1999/xlink" width="109.883" height="143.681" viewBox="0 0 109.883 143.681">
  <defs>
    <filter id="패스_232" x="0" y="0" width="109.883" height="143.681" filterUnits="userSpaceOnUse">
      <feOffset input="SourceAlpha"/>
      <feGaussianBlur stdDeviation="5" result="blur"/>
      <feFlood flood-color="#2e2e2e" flood-opacity="0.8"/>
      <feComposite operator="in" in2="blur"/>
      <feComposite in="SourceGraphic"/>
    </filter>
  </defs>
  <g id="Arrival" transform="translate(12.941 12.852)">
    <g id="그룹_255" data-name="그룹 255">
      <ellipse id="타원_3" data-name="타원 3" cx="27.5" cy="9" rx="27.5" ry="9" transform="translate(12.982 109)" fill="#404040"/>
      <g transform="matrix(1, 0, 0, 1, -12.94, -12.85)" filter="url(#패스_232)">
        <path id="패스_232-2" data-name="패스 232" d="M75.843,117.226c-3.323-4.218-11.361-14.652-19.314-26.711C43.035,70.051,35.9,54.274,35.9,44.891A42.334,42.334,0,0,1,39.04,28.8,41.328,41.328,0,0,1,47.6,15.655,39.762,39.762,0,0,1,60.3,6.793a38.828,38.828,0,0,1,31.092,0,39.758,39.758,0,0,1,12.7,8.861,41.328,41.328,0,0,1,8.56,13.143,42.333,42.333,0,0,1,3.138,16.093c0,9.388-7.14,25.174-20.647,45.653-7.95,12.053-15.974,22.469-19.294,26.683" transform="translate(-20.9 11.46)" fill="#db0000"/>
      </g>
      <path id="패스_233" data-name="패스 233" d="M74.358,4.3A36.5,36.5,0,0,0,59.626,7.374a37.679,37.679,0,0,0-12.033,8.4,39.191,39.191,0,0,0-8.114,12.461,40.149,40.149,0,0,0-2.973,15.257,30.924,30.924,0,0,0,1.6,8.827,84.021,84.021,0,0,0,4.514,11.2A211.454,211.454,0,0,0,56.746,87.878c6.831,10.364,13.731,19.528,17.612,24.536,3.882-5.008,10.781-14.171,17.612-24.536A211.453,211.453,0,0,0,106.093,63.52a84.023,84.023,0,0,0,4.514-11.2,30.944,30.944,0,0,0,1.6-8.827,40.149,40.149,0,0,0-2.973-15.257,39.191,39.191,0,0,0-8.114-12.461,37.686,37.686,0,0,0-12.033-8.4A36.5,36.5,0,0,0,74.358,4.3m0-4.3c23.2,0,42,19.473,42,43.494s-42,75.712-42,75.712-42-51.691-42-75.712S51.162,0,74.358,0" transform="translate(-32.358)" fill="#fff"/>
      <path id="패스_234" data-name="패스 234" d="M85.7,26.583c14.781,0,26.764,12.5,26.764,27.922S100.486,82.427,85.7,82.427,58.941,69.926,58.941,54.5,70.924,26.583,85.7,26.583" transform="translate(-43.179 -10.474)" fill="#fff"/>
    </g>
  </g>
</svg>
