<svg xmlns="http://www.w3.org/2000/svg" xmlns:xlink="http://www.w3.org/1999/xlink" width="109.891" height="145.127" viewBox="0 0 109.891 145.127">
  <defs>
    <filter id="패스_228" x="0" y="0" width="109.891" height="145.127" filterUnits="userSpaceOnUse">
      <feOffset input="SourceAlpha"/>
      <feGaussianBlur stdDeviation="5" result="blur"/>
      <feFlood flood-opacity="0.8"/>
      <feComposite operator="in" in2="blur"/>
      <feComposite in="SourceGraphic"/>
    </filter>
  </defs>
  <g id="departure" transform="translate(12.945 12.946)">
    <g id="그룹_249" data-name="그룹 249">
      <ellipse id="타원_4" data-name="타원 4" cx="27.768" cy="9" rx="27.768" ry="9" transform="translate(14.242 109)" fill="#404040"/>
      <g transform="matrix(1, 0, 0, 1, -12.95, -12.95)" filter="url(#패스_228)">
        <path id="패스_228-2" data-name="패스 228" d="M76.451,118.672c-3.323-4.272-11.363-14.838-19.316-27.051-13.5-20.725-20.63-36.7-20.63-46.2a43.345,43.345,0,0,1,3.139-16.3,41.91,41.91,0,0,1,8.561-13.311A39.765,39.765,0,0,1,60.9,6.834a38.389,38.389,0,0,1,31.1,0,39.761,39.761,0,0,1,12.7,8.974,41.91,41.91,0,0,1,8.561,13.311,43.344,43.344,0,0,1,3.138,16.3c0,9.508-7.14,25.495-20.649,46.233-7.951,12.206-15.976,22.755-19.3,27.022" transform="translate(-21.51 11.46)" fill="#2946ed"/>
      </g>
      <path id="패스_229" data-name="패스 229" d="M74.961,4.339a36.187,36.187,0,0,0-14.732,3.11A37.687,37.687,0,0,0,48.2,15.936a39.629,39.629,0,0,0-8.113,12.587,40.913,40.913,0,0,0-2.973,15.411,31.541,31.541,0,0,0,1.6,8.916,85.373,85.373,0,0,0,4.514,11.313,214.141,214.141,0,0,0,14.123,24.6c6.831,10.469,13.731,19.725,17.612,24.784,3.882-5.059,10.781-14.315,17.612-24.784a214.14,214.14,0,0,0,14.123-24.6A85.372,85.372,0,0,0,111.21,52.85a31.541,31.541,0,0,0,1.6-8.916,40.912,40.912,0,0,0-2.973-15.411,39.629,39.629,0,0,0-8.113-12.587A37.687,37.687,0,0,0,89.693,7.449a36.187,36.187,0,0,0-14.732-3.11m0-4.339c23.2,0,42,19.67,42,43.934s-42,76.477-42,76.477-42-52.214-42-76.477S51.765,0,74.961,0" transform="translate(-32.961)" fill="#fff"/>
      <path id="패스_230" data-name="패스 230" d="M86.249,26.583A26.705,26.705,0,1,1,59.544,53.288,26.705,26.705,0,0,1,86.249,26.583" transform="translate(-43.725 -11.176)" fill="#fff"/>
    </g>
  </g>
</svg>
