<svg xmlns="http://www.w3.org/2000/svg" width="470" height="300" viewBox="0 0 470 300">
  <g id="facilities_ico_1_pop" transform="translate(0.088)">
    <rect id="facility_list" width="470" height="300" transform="translate(-0.088 0)" fill="#efeff6"/>
    <g id="그룹_1864" data-name="그룹 1864" transform="translate(179.434 102.359)">
      <path id="패스_2791" data-name="패스 2791" d="M14.673,0a8.781,8.781,0,0,1,8.76,8.873,8.824,8.824,0,1,1-17.648,0A8.848,8.848,0,0,1,14.673,0" transform="translate(8.76)" fill="#656a82"/>
      <path id="패스_2792" data-name="패스 2792" d="M42.086,0a8.794,8.794,0,0,1,8.664,8.873,8.772,8.772,0,1,1-17.543,0A8.837,8.837,0,0,1,42.086,0" transform="translate(50.288)" fill="#656a82"/>
      <rect id="사각형_1366" data-name="사각형 1366" width="4.106" height="100.901" transform="translate(55.885 1.809)" fill="#656a82"/>
      <path id="패스_2793" data-name="패스 2793" d="M56.91,7.649c12.889,0,12.283,11.179,12.283,11.179V44.477a3.9,3.9,0,0,1-3.832,3.942,3.962,3.962,0,0,1-3.953-3.942V22.446H59.6V87.882a4.9,4.9,0,1,1-9.8,0V48.919H48.1V87.882a5.031,5.031,0,0,1-5,4.926,4.964,4.964,0,0,1-4.873-4.926V22.446H36.421V44.477a3.979,3.979,0,0,1-3.847,3.942,3.893,3.893,0,0,1-3.942-3.942V18.828s-.6-11.179,12.283-11.179Z" transform="translate(43.35 11.584)" fill="#656a82"/>
      <path id="패스_2794" data-name="패스 2794" d="M28.967,7.845a10.557,10.557,0,0,1,10.256,7.234l7.5,26.81c.385,1.471-.488,3.608-2.029,4-1.916.543-3.623.267-4.274-1.981L33.5,20.243l-1.192.432L42.942,58.65H32.311V88.075a3.947,3.947,0,0,1-3.942,4.051,4.089,4.089,0,0,1-3.95-4.051V58.813H22.324V88.075a4.078,4.078,0,0,1-3.937,4.051,3.985,3.985,0,0,1-3.955-4.051V58.65H3.809L14.5,20.676l-1.32-.432L6.446,43.9c-.666,2.248-2.414,2.524-4.393,1.981C.63,45.5-.31,43.36.095,41.889L7.6,15.079A10.466,10.466,0,0,1,17.844,7.845Z" transform="translate(0 11.88)" fill="#656a82"/>
    </g>
  </g>
</svg>
