<svg xmlns="http://www.w3.org/2000/svg" width="180" height="150" viewBox="0 0 180 150">
  <g id="facilities_ico_17" transform="translate(68.769 60.304)">
    <rect id="facility_list" width="180" height="150" transform="translate(-68.769 -60.304)" fill="#fff"/>
    <g id="그룹_1854" data-name="그룹 1854">
      <path id="패스_2882" data-name="패스 2882" d="M.253,6.438A6.283,6.283,0,0,1,6.643,0a6.477,6.477,0,0,1,5.315,2.559L10.306,4.18A4.538,4.538,0,0,0,6.775,2.394,3.9,3.9,0,0,0,2.829,6.438a3.837,3.837,0,0,0,3.933,3.946,4.6,4.6,0,0,0,3.592-1.806l1.706,1.556a6.747,6.747,0,0,1-5.452,2.624A6.151,6.151,0,0,1,.253,6.438" transform="translate(-29.303 2.275)" fill="#656a82"/>
      <path id="패스_2883" data-name="패스 2883" d="M8.259,7.942V.1h2.492V7.777a2.2,2.2,0,0,0,2.342,2.489A2.2,2.2,0,0,0,15.4,7.777V.1h2.509V7.942c0,3.262-2.223,4.734-4.814,4.734-2.611,0-4.834-1.472-4.834-4.734" transform="translate(-19.933 2.392)" fill="#656a82"/>
      <path id="패스_2884" data-name="패스 2884" d="M15.755.1h2.492v9.986H24.52V12.46H15.755Z" transform="translate(-11.159 2.392)" fill="#656a82"/>
      <path id="패스_2885" data-name="패스 2885" d="M20.988,2.493V.1h9.563V2.493H27.022v9.969H24.515V2.493Z" transform="translate(-5.034 2.391)" fill="#656a82"/>
      <path id="패스_2886" data-name="패스 2886" d="M27.921,7.942V.1h2.492V7.777a2.33,2.33,0,1,0,4.649,0V.1h2.507V7.942c0,3.262-2.223,4.734-4.814,4.734-2.609,0-4.834-1.472-4.834-4.734" transform="translate(3.081 2.392)" fill="#656a82"/>
      <path id="패스_2887" data-name="패스 2887" d="M39.365,7.958H37.9v4.5H35.417V.1h4.734c2.9,0,4.23,1.858,4.23,3.915a3.714,3.714,0,0,1-2.509,3.629l3,4.818H41.974ZM37.9,5.736h2.023a1.676,1.676,0,0,0,1.923-1.686,1.592,1.592,0,0,0-1.706-1.658H37.9Z" transform="translate(11.854 2.391)" fill="#656a82"/>
      <path id="패스_2888" data-name="패스 2888" d="M42.467.1h8.378V2.411H44.961V5.066h5.45V7.377h-5.45v2.774h5.884V12.46H42.467Z" transform="translate(20.106 2.392)" fill="#656a82"/>
      <path id="패스_2889" data-name="패스 2889" d="M7.861,18.859H3.544l-.955,2.672H0L4.719,9.177H6.737l4.651,12.354H8.775ZM4.248,16.654H7.156L5.717,12.535Z" transform="translate(-29.599 13.016)" fill="#656a82"/>
      <path id="패스_2890" data-name="패스 2890" d="M6.634,15.516a6.284,6.284,0,0,1,6.388-6.44,6.486,6.486,0,0,1,5.318,2.561l-1.654,1.621a4.542,4.542,0,0,0-3.531-1.791,3.906,3.906,0,0,0-3.946,4.048,3.838,3.838,0,0,0,3.931,3.946,4.609,4.609,0,0,0,3.594-1.806l1.706,1.554a6.746,6.746,0,0,1-5.45,2.624,6.147,6.147,0,0,1-6.355-6.318" transform="translate(-21.834 12.898)" fill="#656a82"/>
      <path id="패스_2891" data-name="패스 2891" d="M21.237,18.859H16.92l-.955,2.672H13.374L18.093,9.177h2.021l4.651,12.354H22.156Zm-3.614-2.205h2.911L19.1,12.535Z" transform="translate(-13.946 13.016)" fill="#656a82"/>
      <path id="패스_2892" data-name="패스 2892" d="M20.551,9.176h4.834c3.729,0,5.954,2.39,5.954,6.205,0,3.777-2.257,6.151-6.053,6.151H20.551ZM25.4,19.158c2.225,0,3.362-1.734,3.362-3.826,0-2.058-1.137-3.781-3.362-3.781H23.025v7.607Z" transform="translate(-5.545 13.015)" fill="#656a82"/>
      <path id="패스_2893" data-name="패스 2893" d="M27.716,9.177h8.378v2.305H30.208v2.661H35.66v2.309H30.208v2.774h5.886v2.305H27.716Z" transform="translate(2.841 13.016)" fill="#656a82"/>
      <path id="패스_2894" data-name="패스 2894" d="M33.848,9.177h1.643l4.849,7.008,4.8-7.008h1.678V21.531H44.336v-7l-3.59,5.168h-.859l-3.594-5.168v7H33.848Z" transform="translate(10.018 13.016)" fill="#656a82"/>
      <path id="패스_2895" data-name="패스 2895" d="M48.482,17.255v4.278H46.01V17.255L41.778,9.177h2.858l2.609,5.417,2.661-5.417h2.858Z" transform="translate(19.299 13.016)" fill="#656a82"/>
    </g>
  </g>
</svg>
