<svg xmlns="http://www.w3.org/2000/svg" width="180" height="150" viewBox="0 0 180 150">
  <g id="facilities_ico_18" transform="translate(68.769 60.304)">
    <rect id="facility_list" width="180" height="150" transform="translate(-68.769 -60.304)" fill="#fff"/>
    <path id="패스_2896" data-name="패스 2896" d="M57.347,4.169H53.69V1.44A1.44,1.44,0,0,0,52.251,0h-13.5A12.221,12.221,0,0,0,30.06,3.6l-.664.668-.67-.668A12.209,12.209,0,0,0,20.035,0H6.54A1.44,1.44,0,0,0,5.1,1.44V4.169H1.444A1.444,1.444,0,0,0,0,5.608V44.275a1.444,1.444,0,0,0,1.444,1.442h55.9a1.442,1.442,0,0,0,1.44-1.442V5.608a1.441,1.441,0,0,0-1.44-1.44M32.1,42.834a9.346,9.346,0,0,1,6.653-2.755h13.5a1.441,1.441,0,0,0,1.44-1.44V7.045h2.219V42.836H32.1ZM38.753,2.877h12.06V37.2H38.753a12.19,12.19,0,0,0-7.919,2.892V6.9L32.1,5.634a9.355,9.355,0,0,1,6.653-2.757m-10.8,37.215A12.19,12.19,0,0,0,20.035,37.2H7.975V2.877h12.06a9.357,9.357,0,0,1,6.656,2.757L27.955,6.9ZM6.54,40.079h13.5a9.347,9.347,0,0,1,6.656,2.755l0,0H2.877V7.045H5.1V38.64a1.442,1.442,0,0,0,1.442,1.44" transform="translate(-8.162 -8.224)" fill="#656a82"/>
  </g>
</svg>
