<svg xmlns="http://www.w3.org/2000/svg" width="470" height="300" viewBox="0 0 470 300">
  <g id="facilities_ico_16_pop" transform="translate(0.142 0.186)">
    <rect id="facility_list" width="470" height="300" transform="translate(-0.142 -0.185)" fill="#efeff7"/>
    <g id="그룹_1857" data-name="그룹 1857" transform="translate(140.697 108.581)">
      <path id="패스_2873" data-name="패스 2873" d="M13.255,17.463l4.413,10.221h-8.8ZM11.249,12.1,0,37.836H4.6l2.627-6.175H19.308l2.6,6.175h4.739L15.409,12.1Z" transform="translate(0 37.251)" fill="#656a82"/>
      <path id="패스_2874" data-name="패스 2874" d="M7.607,12.146H18.994a12.513,12.513,0,0,1,4.27.673,8.541,8.541,0,0,1,3.1,1.876,7.454,7.454,0,0,1,1.574,2.447,8.34,8.34,0,0,1,.542,3.067v.073a8.187,8.187,0,0,1-.453,2.826,7.4,7.4,0,0,1-1.26,2.227,7.548,7.548,0,0,1-1.917,1.644,9.207,9.207,0,0,1-2.459,1.04L29.285,37.7H23.991L17.7,28.791H12.057V37.7H7.607ZM18.648,24.81a5.932,5.932,0,0,0,3.846-1.154,3.816,3.816,0,0,0,1.432-3.136V20.45a3.79,3.79,0,0,0-1.395-3.177A6.271,6.271,0,0,0,18.615,16.2H12.057V24.81Z" transform="translate(23.419 37.393)" fill="#656a82"/>
      <path id="패스_2875" data-name="패스 2875" d="M21.734,16.305h-8.1v-4.16H34.361v4.16h-8.1V37.7H21.734Z" transform="translate(41.961 37.39)" fill="#656a82"/>
      <path id="패스_2876" data-name="패스 2876" d="M22.88,12.145h4.45V22.766H39.594V12.145h4.45V37.7h-4.45V26.926H27.33V37.7H22.88Z" transform="translate(70.438 37.39)" fill="#656a82"/>
      <path id="패스_2877" data-name="패스 2877" d="M40.385,12.1h4.164L55.789,37.836H51.046l-2.594-6.171H36.375l-2.631,6.171h-4.6Zm6.424,15.584L42.4,17.463l-4.38,10.221Z" transform="translate(89.723 37.251)" fill="#656a82"/>
      <path id="패스_2878" data-name="패스 2878" d="M36.751,12.145H41.2V33.639H54.64V37.7H36.751Z" transform="translate(113.142 37.39)" fill="#656a82"/>
      <path id="패스_2879" data-name="패스 2879" d="M42.29,12.145h4.454V33.639H60.183V37.7H42.29Z" transform="translate(130.194 37.39)" fill="#656a82"/>
      <path id="패스_2880" data-name="패스 2880" d="M62.16.275l-32.767,20.3V.275H24.963v27.6l20.169-12.86L63.583,26.68h7.676L48.786,12.919,69.766.275Z" transform="translate(76.851 0.847)" fill="#656a82"/>
      <path id="패스_2881" data-name="패스 2881" d="M10.362,27.526h5.889L37.607,5.7,58.958,27.526h5.9L37.635,0Z" transform="translate(31.9 0)" fill="#656a82"/>
    </g>
  </g>
</svg>
