<svg xmlns="http://www.w3.org/2000/svg" width="180" height="150" viewBox="0 0 180 150">
  <g id="facilities_ico_7" transform="translate(68.769 60.304)">
    <rect id="facility_list" width="180" height="150" transform="translate(-68.769 -60.304)" fill="#fff"/>
    <g id="그룹_1860" data-name="그룹 1860">
      <path id="패스_2776" data-name="패스 2776" d="M20.521,0a2.384,2.384,0,1,0,2.367,2.377A2.363,2.363,0,0,0,20.521,0" transform="translate(4.208 -12.716)" fill="#656a82"/>
      <path id="패스_2777" data-name="패스 2777" d="M15.387,0a2.384,2.384,0,1,0,2.378,2.377A2.377,2.377,0,0,0,15.387,0" transform="translate(2.984 -12.716)" fill="#656a82"/>
      <path id="패스_2778" data-name="패스 2778" d="M0,60.976H6.748l5.417-8.613H30.69L36.3,61.716h6.366L33.525,47.481A9.073,9.073,0,0,0,39.3,39.069V13.627a9,9,0,0,0-8.963-8.973H12.543a9,9,0,0,0-8.984,8.973V39.069a8.992,8.992,0,0,0,6.317,8.578ZM7.8,40a3.412,3.412,0,0,1,3.427-3.408A3.435,3.435,0,1,1,7.8,40M26.85,9.649a1.481,1.481,0,0,1-1.464,1.476H17.662A1.473,1.473,0,0,1,16.2,9.649V7.867a1.482,1.482,0,0,1,1.463-1.487h7.724A1.49,1.49,0,0,1,26.85,7.867ZM34.812,21.1a3.764,3.764,0,0,1-3.748,3.75H11.6A3.757,3.757,0,0,1,7.858,21.1V16.627A3.755,3.755,0,0,1,11.6,12.886H31.064a3.763,3.763,0,0,1,3.748,3.741ZM31.179,43.457A3.435,3.435,0,1,1,34.636,40a3.451,3.451,0,0,1-3.458,3.461" transform="translate(-0.102 -11.611)" fill="#656a82"/>
    </g>
  </g>
</svg>
