<svg xmlns="http://www.w3.org/2000/svg" width="180" height="150" viewBox="0 0 180 150">
  <g id="facilities_ico_2" transform="translate(68.769 60.304)">
    <rect id="facility_list" width="180" height="150" transform="translate(-68.769 -60.304)" fill="#fff"/>
    <path id="패스_2833" data-name="패스 2833" d="M17.907,14.335a7.168,7.168,0,1,0-7.168-7.168,7.169,7.169,0,0,0,7.168,7.168M35.291,26.619,24.208,15.884H11.621L.649,26.04C-.928,27.6.866,29.706.866,29.706a2.572,2.572,0,0,0,3.194.527l6.556-5.658v3.216a2.144,2.144,0,0,0,2.165,2.22h10.4A2.2,2.2,0,0,0,25.5,27.9V24.743l6.516,6.044c1.334.781,2.892-.555,2.892-.555,1.806-2.111.388-3.613.388-3.613M16.575,46.7l-4.083-4.359,3.9-3.721-5.643-6.057L4.824,38.3a2.577,2.577,0,0,0-.555,1.694,3.783,3.783,0,0,0,.777,2.495l7.977,8.284c1.472.943,3.065-.761,3.065-.761,1.819-2.091.487-3.3.487-3.3m8.5-14.138-5.643,6.057,3.894,3.721L19.247,46.7s-1.336,1.211.483,3.3c0,0,1.6,1.7,3.067.761l7.982-8.284a3.767,3.767,0,0,0,.772-2.495A2.577,2.577,0,0,0,31,38.3Z" transform="translate(2.2 -8.201)" fill="#656a82"/>
  </g>
</svg>
