<svg xmlns="http://www.w3.org/2000/svg" width="470" height="300" viewBox="0 0 470 300">
  <g id="facilities_ico_10_pop" transform="translate(0.403 -0.182)">
    <rect id="facility_list" width="470" height="300" transform="translate(-0.403 0.182)" fill="#efeff7"/>
    <path id="패스_2851" data-name="패스 2851" d="M19.2,6.628A10.289,10.289,0,0,0,33.445,20.885l.4-.264L19.46,6.23Z" transform="translate(239.637 113.022)" fill="#656a82"/>
    <path id="패스_2852" data-name="패스 2852" d="M24.546,5.254a10.209,10.209,0,0,0-5.683,1.714l-.4.268,14.4,14.382.264-.4A10.335,10.335,0,0,0,31.8,8.266a10.171,10.171,0,0,0-7.254-3.012" transform="translate(242.174 110.832)" fill="#656a82"/>
    <path id="패스_2853" data-name="패스 2853" d="M107.1,24.623A15.283,15.283,0,0,0,92.142,9.405l-.766-.013v-6A3.4,3.4,0,0,0,87.969,0H83.507A3.407,3.407,0,0,0,80.1,3.389V9.405h-.783l-68.878.022A10.448,10.448,0,0,0,0,19.866V49.575A10.449,10.449,0,0,0,10.435,60.023h5.9v9.5a3.417,3.417,0,0,0,3.307,3.4h2.411V84.07H19.645v-.009h-.017L3.406,84.044a3.357,3.357,0,0,0-2.4.991A3.418,3.418,0,0,0,0,87.441v12.846a3.4,3.4,0,0,0,3.406,3.4H103.663a3.384,3.384,0,0,0,2.393-1,3.446,3.446,0,0,0,1-2.415l-.013-12.755ZM27.1,72.921h2.385a3.411,3.411,0,0,0,3.354-3.4v-9.5H66.6V84.1h-.775l-35.6-.035H27.1Zm74.821,24.857v.783H5.146V89.173h.775L70,89.238a1.736,1.736,0,0,0,1.74-1.731V56.634A1.734,1.734,0,0,0,70,54.907H29.44a1.726,1.726,0,0,0-1.727,1.727V67.8h-6.25V56.634a1.722,1.722,0,0,0-1.723-1.727H10.435a5.325,5.325,0,0,1-5.3-5.332V19.866a5.311,5.311,0,0,1,5.3-5.3H91.873a10.089,10.089,0,0,1,10.1,10.059l-.061,62.892Z" transform="translate(179.975 94.082)" fill="#656a82"/>
  </g>
</svg>
