<svg xmlns="http://www.w3.org/2000/svg" width="180" height="150" viewBox="0 0 180 150">
  <g id="facilities_ico_15" transform="translate(68.769 60.304)">
    <rect id="facility_list" width="180" height="150" transform="translate(-68.769 -60.304)" fill="#fff"/>
    <g id="그룹_1856" data-name="그룹 1856">
      <path id="패스_2864" data-name="패스 2864" d="M45.6.276,29.317,10.368V.276h-2.2V14L37.14,7.6l9.169,5.8h3.819L38.955,6.559,49.383.276Z" transform="translate(-2.155 -5.502)" fill="#656a82"/>
      <path id="패스_2865" data-name="패스 2865" d="M26.005,0,12.452,13.684h2.927L25.991,2.834,36.6,13.684h2.931Z" transform="translate(-17.088 -5.783)" fill="#656a82"/>
      <path id="패스_2866" data-name="패스 2866" d="M14.4,12.589,8.328,23.67h2.438l1.469-2.658.862-1.594,2.711-4.89,2.668,4.89.866,1.594,1.489,2.658h2.44l-6.119-11.08Z" transform="translate(-21.288 7.036)" fill="#656a82"/>
      <path id="패스_2867" data-name="패스 2867" d="M17.249,12.589V23.67h10.4V21.835H19.626V12.589Z" transform="translate(-12.205 7.036)" fill="#656a82"/>
      <path id="패스_2868" data-name="패스 2868" d="M23.944,12.589V23.67h10.4V21.835H26.324V12.589Z" transform="translate(-5.386 7.036)" fill="#656a82"/>
      <path id="패스_2869" data-name="패스 2869" d="M30.525,12.589V23.67h11V22.1h-8.62V18.739h7.231V17.185H32.907V14.17h8.455v-1.58Z" transform="translate(1.315 7.036)" fill="#656a82"/>
      <path id="패스_2870" data-name="패스 2870" d="M47.161,23.671l-4.339-4.432H39.966v4.432H37.588V12.589h6.327c2.977,0,5.274,1.36,5.274,3.27,0,1.52-1.554,2.807-3.536,3.215l4.446,4.6Zm-.5-7.813c0-1.128-1.324-1.687-2.793-1.687H39.966v3.488h3.782c1.447,0,2.916-.65,2.916-1.8" transform="translate(8.507 7.036)" fill="#656a82"/>
      <path id="패스_2871" data-name="패스 2871" d="M52.239,19.3v4.37h-2.4V19.342L44.2,12.589h2.727l4.091,4.921,4.1-4.921H57.86Z" transform="translate(15.24 7.036)" fill="#656a82"/>
      <path id="패스_2872" data-name="패스 2872" d="M10.872,12.98A4.27,4.27,0,0,1,13.69,16.1l.048.186H11.391l-.032-.1a2.594,2.594,0,0,0-1.423-1.655A6.483,6.483,0,0,0,7.127,14a5.12,5.12,0,0,0-3.371,1.118A4.006,4.006,0,0,0,2.4,18.432a4.331,4.331,0,0,0,1.118,3.1,4.856,4.856,0,0,0,3.681,1.2,5.789,5.789,0,0,0,3.247-.852,3,3,0,0,0,1.278-2.547H6.985V17.8h6.961v6.236H12.362l-.456-1.33a7.517,7.517,0,0,1-1.683,1.047,9.019,9.019,0,0,1-3.439.569,8.161,8.161,0,0,1-4.646-1.306A5.377,5.377,0,0,1,0,18.507a5.537,5.537,0,0,1,2.087-4.535,7.832,7.832,0,0,1,5.094-1.6,10.13,10.13,0,0,1,3.691.605" transform="translate(-29.768 6.817)" fill="#656a82"/>
    </g>
  </g>
</svg>
