<svg xmlns="http://www.w3.org/2000/svg" width="470" height="300" viewBox="0 0 470 300">
  <g id="facilities_ico_18_pop" transform="translate(0.403 -0.392)">
    <rect id="facility_list" width="470" height="300" transform="translate(-0.403 0.392)" fill="#efeff7"/>
    <path id="패스_2896" data-name="패스 2896" d="M115.888,8.424H108.5V2.909A2.91,2.91,0,0,0,105.59,0H78.314A24.7,24.7,0,0,0,60.747,7.272L59.405,8.623,58.05,7.272A24.673,24.673,0,0,0,40.488,0H13.216A2.911,2.911,0,0,0,10.3,2.909V8.424H2.918A2.917,2.917,0,0,0,0,11.333v78.14a2.918,2.918,0,0,0,2.918,2.913h112.97a2.913,2.913,0,0,0,2.909-2.913V11.333a2.913,2.913,0,0,0-2.909-2.909M64.868,86.56a18.886,18.886,0,0,1,13.445-5.567H105.59a2.913,2.913,0,0,0,2.909-2.909V14.238h4.485V86.564H64.859ZM78.314,5.814h24.372V75.175H78.314a24.634,24.634,0,0,0-16,5.844V13.943l2.558-2.558A18.905,18.905,0,0,1,78.314,5.814M56.492,81.019a24.634,24.634,0,0,0-16-5.844H16.116V5.814H40.488a18.908,18.908,0,0,1,13.45,5.571l2.554,2.558Zm-43.276-.026H40.488a18.889,18.889,0,0,1,13.45,5.567l0,0H5.814V14.238H10.3V78.084a2.913,2.913,0,0,0,2.913,2.909" transform="translate(175.198 106.307)" fill="#656a82"/>
  </g>
</svg>
