<svg xmlns="http://www.w3.org/2000/svg" width="470" height="300" viewBox="0 0 470 300">
  <g id="facilities_ico_4_pop" transform="translate(0.142)">
    <rect id="facility_list" width="470" height="300" transform="translate(-0.142 0)" fill="#efeff7"/>
    <g id="그룹_1863" data-name="그룹 1863" transform="translate(156.2 135.882)">
      <path id="패스_2834" data-name="패스 2834" d="M19.3,25.777a17.534,17.534,0,0,1-4.776-3.943,18.591,18.591,0,0,1-3.407-5.316,17.77,17.77,0,0,1-2.964,5.027,18.768,18.768,0,0,1-5.184,4.594L0,23.228a16.989,16.989,0,0,0,6.853-6.921A20.756,20.756,0,0,0,8.87,6.4V2.2h4.394V6.329a18.978,18.978,0,0,0,2.149,9.835A17.161,17.161,0,0,0,22.058,22.8ZM23.66.051h4.054V11.9h4.773V15.66H27.714V32.166H23.66Z" transform="translate(0 0.132)" fill="#656a82"/>
      <path id="패스_2835" data-name="패스 2835" d="M39.987,19.777H9.345V16.224H39.987ZM24.682,0a23.852,23.852,0,0,1,5.08.5,14.255,14.255,0,0,1,3.643,1.434,7.406,7.406,0,0,1,2.217,2.192,5.5,5.5,0,0,1,.751,2.692,5.333,5.333,0,0,1-.751,2.728A6.282,6.282,0,0,1,33.405,11.7a11.116,11.116,0,0,1-3.643,1.434,21.435,21.435,0,0,1-5.08.54,21.018,21.018,0,0,1-5.08-.54A10.49,10.49,0,0,1,15.923,11.7a5.644,5.644,0,0,1-2.249-2.152,4.752,4.752,0,0,1-.787-2.728,4.872,4.872,0,0,1,.787-2.692,6.517,6.517,0,0,1,2.249-2.192A13.18,13.18,0,0,1,19.6.5a23.369,23.369,0,0,1,5.08-.5M36.923,31.582H13.092V21.926h4.09v6.1H36.923ZM24.682,3.343a12.484,12.484,0,0,0-5.452.965c-1.333.683-1.981,1.505-1.981,2.513s.647,1.863,1.981,2.51a11.931,11.931,0,0,0,5.452,1,11.787,11.787,0,0,0,5.416-1,2.9,2.9,0,0,0,1.909-2.51c0-1.008-.64-1.83-1.909-2.513a12.332,12.332,0,0,0-5.416-.965" transform="translate(24.064 0)" fill="#656a82"/>
      <path id="패스_2836" data-name="패스 2836" d="M23.284,25.455h-2.46c-.851.036-1.666.036-2.488.036V3.637H30.745v3.7H22.4V21.794c1.158,0,2.113,0,2.9-.036.747,0,1.4-.039,1.941-.072a7.467,7.467,0,0,0,1.33-.071,4.669,4.669,0,0,0,.987-.147,6.029,6.029,0,0,0,1.026-.211c.34-.072.815-.182,1.362-.325v3.7c-.819.143-1.434.29-1.909.358a11.134,11.134,0,0,1-1.569.218,16.813,16.813,0,0,1-2.009.143q-1.18.107-3.167.107m14.69,5.634H34.02V15.728h-5.8v-3.7h5.8V.4h3.954Zm6.574,1.076H40.6V.051h3.95Z" transform="translate(47.216 0.132)" fill="#656a82"/>
      <path id="패스_2837" data-name="패스 2837" d="M56.828,26.383H26.186V22.754H56.828ZM39.374.653h4.261V2.691a9.9,9.9,0,0,0,.987,4.022,9.676,9.676,0,0,0,2.388,3.232A15.676,15.676,0,0,0,50.657,12.6a31.3,31.3,0,0,0,4.808,2.188c-.479.5-.922,1-1.366,1.509-.479.536-.955,1.04-1.4,1.544A16.91,16.91,0,0,1,49.6,16.583a16.5,16.5,0,0,1-3.06-1.795,17.573,17.573,0,0,1-2.8-2.335,13.276,13.276,0,0,1-2.213-2.831,14.753,14.753,0,0,1-2.149,2.724,24.182,24.182,0,0,1-2.76,2.335,21.84,21.84,0,0,1-3.1,1.866,16.572,16.572,0,0,1-3.2,1.294c-.475-.5-.922-1.008-1.366-1.544-.479-.5-.955-1-1.4-1.509A22.573,22.573,0,0,0,36,10.052a10.908,10.908,0,0,0,3.375-7.361Z" transform="translate(67.43 1.682)" fill="#656a82"/>
      <path id="패스_2838" data-name="패스 2838" d="M35.205,25.539V21.985H56.273c.475-2.588.887-5.2,1.194-7.929-.136,0-.307.036-.447.036-.683.068-1.294.143-1.838.179-.172,0-.272.036-.343.036-.508.036-.955.068-1.362.068a8.964,8.964,0,0,1-1.43.111c-.547.036-1.13.036-1.809.036-.715.036-1.6.036-2.624.036-1.09.039-2.349.039-3.818.039-1.505.029-3.271.029-5.352.029V10.931h9.613c1.158,0,2.145,0,3.035-.036.851,0,1.6-.032,2.281-.068a15.963,15.963,0,0,0,1.877-.147,15.023,15.023,0,0,0,1.77-.218,3.3,3.3,0,0,0,.783-.1c.139-1.87.207-3.768.24-5.706H38.787V.953H62.443c-.039,1.723-.1,3.518-.172,5.459-.1,1.97-.236,3.947-.411,5.885-.2,1.973-.4,3.875-.679,5.666-.243,1.473-.479,2.8-.751,4.022h5.42v3.554Z" transform="translate(90.654 2.454)" fill="#656a82"/>
    </g>
  </g>
</svg>
