<svg xmlns="http://www.w3.org/2000/svg" width="180" height="150" viewBox="0 0 180 150">
  <g id="facilities_ico_13" transform="translate(68.769 60.304)">
    <rect id="facility_list" width="180" height="150" transform="translate(-68.769 -60.304)" fill="#fff"/>
    <g id="그룹_1855" data-name="그룹 1855">
      <path id="패스_2860" data-name="패스 2860" d="M14.177,3.907h3l8.1,18.543H21.855l-1.865-4.444H11.284L9.39,22.45H6.076Zm4.631,11.231L15.622,7.776l-3.155,7.361Z" transform="translate(-11.618 5.108)" fill="#656a82"/>
      <path id="패스_2861" data-name="패스 2861" d="M19.683,6.966H13.842v-3H28.78v3H22.939V22.376H19.683Z" transform="translate(-2.144 5.181)" fill="#656a82"/>
      <path id="패스_2862" data-name="패스 2862" d="M22.047,3.967h3.441l5.605,8.7,5.6-8.7h3.443v18.41h-3.21V9.175l-5.807,8.678h-.109L25.255,9.226V22.377H22.047Z" transform="translate(7.865 5.181)" fill="#656a82"/>
      <path id="패스_2863" data-name="패스 2863" d="M79.063,35.89H1.465A1.465,1.465,0,0,1,0,34.427V1.463A1.463,1.463,0,0,1,1.465,0h77.6a1.461,1.461,0,0,1,1.461,1.463V34.427a1.462,1.462,0,0,1-1.461,1.463M2.928,32.962H77.6V2.928H2.928Z" transform="translate(-19.03 0.342)" fill="#656a82"/>
    </g>
  </g>
</svg>
