<svg xmlns="http://www.w3.org/2000/svg" width="470" height="300" viewBox="0 0 470 300">
  <g id="facilities_ico_5_pop" transform="translate(0.088 0.395)">
    <rect id="facility_list" width="470" height="300" transform="translate(-0.088 -0.395)" fill="#efeff7"/>
    <g id="그룹_1862" data-name="그룹 1862" transform="translate(145.17 110.504)">
      <path id="패스_2839" data-name="패스 2839" d="M17.358,1H21.1l10.114,24.38H26.952L24.62,19.54H13.744l-2.367,5.843H7.24Zm5.781,14.765L19.163,6.084l-3.944,9.684Z" transform="translate(17.701 2.452)" fill="#656a82"/>
      <path id="패스_2840" data-name="패스 2840" d="M14.44,1.054h4.01V13.225L29.384,1.054h4.961l-9.56,10.407,9.987,13.8h-4.9L22.029,14.368,18.45,18.24v7.017H14.44Z" transform="translate(35.304 2.576)" fill="#656a82"/>
      <path id="패스_2841" data-name="패스 2841" d="M28.964,21.813h13.5V27.1h-13.5ZM25.054,30.6H46.372V18.32H25.054ZM24.731,5.426h5.288V12.65H24.731ZM36.554.341V6.707H33.891V2H20.855V16.074H33.891V10.3h2.663v6.359H40.3V.341Zm6.015,16.494h3.807V0H42.568Z" transform="translate(50.989 0)" fill="#656a82"/>
      <path id="패스_2842" data-name="패스 2842" d="M32.958,13.449h7.751v7.5H32.958ZM49.742,0V11.406H44.619V2.763h-3.91V9.887H32.958V2.763h-3.91V24.511H44.619V15.037h5.123V30.949h3.91V0Z" transform="translate(71.02 0)" fill="#656a82"/>
      <path id="패스_2843" data-name="패스 2843" d="M66.334,25.4H36.8v-3.49H66.334ZM49.516.6h4.1V2.573a9.643,9.643,0,0,0,.958,3.872,9.4,9.4,0,0,0,2.3,3.114,14.985,14.985,0,0,0,3.51,2.56,30.508,30.508,0,0,0,4.637,2.108c-.462.486-.889.968-1.316,1.454-.458.52-.916,1.006-1.344,1.488a17.084,17.084,0,0,1-2.994-1.209,16.482,16.482,0,0,1-2.956-1.733,17.394,17.394,0,0,1-2.69-2.246,12.8,12.8,0,0,1-2.136-2.735,14.192,14.192,0,0,1-2.067,2.628,22.985,22.985,0,0,1-2.663,2.25,20.545,20.545,0,0,1-2.99,1.8,16.466,16.466,0,0,1-3.087,1.247c-.462-.482-.889-.968-1.313-1.488-.462-.486-.92-.968-1.35-1.454a21.8,21.8,0,0,0,8.151-4.561,10.549,10.549,0,0,0,3.252-7.093Z" transform="translate(89.976 1.471)" fill="#656a82"/>
      <path id="패스_2844" data-name="패스 2844" d="M18.165,30.234a19.9,19.9,0,0,1-2.494-1.316A16.142,16.142,0,0,1,13.335,27.3a12.529,12.529,0,0,1-2.956-3.183,11.6,11.6,0,0,1-2.987,3.665,26.012,26.012,0,0,1-2.27,1.729,23.609,23.609,0,0,1-2.3,1.416L0,28.226a17.033,17.033,0,0,0,6.08-4.461,9.983,9.983,0,0,0,2.229-6.638V14.535h4.079v2.591a8.669,8.669,0,0,0,2.167,6.225,12.454,12.454,0,0,0,2.625,2.143,15.717,15.717,0,0,0,3.286,1.629Zm8.578,8.23a5.454,5.454,0,0,1-2.828,4.771C22.01,44.41,19.216,45,15.506,45,11.826,45,9,44.41,7.1,43.235a5.388,5.388,0,0,1-2.89-4.771A5.5,5.5,0,0,1,7.1,33.693c1.905-1.182,4.73-1.8,8.409-1.8s6.5.617,8.409,1.8a5.568,5.568,0,0,1,2.828,4.771m-4.175.034c0-.9-.627-1.695-1.84-2.318a12.518,12.518,0,0,0-5.188-.965,18.367,18.367,0,0,0-2.925.238,10.122,10.122,0,0,0-2.236.655,4.483,4.483,0,0,0-1.409,1.04,1.9,1.9,0,0,0-.527,1.316c0,.934.593,1.695,1.84,2.318a11.819,11.819,0,0,0,5.257,1,11.914,11.914,0,0,0,5.188-1c1.213-.624,1.84-1.385,1.84-2.284m8.278-14.11h-4.6v7.159h-3.91V13.564h3.91V20.9h4.6Z" transform="translate(0 33.163)" fill="#656a82"/>
      <path id="패스_2845" data-name="패스 2845" d="M35.079,43.531h-22.3V32.638h9.133V30.423H9.163V27.174H38.7v3.249H25.947v2.215h9.133Zm.658-21.476v3.424H12.119V22.055H16.39l-.624-4.117h4.006l.593,4.117h7.128a1.433,1.433,0,0,1,.165-.31,6.5,6.5,0,0,0,.358-1.836V17.938h3.975v1.526c-.065.555-.1,1.037-.165,1.381a4.742,4.742,0,0,1-.265,1c-.028.065-.062.138-.093.207Zm-23.288-8.23H35.41V17.18H12.449Zm18.72,22.237H16.683v4.044H31.169Z" transform="translate(22.403 33.8)" fill="#656a82"/>
      <path id="패스_2846" data-name="패스 2846" d="M31.985,24.147c.065-.551.165-1.175.262-1.795.134-1.075.265-2.387.4-3.91H20.558V14.949H36.98c-.065,1.867-.231,3.7-.431,5.467-.158,1.24-.358,2.38-.589,3.486l.723-.065a25.472,25.472,0,0,0,2.887-.451v3.459a19.766,19.766,0,0,1-2.852.413c-.989.141-1.778.21-2.4.241a18.319,18.319,0,0,1-2.008.072c-.72.038-1.605.038-2.594.038v5.326H25.811V27.64H18.422V24.147ZM45.158,43.824h-22.3V33.965H26.8V40.4H45.158ZM40.921,35.87V32.756h-6.9v-3.49h6.9v-15.7h3.91V35.87Z" transform="translate(45.041 33.163)" fill="#656a82"/>
      <path id="패스_2847" data-name="패스 2847" d="M31.939,38.047H29.576c-.823.034-1.609.034-2.4.034V17.023H39.132v3.562H31.082V34.52c1.12,0,2.039,0,2.8-.034.717,0,1.344-.038,1.867-.069a6.914,6.914,0,0,0,1.285-.072,4.37,4.37,0,0,0,.951-.138,6.129,6.129,0,0,0,.985-.2c.327-.072.789-.172,1.316-.31v3.559c-.792.138-1.381.276-1.836.348a10.78,10.78,0,0,1-1.516.2A14.927,14.927,0,0,1,35,37.944c-.754.069-1.778.1-3.056.1m14.155,5.429h-3.81v-14.8H36.7V25.115h5.581v-11.2h3.81Zm6.339,1.037H48.627V13.564h3.807Z" transform="translate(66.441 33.163)" fill="#656a82"/>
      <path id="패스_2848" data-name="패스 2848" d="M64.547,38.959H35.024v-3.49H64.547ZM47.732,14.166h4.1v1.971a9.547,9.547,0,0,0,.958,3.876,9.43,9.43,0,0,0,2.3,3.114,15.106,15.106,0,0,0,3.514,2.56,30.489,30.489,0,0,0,4.633,2.108c-.465.486-.889.968-1.316,1.454-.462.517-.92,1-1.347,1.488a16.764,16.764,0,0,1-2.99-1.213,16.319,16.319,0,0,1-2.952-1.729,17.12,17.12,0,0,1-2.7-2.25A12.681,12.681,0,0,1,49.8,22.813a14.356,14.356,0,0,1-2.07,2.628,23.3,23.3,0,0,1-2.659,2.25,21.24,21.24,0,0,1-2.99,1.8A16.237,16.237,0,0,1,39,30.736c-.462-.486-.889-.971-1.316-1.488-.462-.486-.923-.968-1.347-1.454A21.818,21.818,0,0,0,44.48,23.23a10.526,10.526,0,0,0,3.252-7.093Z" transform="translate(85.631 34.635)" fill="#656a82"/>
      <path id="패스_2849" data-name="패스 2849" d="M44.042,38.159V34.735h20.3c.458-2.494.854-5.016,1.151-7.641-.134,0-.3.031-.427.031-.658.065-1.25.138-1.774.176-.165,0-.262.031-.331.031-.493.034-.916.069-1.313.069a8.684,8.684,0,0,1-1.378.1c-.524.038-1.089.038-1.743.038-.689.034-1.543.034-2.525.034-1.058.031-2.27.031-3.683.031-1.443.034-3.156.034-5.157.034V24.079h9.263c1.116,0,2.067,0,2.921-.034.827,0,1.55-.034,2.2-.065a15.2,15.2,0,0,0,1.8-.141,15.331,15.331,0,0,0,1.712-.207,3.193,3.193,0,0,0,.754-.1c.131-1.8.2-3.628.234-5.5H47.494V14.468h22.8c-.034,1.657-.1,3.386-.165,5.254-.1,1.905-.231,3.807-.393,5.677-.2,1.9-.393,3.731-.655,5.46-.234,1.419-.462,2.7-.723,3.876h5.219v3.424Z" transform="translate(107.679 35.372)" fill="#656a82"/>
    </g>
  </g>
</svg>
