<svg xmlns="http://www.w3.org/2000/svg" width="470" height="300" viewBox="0 0 470 300">
  <g id="facilities_ico_6_pop" transform="translate(0.403 0.395)">
    <rect id="facility_list" width="470" height="300" transform="translate(-0.403 -0.395)" fill="#efeff7"/>
    <g id="그룹_1861" data-name="그룹 1861" transform="translate(188.8 77.992)">
      <path id="패스_2796" data-name="패스 2796" d="M9.5,105.451A9.584,9.584,0,0,1,0,96.031V25.3a9.613,9.613,0,0,1,9.5-9.7H80a9.61,9.61,0,0,1,9.492,9.7V96.031A9.581,9.581,0,0,1,80,105.451ZM6.23,99.088H83.274V22.044H6.23Z" transform="translate(0 37.732)" fill="#656a82"/>
      <path id="패스_2797" data-name="패스 2797" d="M10.352,20.818a4.866,4.866,0,0,1,4.924,4.91,4.767,4.767,0,0,1-9.533,0,4.905,4.905,0,0,1,4.609-4.91" transform="translate(13.895 50.369)" fill="#656a82"/>
      <path id="패스_2798" data-name="패스 2798" d="M16.552,20.818a4.914,4.914,0,0,1,4.62,4.91,4.761,4.761,0,0,1-4.62,4.695,4.826,4.826,0,0,1-4.927-4.695,4.965,4.965,0,0,1,4.927-4.91" transform="translate(28.126 50.369)" fill="#656a82"/>
      <path id="패스_2799" data-name="패스 2799" d="M22.323,20.818a4.8,4.8,0,0,1,4.627,4.91,4.7,4.7,0,0,1-9.4,0,4.84,4.84,0,0,1,4.77-4.91" transform="translate(42.469 50.369)" fill="#656a82"/>
      <path id="패스_2800" data-name="패스 2800" d="M59.51,23.893H51.016c-3.279,0-4.917,1.334-5.888,2.671-.821-1.337-2.459-2.671-5.741-2.671H30.756c-3.293,0-4.927,1.334-5.752,2.671-.9-1.337-2.448-2.671-5.752-2.671H10.622c-7.013,0-6.709,6.032-6.709,6.032V43.794a2.065,2.065,0,0,0,2.236,2,2,2,0,0,0,1.939-2V31.929H9.131l.154,35.337a2.449,2.449,0,0,0,2.53,2.462,2.361,2.361,0,0,0,2.52-2.462V46.1h1.057V67.265a2.45,2.45,0,0,0,2.527,2.462,2.511,2.511,0,0,0,2.695-2.462V31.929h1.04V43.794a2.12,2.12,0,0,0,2.072,2A2.006,2.006,0,0,0,25,45.35,1.951,1.951,0,0,0,28.2,43.794V31.929h1.2V67.265a2.5,2.5,0,0,0,2.677,2.462,2.588,2.588,0,0,0,2.7-2.462V46.1h.889V67.265a2.365,2.365,0,0,0,2.527,2.462,2.591,2.591,0,0,0,2.688-2.462V31.929h1.04V43.794a1.989,1.989,0,0,0,1.935,2,1.734,1.734,0,0,0,1.275-.448A2.183,2.183,0,0,0,46.4,45.8a2.122,2.122,0,0,0,2.079-2V31.929h1.043V67.265A2.593,2.593,0,0,0,52.2,69.727a2.533,2.533,0,0,0,2.684-2.462V46.1h.906V67.265a2.5,2.5,0,0,0,2.684,2.462,2.643,2.643,0,0,0,2.681-2.462V31.929h.882V43.794a2.072,2.072,0,0,0,2.247,2,2,2,0,0,0,1.935-2V29.925s.383-6.032-6.712-6.032" transform="translate(9.463 57.809)" fill="#656a82"/>
      <path id="패스_2801" data-name="패스 2801" d="M39.983,20.093a4,4,0,0,0-1.111-2.681L22.691,1.177a3.472,3.472,0,0,0-5.211,0L1.227,17.717a3.4,3.4,0,0,0-1.2,2.469,4.013,4.013,0,0,0,1.2,2.681,3.224,3.224,0,0,0,2.38,1.115,3.66,3.66,0,0,0,2.684-1.115L16.508,12.653v26.1h7.215v-26.1l9.848,9.981a3.721,3.721,0,0,0,5.3,0,3.624,3.624,0,0,0,1.111-2.541" transform="translate(0.073 0)" fill="#656a82"/>
      <path id="패스_2802" data-name="패스 2802" d="M14.461,19.12a3.653,3.653,0,0,0,1.118,2.537L31.75,37.917a3.723,3.723,0,0,0,5.3,0L53.2,21.357A2.9,2.9,0,0,0,54.4,18.9,4.139,4.139,0,0,0,53.2,16.2a4.163,4.163,0,0,0-2.363-.961,4.311,4.311,0,0,0-2.688.961L38,26.428V.344H30.7V26.428l-9.981-9.992a3.8,3.8,0,0,0-5.143,0,3.855,3.855,0,0,0-1.118,2.684" transform="translate(34.988 0.833)" fill="#656a82"/>
    </g>
  </g>
</svg>
