<svg xmlns="http://www.w3.org/2000/svg" width="470" height="300" viewBox="0 0 470 300">
  <g id="facilities_ico_17_pop" transform="translate(0.088 -0.392)">
    <rect id="facility_list" width="470" height="300" transform="translate(-0.088 0.392)" fill="#efeff7"/>
    <g id="그룹_1854" data-name="그룹 1854" transform="translate(133.13 124.869)">
      <path id="패스_2882" data-name="패스 2882" d="M.253,13.009A12.7,12.7,0,0,1,13.166,0,13.089,13.089,0,0,1,23.907,5.171L20.569,8.448a9.171,9.171,0,0,0-7.136-3.61,7.888,7.888,0,0,0-7.974,8.171,7.754,7.754,0,0,0,7.948,7.974,9.286,9.286,0,0,0,7.259-3.649l3.447,3.145a13.635,13.635,0,0,1-11.018,5.3C5.968,25.781.253,20.645.253,13.009" transform="translate(0.857 0)" fill="#656a82"/>
      <path id="패스_2883" data-name="패스 2883" d="M8.259,15.947V.1h5.035V15.614c0,3.412,1.925,5.031,4.733,5.031,2.768,0,4.658-1.689,4.658-5.031V.1h5.07V15.947c0,6.592-4.491,9.566-9.728,9.566-5.276,0-9.768-2.974-9.768-9.566" transform="translate(27.965 0.338)" fill="#656a82"/>
      <path id="패스_2884" data-name="패스 2884" d="M15.755.1h5.035V20.28H33.466v4.8H15.755Z" transform="translate(53.349 0.337)" fill="#656a82"/>
      <path id="패스_2885" data-name="패스 2885" d="M20.988,4.937V.1H40.313V4.937H33.181V25.082H28.115V4.937Z" transform="translate(71.066 0.335)" fill="#656a82"/>
      <path id="패스_2886" data-name="패스 2886" d="M27.921,15.947V.1h5.035V15.614c0,3.412,1.925,5.031,4.733,5.031,2.772,0,4.662-1.689,4.662-5.031V.1h5.066V15.947c0,6.592-4.491,9.566-9.728,9.566-5.272,0-9.768-2.974-9.768-9.566" transform="translate(94.543 0.338)" fill="#656a82"/>
      <path id="패스_2887" data-name="패스 2887" d="M43.4,15.981H40.426v9.1H35.417V.1h9.566c5.851,0,8.548,3.754,8.548,7.913a7.505,7.505,0,0,1-5.07,7.334l6.053,9.737H48.667ZM40.426,11.49h4.088c2.8,0,3.886-1.689,3.886-3.408a3.217,3.217,0,0,0-3.447-3.351H40.426Z" transform="translate(119.925 0.335)" fill="#656a82"/>
      <path id="패스_2888" data-name="패스 2888" d="M42.467.1H59.4V4.771H47.507v5.364H58.52v4.671H47.507v5.605H59.4v4.667H42.467Z" transform="translate(143.798 0.337)" fill="#656a82"/>
      <path id="패스_2889" data-name="패스 2889" d="M15.886,28.743H7.162l-1.93,5.4H0L9.535,9.177h4.079l9.4,24.966H17.733Zm-7.3-4.456h5.877l-2.908-8.325Z" transform="translate(0 31.073)" fill="#656a82"/>
      <path id="패스_2890" data-name="패스 2890" d="M6.634,22.09A12.7,12.7,0,0,1,19.542,9.076a13.107,13.107,0,0,1,10.746,5.176l-3.342,3.276a9.179,9.179,0,0,0-7.136-3.619,7.893,7.893,0,0,0-7.974,8.18,7.755,7.755,0,0,0,7.943,7.974,9.314,9.314,0,0,0,7.263-3.649l3.447,3.14a13.633,13.633,0,0,1-11.013,5.3c-7.136,0-12.842-5.132-12.842-12.768" transform="translate(22.463 30.732)" fill="#656a82"/>
      <path id="패스_2891" data-name="패스 2891" d="M29.265,28.743H20.541l-1.93,5.4H13.374L22.909,9.177h4.083l9.4,24.966H31.12Zm-7.3-4.456h5.882l-2.908-8.325Z" transform="translate(45.285 31.073)" fill="#656a82"/>
      <path id="패스_2892" data-name="패스 2892" d="M20.551,9.176h9.768c7.535,0,12.031,4.829,12.031,12.54,0,7.632-4.562,12.43-12.233,12.43H20.551Zm9.8,20.172c4.5,0,6.794-3.5,6.794-7.733,0-4.158-2.3-7.641-6.794-7.641h-4.8V29.348Z" transform="translate(69.588 31.07)" fill="#656a82"/>
      <path id="패스_2893" data-name="패스 2893" d="M27.716,9.177h16.93v4.658h-11.9v5.377H43.769v4.667H32.752v5.605h11.9v4.658H27.716Z" transform="translate(93.85 31.073)" fill="#656a82"/>
      <path id="패스_2894" data-name="패스 2894" d="M33.848,9.177h3.32l9.8,14.163L56.66,9.177h3.39V34.142H55.042V19.989L47.787,30.432H46.05L38.787,19.989V34.142H33.848Z" transform="translate(114.613 31.073)" fill="#656a82"/>
      <path id="패스_2895" data-name="패스 2895" d="M55.326,25.5v8.645h-5V25.5L41.778,9.177h5.776l5.272,10.948L58.2,9.177H63.98Z" transform="translate(141.463 31.072)" fill="#656a82"/>
    </g>
  </g>
</svg>
