<svg xmlns="http://www.w3.org/2000/svg" width="180" height="150" viewBox="0 0 180 150">
  <g id="facilities_ico_6" transform="translate(68.769 60.304)">
    <rect id="facility_list" width="180" height="150" transform="translate(-68.769 -60.304)" fill="#fff"/>
    <g id="그룹_1861" data-name="그룹 1861">
      <path id="패스_2796" data-name="패스 2796" d="M4.7,60.06A4.743,4.743,0,0,1,0,55.4v-35a4.757,4.757,0,0,1,4.7-4.8H39.588a4.756,4.756,0,0,1,4.7,4.8v35a4.741,4.741,0,0,1-4.7,4.662ZM3.083,56.911H41.208V18.786H3.083Z" transform="translate(-0.911 -9.938)" fill="#656a82"/>
      <path id="패스_2797" data-name="패스 2797" d="M8.024,20.818a2.408,2.408,0,0,1,2.437,2.43,2.359,2.359,0,0,1-4.718,0,2.427,2.427,0,0,1,2.281-2.43" transform="translate(3.063 -6.324)" fill="#656a82"/>
      <path id="패스_2798" data-name="패스 2798" d="M14.063,20.818a2.432,2.432,0,0,1,2.286,2.43,2.356,2.356,0,0,1-2.286,2.323,2.388,2.388,0,0,1-2.438-2.323,2.457,2.457,0,0,1,2.438-2.43" transform="translate(7.134 -6.324)" fill="#656a82"/>
      <path id="패스_2799" data-name="패스 2799" d="M19.913,20.818a2.376,2.376,0,0,1,2.289,2.43,2.325,2.325,0,0,1-4.65,0,2.4,2.4,0,0,1,2.36-2.43" transform="translate(11.237 -6.324)" fill="#656a82"/>
      <path id="패스_2800" data-name="패스 2800" d="M31.424,23.893h-4.2a3.288,3.288,0,0,0-2.914,1.322,3.048,3.048,0,0,0-2.841-1.322H17.2a3.054,3.054,0,0,0-2.846,1.322A3.093,3.093,0,0,0,11.5,23.893H7.232c-3.47,0-3.32,2.985-3.32,2.985v6.863a1.022,1.022,0,0,0,1.107.992.988.988,0,0,0,.959-.992V27.869h.516l.076,17.486a1.212,1.212,0,0,0,1.252,1.218A1.169,1.169,0,0,0,9.07,45.356V34.883h.523V45.356a1.213,1.213,0,0,0,1.25,1.218,1.243,1.243,0,0,0,1.333-1.218V27.869h.514v5.872a1.049,1.049,0,0,0,1.025.992.993.993,0,0,0,.633-.222.965.965,0,0,0,1.58-.77V27.869h.594V45.356a1.235,1.235,0,0,0,1.325,1.218,1.281,1.281,0,0,0,1.335-1.218V34.883h.44V45.356a1.17,1.17,0,0,0,1.25,1.218,1.282,1.282,0,0,0,1.33-1.218V27.869h.514v5.872a.984.984,0,0,0,.958.992.858.858,0,0,0,.631-.222,1.08,1.08,0,0,0,.629.222,1.05,1.05,0,0,0,1.029-.992V27.869h.516V45.356a1.283,1.283,0,0,0,1.327,1.218,1.253,1.253,0,0,0,1.328-1.218V34.883h.448V45.356a1.235,1.235,0,0,0,1.328,1.218,1.308,1.308,0,0,0,1.327-1.218V27.869h.437v5.872a1.026,1.026,0,0,0,1.112.992.991.991,0,0,0,.958-.992V26.878s.19-2.985-3.322-2.985" transform="translate(1.796 -4.195)" fill="#656a82"/>
      <path id="패스_2801" data-name="패스 2801" d="M19.8,9.943a1.979,1.979,0,0,0-.55-1.327L11.244.582a1.718,1.718,0,0,0-2.579,0L.622,8.767A1.68,1.68,0,0,0,.03,9.989a1.986,1.986,0,0,0,.592,1.327,1.6,1.6,0,0,0,1.178.552,1.811,1.811,0,0,0,1.328-.552L8.184,6.261V19.175h3.57V6.261L16.628,11.2a1.841,1.841,0,0,0,2.623,0,1.793,1.793,0,0,0,.55-1.257" transform="translate(-0.891 -20.732)" fill="#656a82"/>
      <path id="패스_2802" data-name="패스 2802" d="M14.461,9.635a1.808,1.808,0,0,0,.553,1.256l8,8.046a1.842,1.842,0,0,0,2.623,0l7.993-8.195a1.435,1.435,0,0,0,.591-1.217,2.048,2.048,0,0,0-.591-1.333,2.06,2.06,0,0,0-1.169-.475,2.133,2.133,0,0,0-1.33.475l-5.022,5.059V.344H22.5V13.251L17.559,8.307a1.879,1.879,0,0,0-2.545,0,1.908,1.908,0,0,0-.553,1.328" transform="translate(9.097 -20.494)" fill="#656a82"/>
    </g>
  </g>
</svg>
