<svg xmlns="http://www.w3.org/2000/svg" width="180" height="150" viewBox="0 0 180 150">
  <g id="facilities_ico_4" transform="translate(68.769 60.304)">
    <rect id="facility_list" width="180" height="150" transform="translate(-68.769 -60.304)" fill="#fff"/>
    <g id="그룹_1863" data-name="그룹 1863">
      <path id="패스_2834" data-name="패스 2834" d="M9.55,12.781A8.676,8.676,0,0,1,7.186,10.83,9.2,9.2,0,0,1,5.5,8.2a8.793,8.793,0,0,1-1.467,2.487A9.287,9.287,0,0,1,1.468,12.96L0,11.52A8.407,8.407,0,0,0,3.391,8.1a10.271,10.271,0,0,0,1-4.9V1.116H6.563V3.158A9.391,9.391,0,0,0,7.627,8.024a8.492,8.492,0,0,0,3.289,3.283ZM11.708.051h2.006V5.912h2.362V7.775H13.714v8.168H11.708Z" transform="translate(-17.942 7.479)" fill="#656a82"/>
      <path id="패스_2835" data-name="패스 2835" d="M24.508,9.787H9.345V8.028H24.508ZM16.934,0a11.8,11.8,0,0,1,2.514.249,7.054,7.054,0,0,1,1.8.709,3.665,3.665,0,0,1,1.1,1.084,2.719,2.719,0,0,1,.372,1.332,2.639,2.639,0,0,1-.372,1.35,3.108,3.108,0,0,1-1.1,1.065,5.5,5.5,0,0,1-1.8.709,10.607,10.607,0,0,1-2.514.267A10.4,10.4,0,0,1,14.421,6.5,5.191,5.191,0,0,1,12.6,5.79a2.793,2.793,0,0,1-1.113-1.065,2.351,2.351,0,0,1-.389-1.35,2.411,2.411,0,0,1,.389-1.332A3.225,3.225,0,0,1,12.6.959a6.522,6.522,0,0,1,1.82-.709A11.564,11.564,0,0,1,16.934,0m6.057,15.628H11.2V10.85h2.024v3.02h9.769ZM16.934,1.654a6.177,6.177,0,0,0-2.7.478c-.66.338-.98.745-.98,1.244s.32.922.98,1.242a5.9,5.9,0,0,0,2.7.5,5.833,5.833,0,0,0,2.68-.5,1.436,1.436,0,0,0,.945-1.242c0-.5-.317-.906-.945-1.244a6.1,6.1,0,0,0-2.68-.478" transform="translate(-10.755 7.439)" fill="#656a82"/>
      <path id="패스_2836" data-name="패스 2836" d="M20.784,12.622H19.567c-.421.018-.824.018-1.231.018V1.825h6.141V3.655H20.346v7.156c.573,0,1.046,0,1.433-.018.37,0,.692-.019.961-.035a3.7,3.7,0,0,0,.658-.035,2.31,2.31,0,0,0,.488-.073,2.984,2.984,0,0,0,.508-.1c.168-.035.4-.09.674-.161v1.829c-.405.071-.709.143-.945.177a5.51,5.51,0,0,1-.777.108,8.32,8.32,0,0,1-.994.071q-.584.053-1.567.053m7.269,2.788H26.1v-7.6H23.229V5.979H26.1V.226h1.957Zm3.253.532H29.352V.051h1.955Z" transform="translate(-3.84 7.479)" fill="#656a82"/>
      <path id="패스_2837" data-name="패스 2837" d="M41.349,13.385H26.186v-1.8H41.349ZM32.712.653h2.109V1.661a4.9,4.9,0,0,0,.488,1.99,4.788,4.788,0,0,0,1.182,1.6,7.757,7.757,0,0,0,1.8,1.314,15.487,15.487,0,0,0,2.379,1.083c-.237.249-.456.5-.676.747-.237.265-.472.515-.692.764a8.368,8.368,0,0,1-1.537-.623,8.164,8.164,0,0,1-1.514-.888A8.7,8.7,0,0,1,34.87,6.493a6.57,6.57,0,0,1-1.1-1.4A7.3,7.3,0,0,1,32.712,6.44a11.966,11.966,0,0,1-1.366,1.155,10.808,10.808,0,0,1-1.536.923,8.2,8.2,0,0,1-1.585.64c-.235-.249-.456-.5-.676-.764-.237-.249-.472-.5-.693-.747A11.17,11.17,0,0,0,31.042,5.3a5.4,5.4,0,0,0,1.67-3.643Z" transform="translate(2.197 7.942)" fill="#656a82"/>
      <path id="패스_2838" data-name="패스 2838" d="M35.205,13.119V11.361H45.63c.235-1.281.439-2.574.591-3.924-.067,0-.152.018-.221.018-.338.034-.64.071-.909.088-.085,0-.134.018-.17.018-.251.018-.472.034-.674.034a4.436,4.436,0,0,1-.708.055c-.271.018-.559.018-.9.018-.354.018-.793.018-1.3.018-.54.019-1.162.019-1.889.019-.745.014-1.619.014-2.648.014V5.891h4.757c.573,0,1.061,0,1.5-.018.421,0,.793-.016,1.129-.034a7.9,7.9,0,0,0,.929-.073A7.434,7.434,0,0,0,46,5.659a1.634,1.634,0,0,0,.387-.051c.069-.925.1-1.865.119-2.823H36.978V.953H48.684c-.019.853-.051,1.741-.085,2.7-.051.975-.117,1.953-.2,2.912-.1.977-.2,1.918-.336,2.8-.12.729-.237,1.387-.372,1.99H50.37v1.758Z" transform="translate(9.134 8.172)" fill="#656a82"/>
    </g>
  </g>
</svg>
