<svg xmlns="http://www.w3.org/2000/svg" width="180" height="150" viewBox="0 0 180 150">
  <g id="facilities_ico_10" transform="translate(68.769 60.304)">
    <rect id="facility_list" width="180" height="150" transform="translate(-68.769 -60.304)" fill="#fff"/>
    <path id="패스_2851" data-name="패스 2851" d="M18.336,6.427a5.091,5.091,0,0,0,7.051,7.055l.2-.131L18.466,6.23Z" transform="translate(14.703 -6.192)" fill="#656a82"/>
    <path id="패스_2852" data-name="패스 2852" d="M21.474,5.254a5.052,5.052,0,0,0-2.812.848l-.2.133,7.126,7.117.131-.2a5.114,5.114,0,0,0-.658-6.41,5.033,5.033,0,0,0-3.59-1.491" transform="translate(15.814 -7.306)" fill="#656a82"/>
    <path id="패스_2853" data-name="패스 2853" d="M53,12.184a7.563,7.563,0,0,0-7.4-7.53l-.379-.006V1.677A1.684,1.684,0,0,0,43.531,0H41.323a1.686,1.686,0,0,0-1.688,1.677V4.654h-.388L5.164,4.665A5.17,5.17,0,0,0,0,9.831v14.7A5.171,5.171,0,0,0,5.164,29.7H8.085v4.7a1.691,1.691,0,0,0,1.636,1.681h1.193V41.6H9.721v0H9.713l-8.027-.009a1.661,1.661,0,0,0-1.187.49A1.691,1.691,0,0,0,0,43.27v6.357a1.682,1.682,0,0,0,1.686,1.681H51.3a1.674,1.674,0,0,0,1.184-.493,1.705,1.705,0,0,0,.495-1.2l-.006-6.312Zm-39.59,23.9h1.18A1.688,1.688,0,0,0,16.25,34.4V29.7H32.957V41.619h-.383L14.956,41.6H13.41Zm37.025,12.3v.388H2.547V44.127H2.93l31.711.032A.859.859,0,0,0,35.5,43.3V28.025a.858.858,0,0,0-.861-.855H14.568a.854.854,0,0,0-.855.855v5.524H10.621V28.025a.852.852,0,0,0-.852-.855h-4.6A2.635,2.635,0,0,1,2.54,24.532V9.831A2.628,2.628,0,0,1,5.164,7.207h40.3a4.993,4.993,0,0,1,5,4.977l-.03,31.122Z" transform="translate(-5.269 -13.305)" fill="#656a82"/>
  </g>
</svg>
