<svg xmlns="http://www.w3.org/2000/svg" width="180" height="150" viewBox="0 0 180 150">
  <g id="facilities_ico_16" transform="translate(68.769 60.304)">
    <rect id="facility_list" width="180" height="150" transform="translate(-68.769 -60.304)" fill="#fff"/>
    <g id="그룹_1857" data-name="그룹 1857">
      <path id="패스_2873" data-name="패스 2873" d="M6.559,14.754l2.184,5.058H4.39ZM5.566,12.1,0,24.835H2.277l1.3-3.056H9.555l1.286,3.056h2.345L7.625,12.1Z" transform="translate(-25.872 6.434)" fill="#656a82"/>
      <path id="패스_2874" data-name="패스 2874" d="M7.607,12.146h5.635a6.192,6.192,0,0,1,2.113.333,4.226,4.226,0,0,1,1.534.928,3.689,3.689,0,0,1,.779,1.211,4.127,4.127,0,0,1,.268,1.518v.036a4.052,4.052,0,0,1-.224,1.4,3.66,3.66,0,0,1-.624,1.1,3.735,3.735,0,0,1-.949.813A4.556,4.556,0,0,1,14.923,20l3.411,4.789h-2.62L12.6,20.383H9.809V24.79h-2.2Zm5.463,6.267a2.936,2.936,0,0,0,1.9-.571,1.889,1.889,0,0,0,.708-1.552v-.034a1.875,1.875,0,0,0-.69-1.572,3.1,3.1,0,0,0-1.938-.533H9.809v4.263Z" transform="translate(-18.126 6.48)" fill="#656a82"/>
      <path id="패스_2875" data-name="패스 2875" d="M17.64,14.2H13.63V12.145H23.889V14.2H19.88V24.789H17.64Z" transform="translate(-11.993 6.479)" fill="#656a82"/>
      <path id="패스_2876" data-name="패스 2876" d="M22.88,12.145h2.2V17.4h6.069V12.145h2.2V24.789h-2.2v-5.33H25.082v5.33h-2.2Z" transform="translate(-2.574 6.479)" fill="#656a82"/>
      <path id="패스_2877" data-name="패스 2877" d="M34.706,12.1h2.061l5.562,12.735H39.982L38.7,21.782H32.722l-1.3,3.054H29.144Zm3.179,7.712L35.7,14.754l-2.168,5.058Z" transform="translate(3.805 6.434)" fill="#656a82"/>
      <path id="패스_2878" data-name="패스 2878" d="M36.751,12.145h2.2V22.781H45.6v2.008H36.751Z" transform="translate(11.551 6.479)" fill="#656a82"/>
      <path id="패스_2879" data-name="패스 2879" d="M42.29,12.145h2.2V22.781h6.65v2.008H42.29Z" transform="translate(17.191 6.479)" fill="#656a82"/>
      <path id="패스_2880" data-name="패스 2880" d="M43.37.275,27.155,10.322V.275H24.963v13.66l9.98-6.364,9.131,5.77h3.8L36.752,6.532,47.134.275Z" transform="translate(-0.453 -5.607)" fill="#656a82"/>
      <path id="패스_2881" data-name="패스 2881" d="M10.362,13.621h2.914l10.568-10.8,10.566,10.8h2.918L23.858,0Z" transform="translate(-15.321 -5.888)" fill="#656a82"/>
    </g>
  </g>
</svg>
