<svg xmlns="http://www.w3.org/2000/svg" width="180" height="150" viewBox="0 0 180 150">
  <g id="facilities_ico_19" transform="translate(68.769 60.304)">
    <rect id="facility_list" width="180" height="150" transform="translate(-68.769 -60.304)" fill="#fff"/>
    <path id="패스_2804" data-name="패스 2804" d="M28.34,8.734a4.344,4.344,0,0,0,4.344-4.389,4.349,4.349,0,0,0-8.7,0A4.351,4.351,0,0,0,28.34,8.734m13.265,0a4.343,4.343,0,0,0,4.339-4.389,4.326,4.326,0,1,0-8.652,0,4.354,4.354,0,0,0,4.312,4.389M31.353,10.312A4.121,4.121,0,0,0,26.575,12.6L18.753,26.048l-6.631.479a3.594,3.594,0,0,0-3.385,1.8C7.7,30.211.376,43.58.376,43.58v.037a2.91,2.91,0,0,0,1.1,3.98A2.981,2.981,0,0,0,5.46,46.563l7.956-13.111H26.86A3.616,3.616,0,0,0,30.25,30.5c0-.074,4.131-15.106,4.131-15.106a4.248,4.248,0,0,0-3.027-5.084m38.211,33.3h0V43.58l-8.4-15.362c-.484-.885-1.107-1.692-3.358-1.692l-6.632-.479-2.5-4.311h5.379L61.348,9.059h-9.8L47.42,16.287l-4.865-4.9a4.245,4.245,0,0,0-3.981-1.071,4.2,4.2,0,0,0-2.94,5.084S39.681,30.428,39.717,30.5c.409,1.7,1.507,2.95,3.133,2.95H56.52l8,13.111A2.962,2.962,0,0,0,68.493,47.6a3,3,0,0,0,1.071-3.98" transform="translate(-13.732 -9.296)" fill="#656a82"/>
  </g>
</svg>
