<svg xmlns="http://www.w3.org/2000/svg" xmlns:xlink="http://www.w3.org/1999/xlink" width="470" height="300" viewBox="0 0 470 300">
  <defs>
    <clipPath id="clip-path">
      <rect id="사각형_1432" data-name="사각형 1432" width="67.776" height="105.669" fill="#656a82"/>
    </clipPath>
  </defs>
  <g id="facilities_ico_9_pop" transform="translate(0.088 -0.182)">
    <rect id="facility_list" width="470" height="300" transform="translate(-0.088 0.182)" fill="#efeff7"/>
    <g id="그룹_1937" data-name="그룹 1937" transform="translate(201.024 100.742)">
      <g id="그룹_1936" data-name="그룹 1936" transform="translate(0 0)" clip-path="url(#clip-path)">
        <path id="패스_3012" data-name="패스 3012" d="M28.788,84.48V66.391c0-4.572,1.2-7.785,3.663-9.85,4.416-3.407,10.006-7.711,11.093-8.49l.97-.771C48.293,44.34,54,39.9,54,30.3c0-10.517-8.391-17.868-20.41-17.868A21.489,21.489,0,0,0,18.7,18a19.162,19.162,0,0,0-5.927,14.128l-.126,6.468H0V34.122C0,14.037,13.924,0,33.858,0,55.731,0,67.776,11.842,67.776,33.33a21.316,21.316,0,0,1-6.958,16.21c-.082.065-11.4,9.335-14.223,11.491C42.66,64.269,40.4,67.27,40.4,73.1V84.48Z" transform="translate(0 -0.001)" fill="#656a82"/>
        <rect id="사각형_1431" data-name="사각형 1431" width="11.612" height="12.573" transform="translate(28.788 93.096)" fill="#656a82"/>
      </g>
    </g>
  </g>
</svg>
