<svg xmlns="http://www.w3.org/2000/svg" width="180" height="150" viewBox="0 0 180 150">
  <g id="facilities_ico_3" transform="translate(68.769 60.304)">
    <rect id="facility_list" width="180" height="150" transform="translate(-68.769 -60.304)" fill="#fff"/>
    <path id="패스_2803" data-name="패스 2803" d="M49.589,15.335,49.573,3.29A3.288,3.288,0,0,0,46.285,0H28.891A3.288,3.288,0,0,0,25.6,3.29V15.368c0,.046.011.09.013.133H11.086V7.872H1.619a1.619,1.619,0,0,0,0,3.239H8.062V15.5H4.325s-2.453.073-1.229,2.448S9.647,29.827,9.647,29.827s1.294,2.017,2.734,2.017h1.243l8.411,3.7-3.945,1.736a4.7,4.7,0,1,0,.925,3.2l7.122-3.135L33.2,40.462a4.7,4.7,0,1,0,.943-3.2l-3.9-1.716,8.413-3.7h1.22c1.439,0,2.734-2.017,2.734-2.017s5.3-9.515,6.55-11.878a7.072,7.072,0,0,0,.433-2.614M14.35,42.409a2.3,2.3,0,1,1,2.3-2.3,2.3,2.3,0,0,1-2.3,2.3M37.864,37.8a2.3,2.3,0,1,1-2.3,2.3,2.3,2.3,0,0,1,2.3-2.3M26.138,33.741l-4.309-1.9h8.619Z" transform="translate(-6.563 -3.709)" fill="#656a82"/>
  </g>
</svg>
