<svg xmlns="http://www.w3.org/2000/svg" width="470" height="300" viewBox="0 0 470 300">
  <g id="facilities_ico_7_pop" transform="translate(-0.173 0.395)">
    <rect id="facility_list" width="470" height="300" transform="translate(0.173 -0.395)" fill="#efeff7"/>
    <g id="그룹_1860" data-name="그룹 1860" transform="translate(192.66 94.009)">
      <path id="패스_2776" data-name="패스 2776" d="M22.943,0a4.818,4.818,0,1,0,4.784,4.8A4.775,4.775,0,0,0,22.943,0" transform="translate(27.238 0)" fill="#656a82"/>
      <path id="패스_2777" data-name="패스 2777" d="M17.831,0a4.818,4.818,0,1,0,4.807,4.8A4.8,4.8,0,0,0,17.831,0" transform="translate(19.501 0)" fill="#656a82"/>
      <path id="패스_2778" data-name="패스 2778" d="M0,118.472H13.637l10.946-17.405H62.019l11.341,18.9H86.224L67.749,91.2a18.336,18.336,0,0,0,11.664-17V22.787A18.2,18.2,0,0,0,61.3,4.654H25.348A18.182,18.182,0,0,0,7.192,22.787V74.2A18.17,18.17,0,0,0,19.959,91.536Zm15.767-42.4a6.9,6.9,0,0,1,6.925-6.887,6.941,6.941,0,1,1-6.925,6.887M54.259,14.747A2.992,2.992,0,0,1,51.3,17.731H35.691a2.977,2.977,0,0,1-2.956-2.983v-3.6A3,3,0,0,1,35.691,8.14H51.3a3.01,3.01,0,0,1,2.958,3.006ZM70.35,37.894a7.607,7.607,0,0,1-7.575,7.577H23.44a7.593,7.593,0,0,1-7.56-7.577V28.849a7.589,7.589,0,0,1,7.56-7.56H62.775a7.6,7.6,0,0,1,7.575,7.56ZM63.007,83.069a6.941,6.941,0,1,1,6.987-6.995,6.973,6.973,0,0,1-6.987,6.995" transform="translate(0 6.984)" fill="#656a82"/>
    </g>
  </g>
</svg>
