<svg xmlns="http://www.w3.org/2000/svg" width="180" height="150" viewBox="0 0 180 150">
  <g id="facilities_ico_12" transform="translate(68.769 60.304)">
    <rect id="facility_list" width="180" height="150" transform="translate(-68.769 -60.304)" fill="#fff"/>
    <g id="그룹_1858" data-name="그룹 1858">
      <path id="패스_2858" data-name="패스 2858" d="M14.668,28.924A14.237,14.237,0,1,1,27.017,7.7l.325.573L28,8.279c1.508.025,5.475.032,10.088.032,8.109,0,18.233-.025,20.548-.029,2.74,2.8,4.236,4.306,5.069,5.125-.894.873-2.548,2.532-5.678,5.719l-3.41-3.43-3.609,3.6L47.29,15.575,43.4,19.348l-3.64-3.764-5.57,5.581H27.347l-.332.578a14.323,14.323,0,0,1-12.347,7.181m0-27.522A13.287,13.287,0,1,0,26.189,21.267l.609-1.054h7l5.974-5.985L43.422,18l3.879-3.76,3.708,3.706,3.611-3.6,3.4,3.421.817-.828c1.11-1.131,1.988-2.022,2.692-2.724l.808-.812s-2.528-2.559-3.771-3.828l-.339-.345h-.485c-3.462.009-12.372.029-19.659.029-5.355,0-8.754-.011-10.106-.034l-1.2-.02-.591-1.04A13.329,13.329,0,0,0,14.668,1.4m-4.432,16.73a3.58,3.58,0,1,1,3.588-3.582,3.586,3.586,0,0,1-3.588,3.582m0-6.213a2.63,2.63,0,1,0,2.638,2.631,2.634,2.634,0,0,0-2.638-2.631" transform="translate(-10.845 -1.991)" fill="#656a82"/>
      <path id="패스_2859" data-name="패스 2859" d="M15.233,30.5A15.252,15.252,0,1,1,28.465,7.761l.115.068c3.97.063,24.94.016,30,0l.614,0a.874.874,0,0,1,.729.3c2.733,2.8,4.225,4.295,5.057,5.114a1.008,1.008,0,0,1,0,1.449c-1,.97-2.848,2.837-5.662,5.7a1.018,1.018,0,0,1-.722.3h0a1.02,1.02,0,0,1-.72-.3L55.179,17.7l-2.891,2.877a1.013,1.013,0,0,1-1.433,0l-3.008-3.008-3.173,3.078a1.022,1.022,0,0,1-1.438-.023L40.313,17.6l-4.839,4.852a1.019,1.019,0,0,1-.718.3l-6.3.068A15.342,15.342,0,0,1,15.233,30.5m0-27.522A12.271,12.271,0,1,0,25.876,21.324l.609-1.054a1.013,1.013,0,0,1,.878-.506H33.94l5.676-5.689a1.363,1.363,0,0,1,.724-.3,1.018,1.018,0,0,1,.724.309l2.943,3.042,3.153-3.056a1.019,1.019,0,0,1,1.426.014l2.988,2.988L54.468,14.2a.938.938,0,0,1,.72-.3,1.019,1.019,0,0,1,.715.3l2.681,2.692.1-.1c1.115-1.131,2-2.024,2.7-2.728l.1-.095c-.844-.855-2.241-2.27-3.067-3.114l-.1-.041-.431,0c-3.726.007-12.227.027-19.232.027-5.364,0-8.772-.011-10.124-.034l-1.2-.02a1.016,1.016,0,0,1-.864-.515l-.594-1.04A12.31,12.31,0,0,0,15.233,2.981M10.8,19.711a4.595,4.595,0,1,1,4.6-4.595,4.6,4.6,0,0,1-4.6,4.595m0-6.211a1.615,1.615,0,1,0,1.62,1.616A1.619,1.619,0,0,0,10.8,13.5" transform="translate(-11.411 -2.557)" fill="#656a82"/>
    </g>
  </g>
</svg>
