<svg xmlns="http://www.w3.org/2000/svg" width="470" height="300" viewBox="0 0 470 300">
  <g id="facilities_ico_2_pop" transform="translate(0.403)">
    <rect id="facility_list" width="470" height="300" transform="translate(-0.403 0)" fill="#efeff7"/>
    <path id="패스_2833" data-name="패스 2833" d="M36.186,28.969A14.485,14.485,0,1,0,21.7,14.485,14.486,14.486,0,0,0,36.186,28.969M71.318,53.793,48.919,32.1H23.484L1.312,52.622c-3.188,3.148.439,7.409.439,7.409,3.361,3.139,6.455,1.064,6.455,1.064L21.453,49.661v6.5a4.333,4.333,0,0,0,4.376,4.487H46.84a4.437,4.437,0,0,0,4.682-4.27V50L64.69,62.217c2.7,1.578,5.843-1.122,5.843-1.122,3.649-4.265.785-7.3.785-7.3M33.5,94.382l-8.251-8.81,7.879-7.519-11.4-12.241L9.749,77.388a5.207,5.207,0,0,0-1.122,3.423A7.645,7.645,0,0,0,10.2,85.852l16.121,16.741c2.975,1.906,6.194-1.538,6.194-1.538,3.675-4.225.984-6.673.984-6.673m17.176-28.57-11.4,12.241,7.87,7.519L38.9,94.382s-2.7,2.447.975,6.673c0,0,3.228,3.445,6.2,1.538L62.2,85.852a7.613,7.613,0,0,0,1.561-5.041,5.207,5.207,0,0,0-1.122-3.423Z" transform="translate(194.271 104.232)" fill="#656a82"/>
  </g>
</svg>
