<svg xmlns="http://www.w3.org/2000/svg" width="470" height="300" viewBox="0 0 470 300">
  <g id="facilities_ico_12_pop" transform="translate(0.142 -0.182)">
    <rect id="facility_list" width="470" height="300" transform="translate(-0.142 0.182)" fill="#efeff7"/>
    <g id="그룹_1858" data-name="그룹 1858" transform="translate(169.825 115.775)">
      <path id="패스_2858" data-name="패스 2858" d="M29.182,57.991a28.771,28.771,0,1,1,24.956-42.9l.657,1.158,1.327.018c3.046.05,11.064.064,20.386.064,16.386,0,36.845-.05,41.524-.059,5.537,5.664,8.56,8.7,10.243,10.357-1.806,1.765-5.149,5.117-11.474,11.557l-6.891-6.932-7.292,7.265-7.511-7.507-7.858,7.625-7.356-7.607L68.636,42.312H54.8l-.67,1.168A28.944,28.944,0,0,1,29.182,57.991m0-55.617A26.851,26.851,0,1,0,52.464,42.517l1.231-2.13H67.833L79.905,28.293l7.384,7.621,7.84-7.6,7.493,7.489,7.3-7.265,6.877,6.914,1.651-1.674c2.244-2.285,4.018-4.086,5.441-5.5l1.633-1.642s-5.108-5.172-7.621-7.735l-.684-.7h-.981c-7,.018-25,.059-39.728.059-10.822,0-17.691-.023-20.422-.068l-2.422-.041-1.195-2.1A26.935,26.935,0,0,0,29.182,2.375M20.225,36.182a7.235,7.235,0,1,1,7.251-7.238,7.247,7.247,0,0,1-7.251,7.238m0-12.555a5.315,5.315,0,1,0,5.331,5.318,5.323,5.323,0,0,0-5.331-5.318" transform="translate(1.603 1.603)" fill="#656a82"/>
      <path id="패스_2859" data-name="패스 2859" d="M30.784,61.641A30.821,30.821,0,1,1,57.523,15.684l.233.137c8.022.128,50.4.032,60.629.009l1.24,0a1.767,1.767,0,0,1,1.473.616c5.523,5.651,8.537,8.679,10.22,10.334a2.038,2.038,0,0,1-.009,2.928c-2.011,1.961-5.756,5.733-11.443,11.525a2.058,2.058,0,0,1-1.459.616h0a2.062,2.062,0,0,1-1.455-.607l-5.441-5.477-5.842,5.815a2.047,2.047,0,0,1-2.9,0L96.69,35.5l-6.412,6.221a2.065,2.065,0,0,1-2.905-.046l-5.906-6.111-9.778,9.805a2.058,2.058,0,0,1-1.45.6L57.514,46.1a31,31,0,0,1-26.73,15.538m0-55.617A24.8,24.8,0,1,0,52.292,43.093l1.231-2.13A2.047,2.047,0,0,1,55.3,39.942h13.29l11.47-11.5a2.755,2.755,0,0,1,1.464-.6,2.058,2.058,0,0,1,1.464.625l5.947,6.148L95.3,28.44a2.059,2.059,0,0,1,2.882.027l6.038,6.038,5.847-5.815a1.9,1.9,0,0,1,1.455-.6,2.06,2.06,0,0,1,1.446.607l5.418,5.441.2-.2c2.253-2.285,4.032-4.091,5.454-5.514l.2-.192c-1.706-1.728-4.529-4.588-6.2-6.294l-.2-.082-.871,0c-7.53.014-24.709.055-38.866.055-10.841,0-17.727-.023-20.459-.068L55.234,21.8a2.053,2.053,0,0,1-1.747-1.04l-1.2-2.1a24.876,24.876,0,0,0-21.5-12.637M21.827,39.832a9.285,9.285,0,1,1,9.3-9.285,9.3,9.3,0,0,1-9.3,9.285m0-12.551A3.263,3.263,0,1,0,25.1,30.547a3.272,3.272,0,0,0-3.275-3.265" transform="translate(0 0)" fill="#656a82"/>
    </g>
  </g>
</svg>
