<svg xmlns="http://www.w3.org/2000/svg" width="470" height="300" viewBox="0 0 470 300">
  <g id="facilities_ico_19_pop" transform="translate(-0.173 -0.392)">
    <rect id="facility_list" width="470" height="300" transform="translate(0.173 0.392)" fill="#efeff7"/>
    <path id="패스_2804" data-name="패스 2804" d="M56.642,17.65a8.731,8.731,0,0,0,8.681-8.87,8.692,8.692,0,1,0-17.383,0,8.746,8.746,0,0,0,8.7,8.87m26.513,0a8.729,8.729,0,0,0,8.673-8.87,8.647,8.647,0,1,0-17.292,0,8.753,8.753,0,0,0,8.619,8.87M62.663,20.839a8.21,8.21,0,0,0-9.55,4.624L37.48,52.638l-13.252.967c-2.484.072-5.3.741-6.765,3.645C15.393,61.052.753,88.068.753,88.068v.075A5.888,5.888,0,0,0,10.913,94.1L26.814,67.6h26.87a7.252,7.252,0,0,0,6.774-5.962c0-.149,8.256-30.527,8.256-30.527a8.592,8.592,0,0,0-6.05-10.273m76.369,67.3h0v-.075L122.249,57.024c-.968-1.788-2.211-3.419-6.711-3.419l-13.255-.967-5-8.712h10.751l14.575-25.619H103.019l-8.244,14.6L85.051,23a8.284,8.284,0,0,0-13.834,8.109s8.091,30.378,8.162,30.527c.818,3.43,3.012,5.962,6.263,5.962h27.322L128.943,94.1a5.883,5.883,0,0,0,7.949,2.09,6.091,6.091,0,0,0,2.141-8.043" transform="translate(165.173 104.14)" fill="#656a82"/>
  </g>
</svg>
