<svg id="facilities_ico_noimg" xmlns="http://www.w3.org/2000/svg" xmlns:xlink="http://www.w3.org/1999/xlink" width="180" height="150" viewBox="0 0 180 150">
  <defs>
    <clipPath id="clip-path">
      <rect id="사각형_1313" data-name="사각형 1313" width="112.228" height="14.508" transform="translate(0 0)" fill="#a0a2b0"/>
    </clipPath>
  </defs>
  <path id="facility_list" d="M0,0H180V150H0Z" fill="#fff"/>
  <g id="그룹_1267" data-name="그룹 1267" transform="translate(32 70)" opacity="0.72">
    <path id="패스_2721" data-name="패스 2721" d="M48.851.569,32.306,10.82V.569H30.071V14.508l10.185-6.5L49.568,13.9h3.877L42.1,6.951,52.693.569Z" fill="#a0a2b0"/>
    <path id="패스_2722" data-name="패스 2722" d="M13.771,0,0,13.9H2.974L13.757,2.882,24.539,13.9h2.976Z" fill="#a0a2b0"/>
    <g id="그룹_1266" data-name="그룹 1266">
      <g id="그룹_1265" data-name="그룹 1265" clip-path="url(#clip-path)">
        <path id="패스_2723" data-name="패스 2723" d="M59.225,3.562v7.331H60.68V8.376h4.164a3.3,3.3,0,0,0,2.113-.605,2.211,2.211,0,0,0,.778-1.8A2.229,2.229,0,0,0,67,4.224a2.785,2.785,0,0,0-1.936-.662ZM65.11,4.85a1.118,1.118,0,1,1,0,2.235H60.68V4.85Z" fill="#a0a2b0"/>
        <path id="패스_2724" data-name="패스 2724" d="M70.457,3.562v7.331h7.221V9.6H71.911V3.562Z" fill="#a0a2b0"/>
        <path id="패스_2725" data-name="패스 2725" d="M83.822,3.562,79.78,10.893h1.659l3.337-6.1,3.32,6.1h1.669L85.72,3.562Z" fill="#a0a2b0"/>
        <path id="패스_2726" data-name="패스 2726" d="M106.287,3.562l-4.044,7.331H103.9l3.337-6.1,3.32,6.1h1.668l-4.043-7.331Z" fill="#a0a2b0"/>
        <path id="패스_2727" data-name="패스 2727" d="M92.672,3.562v1.3h5.514L92.584,9.8v1.1h8.25V9.6H94.976l5.6-4.942v-1.1Z" fill="#a0a2b0"/>
      </g>
    </g>
  </g>
</svg>
