<svg xmlns="http://www.w3.org/2000/svg" xmlns:xlink="http://www.w3.org/1999/xlink" width="180" height="150" viewBox="0 0 180 150">
  <defs>
    <clipPath id="clip-path">
      <rect id="사각형_1432" data-name="사각형 1432" width="32.437" height="50.572" fill="#656a82"/>
    </clipPath>
  </defs>
  <g id="facilities_ico_9" transform="translate(68.769 60.304)">
    <rect id="facility_list" width="180" height="150" transform="translate(-68.769 -60.304)" fill="#fff"/>
    <g id="그룹_1937" data-name="그룹 1937" transform="translate(5.013 -12.196)">
      <g id="그룹_1936" data-name="그룹 1936" transform="translate(0 0)" clip-path="url(#clip-path)">
        <path id="패스_3012" data-name="패스 3012" d="M13.777,40.431V31.774c0-2.188.574-3.726,1.753-4.714,2.114-1.631,4.789-3.69,5.309-4.063l.464-.369c1.809-1.407,4.542-3.533,4.542-8.127,0-5.033-4.016-8.552-9.768-8.552a10.284,10.284,0,0,0-7.13,2.665,9.17,9.17,0,0,0-2.837,6.761l-.06,3.1H0V16.33C0,6.718,6.664,0,16.2,0,26.672,0,32.437,5.667,32.437,15.951a10.2,10.2,0,0,1-3.33,7.758c-.039.031-5.456,4.467-6.807,5.5-1.884,1.55-2.965,2.986-2.965,5.775v5.448Z" transform="translate(0 -0.001)" fill="#656a82"/>
        <rect id="사각형_1431" data-name="사각형 1431" width="5.557" height="6.017" transform="translate(13.777 44.554)" fill="#656a82"/>
      </g>
    </g>
  </g>
</svg>
