<svg xmlns="http://www.w3.org/2000/svg" width="470" height="300" viewBox="0 0 470 300">
  <g id="facilities_ico_3_pop" transform="translate(-0.173)">
    <path id="facility_list" d="M0,0H470V300H0Z" transform="translate(0.173 0)" fill="#efeff7"/>
    <path id="패스_2803" data-name="패스 2803" d="M99.111,30.989,99.078,6.648A6.609,6.609,0,0,0,92.507,0H57.742a6.609,6.609,0,0,0-6.57,6.648V31.056c0,.093.021.182.026.268H22.156V15.907H3.236a3.273,3.273,0,0,0,0,6.545H16.114v8.872H8.644s-4.9.148-2.457,4.947,13.094,24,13.094,24,2.587,4.076,5.465,4.076h2.485l16.81,7.486-7.884,3.508a9.319,9.319,0,0,0-7.477-3.8A9.5,9.5,0,1,0,38,81.82l14.234-6.335,14.107,6.282A9.465,9.465,0,1,0,68.23,75.3l-7.794-3.468L77.25,64.35h2.438c2.876,0,5.465-4.076,5.465-4.076s10.6-19.229,13.091-24c.916-1.742.866-5.282.866-5.282M28.679,85.7a4.655,4.655,0,1,1,4.6-4.655,4.63,4.63,0,0,1-4.6,4.655m47-9.309a4.655,4.655,0,1,1-4.6,4.655,4.632,4.632,0,0,1,4.6-4.655M52.239,68.184,43.626,64.35H60.852Z" transform="translate(185.173 114.368)" fill="#656a82"/>
  </g>
</svg>
