<svg xmlns="http://www.w3.org/2000/svg" width="470" height="300" viewBox="0 0 470 300">
  <g id="facilities_ico_15_pop" transform="translate(-0.173 0.186)">
    <rect id="facility_list" width="470" height="300" transform="translate(0.173 -0.185)" fill="#efeff7"/>
    <g id="그룹_1856" data-name="그룹 1856" transform="translate(133.435 108.793)">
      <path id="패스_2864" data-name="패스 2864" d="M64.469.276,31.563,20.669V.276H27.117V28L47.372,15.082,65.9,26.8h7.717L51.038,12.973,72.112.276Z" transform="translate(83.484 0.85)" fill="#656a82"/>
      <path id="패스_2865" data-name="패스 2865" d="M39.84,0,12.452,27.653h5.914L39.812,5.726,61.261,27.653h5.922Z" transform="translate(38.336 0)" fill="#656a82"/>
      <path id="패스_2866" data-name="패스 2866" d="M20.6,12.589,8.328,34.981h4.927l2.969-5.372,1.742-3.222L23.443,16.5l5.392,9.882,1.75,3.222,3.01,5.372h4.931L26.16,12.589Z" transform="translate(25.639 38.757)" fill="#656a82"/>
      <path id="패스_2867" data-name="패스 2867" d="M17.248,12.589V34.981H38.266V31.273H22.053V12.589Z" transform="translate(53.101 38.757)" fill="#656a82"/>
      <path id="패스_2868" data-name="패스 2868" d="M23.944,12.589V34.981H44.957V31.273h-16.2V12.589Z" transform="translate(73.715 38.757)" fill="#656a82"/>
      <path id="패스_2869" data-name="패스 2869" d="M30.525,12.589V34.981H52.758V31.816H35.338v-6.8H49.952V21.876H35.338V15.783H52.423V12.589Z" transform="translate(93.975 38.757)" fill="#656a82"/>
      <path id="패스_2870" data-name="패스 2870" d="M56.933,34.985l-8.769-8.957H42.393v8.957h-4.8v-22.4H50.374c6.016,0,10.657,2.749,10.657,6.607,0,3.071-3.141,5.673-7.146,6.5l8.985,9.291Zm-1-15.788c0-2.28-2.676-3.41-5.645-3.41H42.393v7.048h7.643c2.924,0,5.894-1.313,5.894-3.638" transform="translate(115.718 38.756)" fill="#656a82"/>
      <path id="패스_2871" data-name="패스 2871" d="M60.446,26.15v8.83H55.6V26.236L44.2,12.589h5.51l8.267,9.944,8.28-9.944H71.8Z" transform="translate(136.076 38.756)" fill="#656a82"/>
      <path id="패스_2872" data-name="패스 2872" d="M21.971,13.6a8.63,8.63,0,0,1,5.694,6.314l.1.375H23.02l-.065-.212a5.243,5.243,0,0,0-2.875-3.344A13.1,13.1,0,0,0,14.4,15.658a10.348,10.348,0,0,0-6.811,2.26C5.771,19.4,4.862,21.6,4.858,24.615a8.752,8.752,0,0,0,2.26,6.273c1.481,1.582,3.94,2.419,7.439,2.419a11.7,11.7,0,0,0,6.562-1.721A6.07,6.07,0,0,0,23.7,26.438H14.116V23.33H28.183v12.6h-3.2l-.922-2.688a15.191,15.191,0,0,1-3.4,2.117,18.226,18.226,0,0,1-6.95,1.15,16.493,16.493,0,0,1-9.389-2.639A10.866,10.866,0,0,1,0,24.766,11.19,11.19,0,0,1,4.217,15.6a15.828,15.828,0,0,1,10.294-3.226,20.471,20.471,0,0,1,7.46,1.224" transform="translate(0 38.097)" fill="#656a82"/>
    </g>
  </g>
</svg>
