<svg xmlns="http://www.w3.org/2000/svg" width="180" height="150" viewBox="0 0 180 150">
  <g id="facilities_ico_5" transform="translate(68.769 60.304)">
    <rect id="facility_list" width="180" height="150" transform="translate(-68.769 -60.304)" fill="#fff"/>
    <g id="그룹_1862" data-name="그룹 1862">
      <path id="패스_2839" data-name="패스 2839" d="M12.247,1H14.1L19.1,13.067h-2.11L15.84,10.176H10.458L9.287,13.067H7.24Zm2.86,7.306L13.14,3.517,11.188,8.309Z" transform="translate(-18.513 -3.938)" fill="#656a82"/>
      <path id="패스_2840" data-name="패스 2840" d="M14.44,1.054h1.984V7.076l5.411-6.023H24.29L19.559,6.2,24.5,13.031H22.079L18.2,7.642,16.424,9.558v3.472H14.44Z" transform="translate(-13.439 -3.901)" fill="#656a82"/>
      <path id="패스_2841" data-name="패스 2841" d="M24.868,10.794h6.681v2.618H24.868Zm-1.935,4.349H33.482V9.066H22.933Zm-.16-12.458H25.39V6.26H22.773ZM28.623.169v3.15H27.306V.989H20.855V7.954h6.451V5.1h1.318V8.246h1.853V.169ZM31.6,8.331h1.884V0H31.6Z" transform="translate(-8.919 -4.644)" fill="#656a82"/>
      <path id="패스_2842" data-name="패스 2842" d="M30.983,6.655h3.836v3.713H30.983ZM39.288,0V5.644H36.753V1.367H34.818V4.893H30.983V1.367H29.048V12.129h7.705V7.441h2.535v7.874h1.935V0Z" transform="translate(-3.145 -4.644)" fill="#656a82"/>
      <path id="패스_2843" data-name="패스 2843" d="M51.415,12.871H36.8V11.144H51.415ZM43.093.6h2.029v.975A4.772,4.772,0,0,0,45.6,3.493a4.649,4.649,0,0,0,1.137,1.541A7.415,7.415,0,0,0,48.47,6.3a15.1,15.1,0,0,0,2.295,1.043c-.228.24-.44.479-.651.719-.227.257-.453.5-.665.736a8.454,8.454,0,0,1-1.481-.6A8.156,8.156,0,0,1,46.5,7.344a8.607,8.607,0,0,1-1.331-1.111,6.334,6.334,0,0,1-1.057-1.354,7.023,7.023,0,0,1-1.023,1.3,11.374,11.374,0,0,1-1.318,1.113,10.167,10.167,0,0,1-1.48.89,8.148,8.148,0,0,1-1.527.617c-.228-.239-.44-.479-.649-.736-.228-.24-.455-.479-.668-.719a10.79,10.79,0,0,0,4.033-2.257,5.22,5.22,0,0,0,1.609-3.51Z" transform="translate(2.319 -4.22)" fill="#656a82"/>
      <path id="패스_2844" data-name="패스 2844" d="M8.989,21.813a9.847,9.847,0,0,1-1.234-.651,7.988,7.988,0,0,1-1.156-.8,6.2,6.2,0,0,1-1.463-1.575A5.74,5.74,0,0,1,3.658,20.6a12.871,12.871,0,0,1-1.123.856,11.683,11.683,0,0,1-1.137.7L0,20.819a8.429,8.429,0,0,0,3.009-2.208,4.94,4.94,0,0,0,1.1-3.285V14.045H6.13v1.282A4.29,4.29,0,0,0,7.2,18.407a6.163,6.163,0,0,0,1.3,1.06,7.778,7.778,0,0,0,1.626.806Zm4.245,4.073a2.7,2.7,0,0,1-1.4,2.361,8.014,8.014,0,0,1-4.161.873,8.052,8.052,0,0,1-4.161-.873,2.666,2.666,0,0,1-1.43-2.361,2.721,2.721,0,0,1,1.43-2.361,8,8,0,0,1,4.161-.89,8,8,0,0,1,4.161.89,2.755,2.755,0,0,1,1.4,2.361m-2.066.017c0-.445-.31-.839-.91-1.147a6.2,6.2,0,0,0-2.567-.477,9.088,9.088,0,0,0-1.447.118,5.008,5.008,0,0,0-1.106.324,2.218,2.218,0,0,0-.7.515.939.939,0,0,0-.261.651c0,.462.293.839.91,1.147a5.849,5.849,0,0,0,2.6.5,5.9,5.9,0,0,0,2.567-.5c.6-.309.91-.685.91-1.13m4.1-6.982H12.988v3.542H11.053v-8.9h1.935v3.629h2.276Z" transform="translate(-23.615 4.915)" fill="#656a82"/>
      <path id="패스_2845" data-name="패스 2845" d="M21.988,28.525H10.951v-5.39H15.47v-1.1H9.163V20.431H23.777v1.608H17.468v1.1h4.519ZM22.313,17.9v1.694H10.626V17.9h2.114l-.309-2.037h1.983l.293,2.037h3.527a.709.709,0,0,1,.082-.153,3.218,3.218,0,0,0,.177-.909V15.86H20.46v.755c-.032.274-.048.513-.082.684a2.347,2.347,0,0,1-.131.5c-.014.032-.031.068-.046.1ZM10.789,13.825H22.151v1.66H10.789Zm9.263,11H12.884v2h7.168Z" transform="translate(-17.158 5.098)" fill="#656a82"/>
      <path id="패스_2846" data-name="패스 2846" d="M25.133,18.8c.032-.273.082-.581.13-.888.066-.532.131-1.181.2-1.935h-5.98V14.249h8.126c-.032.924-.114,1.831-.213,2.705-.078.614-.177,1.178-.292,1.725l.358-.032a12.6,12.6,0,0,0,1.429-.223v1.712a9.781,9.781,0,0,1-1.411.2c-.489.07-.88.1-1.186.119a9.066,9.066,0,0,1-.994.036c-.356.019-.794.019-1.284.019V23.15H22.079v-2.62H18.422V18.8Zm6.519,9.737H20.616V23.659h1.95v3.183h9.086Zm-2.1-3.936V23.061H26.143V21.334h3.413v-7.77H31.49V24.6Z" transform="translate(-10.633 4.915)" fill="#656a82"/>
      <path id="패스_2847" data-name="패스 2847" d="M29.533,25.679H28.363c-.407.017-.8.017-1.188.017V15.276h5.917v1.763H29.108v6.9c.554,0,1.009,0,1.384-.017.355,0,.665-.019.924-.034a3.422,3.422,0,0,0,.636-.036,2.162,2.162,0,0,0,.47-.068,3.033,3.033,0,0,0,.488-.1c.162-.036.39-.085.651-.153v1.761c-.392.068-.684.136-.909.172a5.335,5.335,0,0,1-.75.1,7.387,7.387,0,0,1-.958.07c-.373.034-.88.051-1.512.051m7,2.687H34.652V21.043H31.89V19.28h2.762V13.736h1.885Zm3.137.513H37.79V13.564h1.884Z" transform="translate(-4.465 4.915)" fill="#656a82"/>
      <path id="패스_2848" data-name="패스 2848" d="M49.633,26.435H35.024V24.708H49.633ZM41.313,14.166h2.03v.975a4.724,4.724,0,0,0,.474,1.918A4.667,4.667,0,0,0,44.954,18.6a7.475,7.475,0,0,0,1.739,1.267,15.087,15.087,0,0,0,2.293,1.043c-.23.24-.44.479-.651.719-.228.256-.455.5-.667.736a8.3,8.3,0,0,1-1.48-.6,8.075,8.075,0,0,1-1.461-.856A8.472,8.472,0,0,1,43.392,19.8a6.275,6.275,0,0,1-1.055-1.352,7.1,7.1,0,0,1-1.025,1.3A11.532,11.532,0,0,1,40,20.859a10.51,10.51,0,0,1-1.48.89,8.034,8.034,0,0,1-1.527.617c-.228-.24-.44-.481-.651-.736-.228-.24-.457-.479-.667-.719A10.8,10.8,0,0,0,39.7,18.651a5.209,5.209,0,0,0,1.609-3.51Z" transform="translate(1.066 5.339)" fill="#656a82"/>
      <path id="패스_2849" data-name="패스 2849" d="M44.042,26.191V24.5H54.088c.227-1.234.423-2.482.569-3.781-.066,0-.147.015-.211.015-.326.032-.619.068-.878.087-.082,0-.13.015-.164.015-.244.017-.453.034-.649.034a4.3,4.3,0,0,1-.682.051c-.259.019-.539.019-.863.019-.341.017-.764.017-1.25.017-.523.015-1.123.015-1.822.015-.714.017-1.562.017-2.552.017V19.224H50.17c.552,0,1.023,0,1.446-.017.409,0,.767-.017,1.091-.032a7.524,7.524,0,0,0,.892-.07,7.587,7.587,0,0,0,.847-.1,1.58,1.58,0,0,0,.373-.051c.065-.89.1-1.8.116-2.722H45.75V14.468H57.03c-.017.82-.049,1.676-.082,2.6-.048.943-.114,1.884-.194,2.809-.1.941-.194,1.846-.324,2.7-.116.7-.228,1.336-.358,1.918h2.583v1.694Z" transform="translate(7.421 5.551)" fill="#656a82"/>
    </g>
  </g>
</svg>
