<svg xmlns="http://www.w3.org/2000/svg" width="470" height="300" viewBox="0 0 470 300">
  <g id="facilities_ico_11_pop" transform="translate(-0.173 -0.182)">
    <rect id="facility_list" width="470" height="300" transform="translate(0.173 0.182)" fill="#efeff7"/>
    <g id="그룹_1859" data-name="그룹 1859" transform="translate(188.117 92.896)">
      <path id="패스_2854" data-name="패스 2854" d="M58.85,16.124H46.315a17.65,17.65,0,0,0,2.054-.763A11.678,11.678,0,0,0,54.148,10.1,8.026,8.026,0,0,0,54.7,6.85c.023-2.63-1.717-5.016-4.553-6.256A8.679,8.679,0,0,0,47,0C41.477,0,36.105,4.955,32.24,13.593l-.009.028-.2.445-.206.463-.211-.463-.2-.445-.8,1.741.781-1.773C27.547,4.955,22.171,0,16.65,0a8.6,8.6,0,0,0-3.168.6C10.666,1.834,8.925,4.22,8.948,6.827a8.048,8.048,0,0,0,.566,3.313,11.681,11.681,0,0,0,5.755,5.222,17.494,17.494,0,0,0,2.063.763H4.363" transform="translate(16.051 0)" fill="#656a82"/>
      <path id="패스_2855" data-name="패스 2855" d="M92.237,97.912H3.083A3.088,3.088,0,0,1,0,94.82V5.675A3.087,3.087,0,0,1,3.083,2.587H92.237a3.087,3.087,0,0,1,3.083,3.088V94.82a3.088,3.088,0,0,1-3.083,3.093M6.172,91.736H89.149V8.763H6.172Z" transform="translate(0 9.517)" fill="#656a82"/>
      <path id="패스_2856" data-name="패스 2856" d="M92.237,18.286H3.083a3.086,3.086,0,0,1,0-6.172H92.237a3.086,3.086,0,0,1,0,6.172" transform="translate(0 44.568)" fill="#656a82"/>
      <path id="패스_2857" data-name="패스 2857" d="M12.614,97.912A3.089,3.089,0,0,1,9.526,94.82V5.675a3.086,3.086,0,1,1,6.172,0V94.82a3.088,3.088,0,0,1-3.083,3.093" transform="translate(35.046 9.517)" fill="#656a82"/>
    </g>
  </g>
</svg>
