<svg xmlns="http://www.w3.org/2000/svg" width="180" height="150" viewBox="0 0 180 150">
  <g id="facilities_ico_1" transform="translate(68.769 60.304)">
    <rect id="facility_list" width="180" height="150" transform="translate(-68.769 -60.304)" fill="#fff"/>
    <g id="그룹_1864" data-name="그룹 1864">
      <path id="패스_2791" data-name="패스 2791" d="M10.183,0a4.345,4.345,0,0,1,4.335,4.391,4.367,4.367,0,1,1-8.733,0A4.378,4.378,0,0,1,10.183,0" transform="translate(-5.203 -9.134)" fill="#656a82"/>
      <path id="패스_2792" data-name="패스 2792" d="M37.6,0a4.352,4.352,0,0,1,4.288,4.391,4.341,4.341,0,1,1-8.681,0A4.373,4.373,0,0,1,37.6,0" transform="translate(1.494 -9.134)" fill="#656a82"/>
      <rect id="사각형_1366" data-name="사각형 1366" width="2.032" height="49.93" transform="translate(21.039 -8.239)" fill="#656a82"/>
      <path id="패스_2793" data-name="패스 2793" d="M42.623,7.649c6.378,0,6.078,5.532,6.078,5.532V25.873a1.931,1.931,0,0,1-1.9,1.951,1.961,1.961,0,0,1-1.956-1.951v-10.9h-.9V47.352a2.425,2.425,0,1,1-4.85,0V28.071h-.842v19.28a2.489,2.489,0,0,1-2.472,2.437,2.456,2.456,0,0,1-2.411-2.437V14.971h-.893v10.9a1.969,1.969,0,0,1-1.9,1.951,1.926,1.926,0,0,1-1.951-1.951V13.181s-.3-5.532,6.078-5.532Z" transform="translate(0.375 -7.266)" fill="#656a82"/>
      <path id="패스_2794" data-name="패스 2794" d="M14.334,7.845a5.224,5.224,0,0,1,5.075,3.58l3.711,13.267a1.7,1.7,0,0,1-1,1.977c-.948.269-1.793.132-2.115-.98L16.579,13.98l-.59.214L21.25,32.986H15.989V47.547a1.953,1.953,0,0,1-1.951,2,2.023,2.023,0,0,1-1.955-2V33.066H11.047v14.48a2.018,2.018,0,0,1-1.948,2,1.972,1.972,0,0,1-1.957-2V32.986H1.885L7.178,14.194l-.653-.214L3.19,25.688C2.86,26.8,2,26.937,1.016,26.669a1.737,1.737,0,0,1-.969-1.977L3.761,11.425A5.179,5.179,0,0,1,8.83,7.845Z" transform="translate(-6.616 -7.218)" fill="#656a82"/>
    </g>
  </g>
</svg>
