<svg xmlns="http://www.w3.org/2000/svg" xmlns:xlink="http://www.w3.org/1999/xlink" width="75" height="75" viewBox="0 0 75 75">
  <defs>
    <filter id="패스_2810" x="0" y="1" width="74" height="74" filterUnits="userSpaceOnUse">
      <feOffset dy="3" input="SourceAlpha"/>
      <feGaussianBlur stdDeviation="4" result="blur"/>
      <feFlood flood-color="#84889c" flood-opacity="0.4"/>
      <feComposite operator="in" in2="blur"/>
      <feComposite in="SourceGraphic"/>
    </filter>
    <clipPath id="clip-path">
      <rect id="사각형_1385" data-name="사각형 1385" width="43.777" height="9.034" transform="translate(0 0)" fill="#9397a6"/>
    </clipPath>
  </defs>
  <g id="floor_public_ico_4" transform="translate(-446 -1376)">
    <g transform="matrix(1, 0, 0, 1, 446, 1376)" filter="url(#패스_2810)">
      <path id="패스_2810-2" data-name="패스 2810" d="M25,0A25,25,0,1,1,0,25,25,25,0,0,1,25,0Z" transform="translate(12 10)" fill="#fcfcfd"/>
    </g>
    <g id="그룹_1827" data-name="그룹 1827" transform="translate(461.112 1407.483)" clip-path="url(#clip-path)">
      <path id="패스_2816" data-name="패스 2816" d="M5.4,7.247a4.9,4.9,0,0,1-1.336-1.1,5.2,5.2,0,0,1-.953-1.487A4.97,4.97,0,0,1,2.28,6.063,5.25,5.25,0,0,1,.83,7.348L0,6.534A4.752,4.752,0,0,0,1.917,4.6a5.806,5.806,0,0,0,.564-2.771V.653H3.71V1.807a5.309,5.309,0,0,0,.6,2.751A4.8,4.8,0,0,0,6.17,6.414Zm1.22-7.2H7.752V3.364H9.087V4.417H7.752V9.034H6.618Z" fill="#9397a6"/>
      <path id="패스_2817" data-name="패스 2817" d="M17.916,5.532H9.345V4.538h8.571ZM13.635,0a6.672,6.672,0,0,1,1.421.141,3.987,3.987,0,0,1,1.019.4,2.072,2.072,0,0,1,.62.613,1.537,1.537,0,0,1,.21.753,1.492,1.492,0,0,1-.21.763,1.757,1.757,0,0,1-.62.6,3.109,3.109,0,0,1-1.019.4,6,6,0,0,1-1.421.151,5.879,5.879,0,0,1-1.421-.151,2.934,2.934,0,0,1-1.029-.4,1.579,1.579,0,0,1-.629-.6,1.329,1.329,0,0,1-.22-.763,1.363,1.363,0,0,1,.22-.753,1.823,1.823,0,0,1,.629-.613,3.687,3.687,0,0,1,1.029-.4A6.537,6.537,0,0,1,13.635,0m3.424,8.834H10.393v-2.7h1.144V7.84h5.522ZM13.635.935a3.492,3.492,0,0,0-1.525.27c-.373.191-.554.421-.554.7s.181.521.554.7a3.337,3.337,0,0,0,1.525.281A3.3,3.3,0,0,0,15.15,2.61a.812.812,0,0,0,.534-.7c0-.282-.179-.512-.534-.7a3.449,3.449,0,0,0-1.515-.27" fill="#9397a6"/>
      <path id="패스_2818" data-name="패스 2818" d="M19.72,7.157h-.688c-.238.01-.466.01-.7.01V1.054h3.471V2.088H19.472V6.133c.324,0,.591,0,.81-.01s.391-.011.543-.02a2.089,2.089,0,0,0,.372-.02,1.306,1.306,0,0,0,.276-.041,1.687,1.687,0,0,0,.287-.059c.095-.02.228-.051.381-.091V6.926c-.229.04-.4.081-.534.1a3.115,3.115,0,0,1-.439.061,4.7,4.7,0,0,1-.562.04q-.33.03-.886.03m4.109,1.576H22.723v-4.3H21.1V3.4h1.621V.15h1.106Zm1.839.3h-1.1V.051h1.1Z" fill="#9397a6"/>
      <path id="패스_2819" data-name="패스 2819" d="M34.757,7.85H26.186V6.835h8.571ZM29.875.653h1.192v.57a2.771,2.771,0,0,0,.276,1.125,2.707,2.707,0,0,0,.668.9,4.385,4.385,0,0,0,1.02.743,8.754,8.754,0,0,0,1.345.612c-.134.141-.258.281-.382.422s-.267.291-.391.432a4.73,4.73,0,0,1-.869-.352,4.615,4.615,0,0,1-.856-.5,4.916,4.916,0,0,1-.783-.653,3.714,3.714,0,0,1-.619-.792,4.127,4.127,0,0,1-.6.762,6.764,6.764,0,0,1-.772.653,6.109,6.109,0,0,1-.868.522,4.635,4.635,0,0,1-.9.362c-.133-.141-.258-.282-.382-.432s-.267-.281-.392-.422a6.314,6.314,0,0,0,2.366-1.325,3.051,3.051,0,0,0,.944-2.059Z" fill="#9397a6"/>
      <path id="패스_2820" data-name="패스 2820" d="M35.205,7.83V6.836H41.1c.133-.724.248-1.455.334-2.218-.038,0-.086.01-.125.01-.191.019-.362.04-.514.05-.048,0-.076.01-.1.01-.142.01-.267.019-.381.019a2.508,2.508,0,0,1-.4.031c-.153.01-.316.01-.506.01s-.448.01-.734.01c-.305.011-.657.011-1.068.011s-.915.008-1.5.008V3.744H38.8c.324,0,.6,0,.849-.01s.448-.009.638-.019a4.465,4.465,0,0,0,.525-.041,4.2,4.2,0,0,0,.495-.061.923.923,0,0,0,.219-.029c.039-.523.058-1.054.067-1.6H36.207V.953h6.617c-.011.482-.029.984-.048,1.527s-.066,1.1-.115,1.646-.113,1.084-.19,1.585c-.068.412-.134.784-.21,1.125h1.516V7.83Z" fill="#9397a6"/>
    </g>
    <rect id="사각형_1387" data-name="사각형 1387" width="75" height="75" transform="translate(446 1376)" fill="none"/>
  </g>
</svg>
