<svg xmlns="http://www.w3.org/2000/svg" xmlns:xlink="http://www.w3.org/1999/xlink" width="75" height="75" viewBox="0 0 75 75">
  <defs>
    <clipPath id="clip-path">
      <rect id="사각형_1356" data-name="사각형 1356" width="25.353" height="22.908" fill="#fff"/>
    </clipPath>
  </defs>
  <g id="floor_public_ico_3_o" transform="translate(-446 -1376)">
    <path id="패스_2810" data-name="패스 2810" d="M25,0A25,25,0,1,1,0,25,25,25,0,0,1,25,0Z" transform="translate(458 1386)" fill="#73747a"/>
    <rect id="사각형_1387" data-name="사각형 1387" width="75" height="75" transform="translate(446 1376)" fill="none"/>
    <g id="그룹_1292" data-name="그룹 1292" transform="translate(469.324 1401.058)">
      <g id="그룹_1291" data-name="그룹 1291" transform="translate(0 0)" clip-path="url(#clip-path)">
        <path id="패스_2773" data-name="패스 2773" d="M25.353,7.84l-.008-6.158A1.681,1.681,0,0,0,23.663,0H14.771A1.681,1.681,0,0,0,13.09,1.682V7.857c0,.024.005.046.007.068H5.668v-3.9H.828a.828.828,0,0,0,0,1.656H4.122V7.925H2.211s-1.254.038-.628,1.251,3.349,6.073,3.349,6.073.662,1.031,1.4,1.031h.636l4.3,1.894-2.017.888A2.4,2.4,0,1,0,9.722,20.7l3.641-1.6,3.608,1.589a2.4,2.4,0,1,0,.482-1.635l-1.994-.877,4.3-1.894h.624c.736,0,1.4-1.031,1.4-1.031s2.711-4.865,3.349-6.073a3.615,3.615,0,0,0,.222-1.336M7.336,21.682A1.178,1.178,0,1,1,8.514,20.5a1.178,1.178,0,0,1-1.178,1.178m12.022-2.355A1.178,1.178,0,1,1,18.181,20.5a1.178,1.178,0,0,1,1.178-1.178m-6-2.077-2.2-.97h4.406Z" transform="translate(0 0)" fill="#fff"/>
      </g>
    </g>
  </g>
</svg>
