<svg xmlns="http://www.w3.org/2000/svg" width="200" height="200" viewBox="0 0 200 200">
  <g id="floor_touch_ico" transform="translate(-440 -729)">
    <circle id="타원_79" data-name="타원 79" cx="100" cy="100" r="100" transform="translate(440 729)" fill="#2d3552" opacity="0.9"/>
    <g id="floor_ico_toast" transform="translate(490.131 773.421)">
      <path id="패스_376" data-name="패스 376" d="M690.406,123.816l-3.553,4.434,1.289,1.032,5.081-6.34a.826.826,0,0,0-.3-1.269l-7.4-3.358-.683,1.5,5.238,2.378a38.1,38.1,0,0,0-27.9,22l-1.158-5.716-1.619.328,1.614,7.964a.826.826,0,0,0,1.169.579c1.064-.514,7.317-3.528,7.317-3.528l-.717-1.488-5.053,2.436A36.441,36.441,0,0,1,690.406,123.816Z" transform="translate(-649.458 -118.301)" fill="#f5d43b"/>
      <path id="패스_377" data-name="패스 377" d="M748.819,118.287a9.993,9.993,0,0,0-9.82,8.439.826.826,0,1,0,1.633.247,8.279,8.279,0,0,1,16.465,1.245,8.247,8.247,0,0,1-1.158,4.219.826.826,0,0,0,1.42.845,9.927,9.927,0,0,0-8.54-15Z" transform="translate(-690.399 -118.287)" fill="#f5d43b"/>
      <path id="패스_378" data-name="패스 378" d="M648.262,208.221h.05a.826.826,0,0,0,.048-1.65,8.279,8.279,0,1,1,4.688-15.4.826.826,0,0,0,.839-1.423,9.93,9.93,0,1,0-5.625,18.474Z" transform="translate(-638.926 -154.341)" fill="#f5d43b"/>
      <path id="패스_379" data-name="패스 379" d="M721.582,163.47a5.864,5.864,0,0,0-4.116-.151l.457-1.334a5.918,5.918,0,0,0-7.47-7.534,5.919,5.919,0,0,0-7.564-7.135l4.4-12.745A6.021,6.021,0,0,0,704.028,127a5.873,5.873,0,0,0-4.7.067,5.943,5.943,0,0,0-3.165,3.465l-10.218,29.591c-1.447,4.189-6.28,12.446-11.414,13.491-2.126.432-4.108-.406-6.056-2.565-.337-.374-.712-.814-1.124-1.3-3.186-3.733-8.523-9.978-15.156-8.375-3.507.847-5.283,3.426-4.523,6.571a4.163,4.163,0,0,0,2.92,2.892c.322.137.655.279.97.448,4.065,2.182,4.718,3.107,8.967,9.128l.239.339c1.308,1.853,2.434,3.711,3.427,5.35a43.3,43.3,0,0,0,3.054,4.632c7.784,9.566,8.857,14.671,8.857,18.762v10.834a1.17,1.17,0,1,0,2.34,0V209.5c0-4.523-1.136-10.105-9.381-20.239a41.762,41.762,0,0,1-2.868-4.368c-1.013-1.672-2.161-3.568-3.516-5.488l-.24-.339c-4.321-6.122-5.22-7.4-9.772-9.84-.408-.219-.808-.389-1.16-.54-1.037-.441-1.4-.627-1.563-1.288-.579-2.4,1.2-3.362,2.8-3.747,5.238-1.268,9.99,4.3,12.827,7.62.426.5.816.957,1.166,1.345,2.514,2.787,5.293,3.892,8.259,3.291,6.479-1.318,11.664-10.689,13.159-15.02L698.375,131.3a3.578,3.578,0,0,1,4.758-2.135,3.68,3.68,0,0,1,1.945,4.645l-10.13,29.339a1.17,1.17,0,1,0,2.212.764l4.189-12.13a3.577,3.577,0,1,1,6.767,2.322L706.78,158c-.018.049-.035.1-.052.149l-2.767,8.087-.008.026a1.17,1.17,0,0,0,2.214.758l2.817-8.228a3.578,3.578,0,0,1,6.726,2.438l-1.928,5.634c-.02.053-.04.107-.058.16l-1.388,4.065h0a1.17,1.17,0,0,0,2.214.757l1.435-4.194a3.579,3.579,0,0,1,4.708-2.017,3.682,3.682,0,0,1,1.954,4.642L713.858,195.9a45.041,45.041,0,0,1-5.346,10.581c-1.832,2.833-3.278,5.071-3.278,8.341v5.514a1.17,1.17,0,1,0,2.34,0v-5.514c0-2.579,1.155-4.366,2.9-7.07a47.082,47.082,0,0,0,5.594-11.09l8.789-25.624A6.024,6.024,0,0,0,721.582,163.47Z" transform="translate(-643.336 -122.533)" fill="#fff"/>
    </g>
  </g>
</svg>
