<svg xmlns="http://www.w3.org/2000/svg" xmlns:xlink="http://www.w3.org/1999/xlink" width="75" height="75" viewBox="0 0 75 75">
  <defs>
    <filter id="패스_2810" x="0" y="1" width="74" height="74" filterUnits="userSpaceOnUse">
      <feOffset dy="3" input="SourceAlpha"/>
      <feGaussianBlur stdDeviation="4" result="blur"/>
      <feFlood flood-color="#84889c" flood-opacity="0.4"/>
      <feComposite operator="in" in2="blur"/>
      <feComposite in="SourceGraphic"/>
    </filter>
  </defs>
  <g id="floor_public_ico_5" transform="translate(-446 -1376)">
    <g transform="matrix(1, 0, 0, 1, 446, 1376)" filter="url(#패스_2810)">
      <path id="패스_2810-2" data-name="패스 2810" d="M25,0A25,25,0,1,1,0,25,25,25,0,0,1,25,0Z" transform="translate(12 10)" fill="#fcfcfd"/>
    </g>
    <rect id="사각형_1387" data-name="사각형 1387" width="75" height="75" transform="translate(446 1376)" fill="none"/>
    <path id="패스_2821" data-name="패스 2821" d="M9.742,1h.926l2.5,6.028H12.114l-.577-1.445H8.848L8.263,7.031H7.24Zm1.429,3.651-.983-2.395L9.213,4.654Z" transform="translate(459.018 1402.039)" fill="#9397a6"/>
    <path id="패스_2822" data-name="패스 2822" d="M14.44,1.054h.992v3.01l2.7-3.01h1.227L17,3.627l2.469,3.412h-1.21l-1.94-2.693-.885.957V7.039H14.44Z" transform="translate(457.951 1402.032)" fill="#9397a6"/>
    <path id="패스_2823" data-name="패스 2823" d="M22.86,5.394H26.2V6.7H22.86Zm-.967,2.174h5.271V4.53H21.893Zm-.08-6.226h1.308V3.129H21.813ZM24.737.084V1.658h-.658V.494H20.855V3.975h3.223V2.547h.658V4.12h.926V.084Zm1.487,4.079h.941V0h-.941Z" transform="translate(457 1402.188)" fill="#9397a6"/>
    <path id="패스_2824" data-name="패스 2824" d="M30.015,3.326h1.917V5.182H30.015ZM34.165,0V2.82H32.9V.684h-.967V2.445H30.015V.684h-.967V6.062H32.9V3.718h1.267V7.653h.967V0Z" transform="translate(455.786 1402.188)" fill="#9397a6"/>
    <path id="패스_2825" data-name="패스 2825" d="M44.1,6.733H36.8V5.87h7.3ZM39.945.6h1.014v.487a2.384,2.384,0,0,0,.237.957,2.323,2.323,0,0,0,.568.77,3.705,3.705,0,0,0,.868.633,7.544,7.544,0,0,0,1.147.521c-.114.12-.22.239-.325.359s-.227.249-.332.368a4.224,4.224,0,0,1-.74-.3,4.075,4.075,0,0,1-.731-.428,4.3,4.3,0,0,1-.665-.555,3.165,3.165,0,0,1-.528-.676,3.509,3.509,0,0,1-.511.65,5.684,5.684,0,0,1-.658.556,5.08,5.08,0,0,1-.739.445,4.072,4.072,0,0,1-.763.308c-.114-.119-.22-.239-.325-.368s-.227-.239-.334-.359a5.392,5.392,0,0,0,2.015-1.128,2.608,2.608,0,0,0,.8-1.754Z" transform="translate(454.638 1402.099)" fill="#9397a6"/>
    <path id="패스_2826" data-name="패스 2826" d="M4.492,15.686a4.92,4.92,0,0,1-.617-.325,3.991,3.991,0,0,1-.578-.4,3.1,3.1,0,0,1-.731-.787,2.868,2.868,0,0,1-.739.906,6.432,6.432,0,0,1-.561.428,5.838,5.838,0,0,1-.568.35L0,15.189a4.212,4.212,0,0,0,1.5-1.1,2.468,2.468,0,0,0,.551-1.641V11.8H3.063v.641A2.144,2.144,0,0,0,3.6,13.984a3.079,3.079,0,0,0,.649.53,3.887,3.887,0,0,0,.813.4Zm2.121,2.035a1.349,1.349,0,0,1-.7,1.18,4,4,0,0,1-2.079.436A4.023,4.023,0,0,1,1.755,18.9a1.332,1.332,0,0,1-.715-1.18,1.359,1.359,0,0,1,.715-1.18A4,4,0,0,1,3.834,16.1a4,4,0,0,1,2.079.445,1.377,1.377,0,0,1,.7,1.18M5.58,17.73c0-.222-.155-.419-.455-.573a3.1,3.1,0,0,0-1.283-.239,4.541,4.541,0,0,0-.723.059,2.5,2.5,0,0,0-.553.162,1.109,1.109,0,0,0-.348.257.469.469,0,0,0-.13.325c0,.231.147.419.455.573a2.923,2.923,0,0,0,1.3.248,2.946,2.946,0,0,0,1.283-.248c.3-.154.455-.342.455-.565M7.627,14.24H6.49v1.77H5.523V11.564H6.49v1.814H7.627Z" transform="translate(460.09 1401.475)" fill="#9397a6"/>
    <path id="패스_2827" data-name="패스 2827" d="M15.571,19.17H10.057V16.477h2.258v-.548H9.163v-.8h7.3v.8H13.313v.548h2.258Zm.163-5.31v.847H9.894V13.86H10.95L10.8,12.842h.991l.147,1.018H13.7a.355.355,0,0,1,.041-.077,1.608,1.608,0,0,0,.089-.454v-.487h.983v.377c-.016.137-.024.256-.041.342a1.173,1.173,0,0,1-.066.248c-.007.016-.015.034-.023.051ZM9.976,11.825h5.678v.83H9.976Zm4.629,5.5H11.023v1H14.6Z" transform="translate(458.732 1401.436)" fill="#9397a6"/>
    <path id="패스_2828" data-name="패스 2828" d="M21.776,14.181c.016-.136.041-.29.065-.444.033-.266.066-.59.1-.967H18.95v-.864h4.061c-.016.462-.057.915-.106,1.352-.039.307-.089.589-.146.862l.179-.016a6.3,6.3,0,0,0,.714-.112v.855a4.888,4.888,0,0,1-.705.1c-.244.035-.44.052-.593.06a4.53,4.53,0,0,1-.5.018c-.178.009-.4.009-.641.009v1.317h-.966V15.045H18.422v-.864Zm3.257,4.866H19.518V16.609h.975V18.2h4.54ZM23.985,17.08v-.77H22.28v-.863h1.705V11.564h.967V17.08Z" transform="translate(457.36 1401.475)" fill="#9397a6"/>
    <path id="패스_2829" data-name="패스 2829" d="M28.353,17.618h-.584c-.2.009-.4.009-.594.009V12.419h2.957V13.3H28.141v3.446c.277,0,.5,0,.692-.009s.332-.009.462-.017a1.71,1.71,0,0,0,.318-.018,1.081,1.081,0,0,0,.235-.034,1.516,1.516,0,0,0,.244-.05c.081-.018.2-.043.325-.077v.88c-.2.034-.342.068-.454.086a2.666,2.666,0,0,1-.375.05,3.691,3.691,0,0,1-.479.035c-.187.017-.44.026-.756.026m3.5,1.343h-.942V15.3h-1.38V14.42h1.38V11.65h.942Zm1.567.256h-.941V11.564h.941Z" transform="translate(456.063 1401.475)" fill="#9397a6"/>
    <path id="패스_2830" data-name="패스 2830" d="M42.324,18.3h-7.3v-.863h7.3Zm-4.158-6.131h1.015v.487a2.361,2.361,0,0,0,.237.958,2.332,2.332,0,0,0,.568.77,3.735,3.735,0,0,0,.869.633A7.539,7.539,0,0,0,42,15.536c-.115.12-.22.239-.325.359s-.227.248-.333.368a4.145,4.145,0,0,1-.739-.3,4.035,4.035,0,0,1-.73-.428,4.233,4.233,0,0,1-.667-.556,3.135,3.135,0,0,1-.527-.676,3.55,3.55,0,0,1-.512.65,5.762,5.762,0,0,1-.658.556,5.252,5.252,0,0,1-.739.445,4.015,4.015,0,0,1-.763.308c-.114-.12-.22-.24-.325-.368s-.228-.239-.333-.359a5.4,5.4,0,0,0,2.015-1.129,2.6,2.6,0,0,0,.8-1.754Z" transform="translate(454.901 1401.385)" fill="#9397a6"/>
    <path id="패스_2831" data-name="패스 2831" d="M44.042,18.326v-.847h5.02c.113-.617.211-1.24.285-1.889-.033,0-.073.008-.106.008-.163.016-.309.034-.439.043-.041,0-.065.008-.082.008-.122.009-.227.017-.325.017a2.147,2.147,0,0,1-.341.026c-.129.009-.269.009-.431.009s-.382.009-.624.009c-.262.008-.561.008-.911.008s-.78.009-1.275.009v-.881H47.1c.276,0,.511,0,.722-.009s.383-.009.545-.016a10.42,10.42,0,0,0,.869-.086.79.79,0,0,0,.187-.026c.032-.445.049-.9.058-1.36H44.9v-.88h5.637c-.009.41-.025.837-.041,1.3s-.057.941-.1,1.4-.1.923-.162,1.35c-.058.351-.114.668-.179.958h1.291v.847Z" transform="translate(453.564 1401.341)" fill="#9397a6"/>
  </g>
</svg>
