<svg xmlns="http://www.w3.org/2000/svg" width="75" height="75" viewBox="0 0 75 75">
  <g id="floor_public_ico_5_o" transform="translate(-446 -1376)">
    <path id="패스_2810" data-name="패스 2810" d="M25,0A25,25,0,1,1,0,25,25,25,0,0,1,25,0Z" transform="translate(458 1386)" fill="#73747a"/>
    <rect id="사각형_1387" data-name="사각형 1387" width="75" height="75" transform="translate(446 1376)" fill="none"/>
    <path id="합치기_6" data-name="합치기 6" d="M3202.754,3161.187a1.331,1.331,0,0,1-.715-1.179,1.358,1.358,0,0,1,.715-1.18,5.086,5.086,0,0,1,4.159,0,1.376,1.376,0,0,1,.7,1.18,1.348,1.348,0,0,1-.7,1.179,5.171,5.171,0,0,1-4.159,0Zm1.365-1.924a2.589,2.589,0,0,0-.554.162,1.111,1.111,0,0,0-.348.258.469.469,0,0,0-.131.326c0,.23.147.418.456.573a2.928,2.928,0,0,0,1.3.248,2.961,2.961,0,0,0,1.283-.248c.3-.155.454-.343.454-.565s-.155-.419-.454-.573a3.1,3.1,0,0,0-1.283-.239A4.6,4.6,0,0,0,3204.12,3159.263Zm25.333,2.241v-7.654h.941v7.654Zm-19.754-.085v-2.694h2.258v-.547h-3.151v-.8h7.3v.8h-3.153v.547h2.258v2.694Zm.967-.847h3.582v-1h-3.582Zm7.124.761V3158.9h.975v1.59h4.54v.847Zm10.1-.085v-3.659H3226.5v-.881h1.381v-2.77h.941v7.311Zm2.95-.753v-.863h7.3v.863Zm7.681-.015v-.847h5.019c.114-.616.211-1.24.285-1.889-.033,0-.074.008-.106.008-.163.015-.309.034-.438.043-.042,0-.065.007-.082.007-.122.009-.227.017-.325.017a2.132,2.132,0,0,1-.34.026c-.13.009-.269.009-.431.009s-.382.009-.625.009c-.262.007-.562.007-.911.007s-.78.008-1.275.008V3157h2.291c.276,0,.511,0,.723-.009s.384-.008.545-.016a3.753,3.753,0,0,0,.446-.034,4.031,4.031,0,0,0,.423-.051.743.743,0,0,0,.186-.026c.032-.445.049-.9.058-1.36h-4.59v-.88h5.637c-.008.41-.024.838-.042,1.3s-.057.941-.1,1.4-.1.923-.162,1.351c-.058.351-.114.668-.179.958h1.291v.847Zm-14.368-5.772h2.957v.88h-1.992v3.446c.277,0,.5,0,.692-.009s.332-.009.462-.016a1.689,1.689,0,0,0,.318-.018,1.07,1.07,0,0,0,.235-.034,1.61,1.61,0,0,0,.244-.05c.081-.018.2-.042.326-.077v.879c-.2.034-.342.068-.454.086a2.646,2.646,0,0,1-.375.05,3.664,3.664,0,0,1-.479.035c-.186.017-.44.025-.756.025h-.584c-.2.008-.4.008-.594.008Zm-1.893,4.66v-.771h-1.705v-.862h1.705v-3.884h.967v5.516Zm-3.736-.726v-1.309h-1.827v-.864h3.353c.016-.136.042-.291.065-.444.033-.266.066-.59.1-.967h-2.988v-.864h4.06c-.016.462-.057.915-.106,1.352-.039.307-.088.589-.146.862l.179-.016a6.358,6.358,0,0,0,.714-.112v.855a4.847,4.847,0,0,1-.706.1c-.244.035-.439.051-.592.059a4.493,4.493,0,0,1-.5.018c-.178.009-.4.009-.642.009v1.317Zm17.894-.479a4.091,4.091,0,0,1-.73-.427,4.228,4.228,0,0,1-.667-.556,3.159,3.159,0,0,1-.528-.676,3.515,3.515,0,0,1-.512.65,5.788,5.788,0,0,1-.658.556,5.239,5.239,0,0,1-.739.445,4.015,4.015,0,0,1-.763.309c-.115-.121-.22-.24-.326-.368s-.228-.239-.333-.359a5.421,5.421,0,0,0,2.015-1.129,2.6,2.6,0,0,0,.8-1.754v-.488h1.014v.488a2.5,2.5,0,0,0,.805,1.728,3.735,3.735,0,0,0,.868.633,7.617,7.617,0,0,0,1.146.522c-.114.12-.219.238-.325.359s-.228.248-.333.368A4.165,4.165,0,0,1,3236.414,3158.161Zm-29.89.136v-4.447h.967v1.814h1.138v.862h-1.138v1.77Zm-5.523-.821a4.224,4.224,0,0,0,1.5-1.1,2.469,2.469,0,0,0,.552-1.642v-.641h1.008v.641a2.14,2.14,0,0,0,.536,1.539,3.034,3.034,0,0,0,.649.53,3.846,3.846,0,0,0,.813.4l-.57.769a5,5,0,0,1-.616-.325,4.078,4.078,0,0,1-.578-.4,3.131,3.131,0,0,1-.731-.787,2.869,2.869,0,0,1-.738.906,6.669,6.669,0,0,1-.562.427,6.044,6.044,0,0,1-.568.35Zm8.535-.521v-.847h1.057l-.154-1.018h.991l.146,1.018h1.763a.322.322,0,0,1,.041-.076,1.643,1.643,0,0,0,.089-.455v-.487h.983v.377c-.016.137-.024.257-.042.341a1.191,1.191,0,0,1-.065.249c-.007.016-.016.034-.023.051h1.056v.847Zm.082-2.052v-.831h5.678v.831Zm21.244-4.251v-3.934h-1.267v2.343h-3.85v-5.377h.968v1.761h1.916v-1.761h.967v2.137h1.267V3143h.967v7.653Zm-4.15-2.47h1.916v-1.857h-1.916Zm-6.908,2.386v-3.037h5.271v3.037Zm.968-.866h3.338v-1.309h-3.338Zm-8.729.181-.576-1.445h-2.689l-.586,1.445h-1.022l2.5-6.028h.925l2.5,6.028Zm-2.9-2.378h1.958l-.984-2.394Zm7.977,2.377-1.94-2.692-.885.957v1.735h-.992V3143.9h.992v3.01l2.7-3.01h1.227l-2.365,2.574,2.47,3.411Zm15.231-.238v-.863h7.3v.863Zm5.579-2.334a4.077,4.077,0,0,1-.731-.428,4.283,4.283,0,0,1-.665-.555,3.143,3.143,0,0,1-.528-.677,3.522,3.522,0,0,1-.511.651,5.719,5.719,0,0,1-.659.556,5.108,5.108,0,0,1-.739.445,4.075,4.075,0,0,1-.763.308c-.114-.119-.22-.239-.325-.367s-.228-.24-.334-.36a5.4,5.4,0,0,0,2.016-1.128,2.608,2.608,0,0,0,.8-1.754v-.487h1.013V3144a2.386,2.386,0,0,0,.237.958,2.335,2.335,0,0,0,.569.771,3.7,3.7,0,0,0,.868.633,7.537,7.537,0,0,0,1.146.521c-.113.12-.219.24-.325.36s-.227.249-.332.367A4.19,4.19,0,0,1,3237.928,3147.31Zm-13.794-.146V3143h.941v4.164Zm-1.487-.044v-1.573h-.659v1.427h-3.223v-3.48h3.223v1.164h.659v-1.573h.926v4.036Zm-2.924-.991h1.308v-1.787h-1.308Z" transform="translate(-2740.91 -1740.812)" fill="#fff" stroke="rgba(0,0,0,0)" stroke-miterlimit="10" stroke-width="1"/>
  </g>
</svg>
