<svg xmlns="http://www.w3.org/2000/svg" width="85.64" height="36.857" viewBox="0 0 85.64 36.857">
  <g id="floor_ico_touch" opacity="0.8">
    <path id="패스_2088" data-name="패스 2088" d="M80.971,4.99V22.6l-2.655-6.362L72,18.537l7.116,17.036,1.524-.635L74.191,19.5,77.4,18.327l3.725,8.922,1.525-.637-.027-.061V6.643h3.2l-.014,6.846.012,7.188h0V26.57h1.651V14.906l2.592.547V26.57h1.651V18.508l2.322.525V26.57h1.651V21.2l2.281.521V32.528L93.84,36.659l1.168,1.168,4.612-4.613V20.4l-3.932-.9V17.712l-3.973-.9v-2.7l-4.255-.9.014-8.226Z" transform="translate(-13.979 -0.969)" fill="#464749"/>
    <path id="패스_2089" data-name="패스 2089" d="M12.146,4.99l.012,8.226-4.254.9v2.7l-3.972.9v1.795L0,20.4V33.214l4.611,4.613L5.78,36.659,1.651,32.528V21.722L3.932,21.2V26.57h1.65V19.034L7.9,18.508V26.57H9.555V15.454l2.592-.547V26.57H13.8V20.678h0l.01-7.188L13.8,6.643h3.194V26.551l-.027.061,1.525.637,3.725-8.922,3.21,1.169L18.98,34.937l1.523.635L27.62,18.537l-6.317-2.3L18.648,22.6V4.99Z" transform="translate(0 -0.969)" fill="#464749"/>
    <path id="패스_2090" data-name="패스 2090" d="M60.382,0V2.336l5.712,5.71-5.712,5.712v2.335l8.046-8.047Z" transform="translate(-11.724 0)" fill="#464749"/>
    <path id="패스_2091" data-name="패스 2091" d="M40.719,0,32.672,8.046l8.046,8.047V13.758L35.007,8.046l5.712-5.71Z" transform="translate(-6.344 0)" fill="#464749"/>
    <rect id="사각형_903" data-name="사각형 903" width="13.759" height="1.651" transform="translate(34.899 7.22)" fill="#464749"/>
  </g>
</svg>
