<svg xmlns="http://www.w3.org/2000/svg" xmlns:xlink="http://www.w3.org/1999/xlink" width="75" height="75" viewBox="0 0 75 75">
  <defs>
    <filter id="패스_2810" x="0" y="1" width="74" height="74" filterUnits="userSpaceOnUse">
      <feOffset dy="3" input="SourceAlpha"/>
      <feGaussianBlur stdDeviation="4" result="blur"/>
      <feFlood flood-color="#84889c" flood-opacity="0.4"/>
      <feComposite operator="in" in2="blur"/>
      <feComposite in="SourceGraphic"/>
    </filter>
  </defs>
  <g id="floor_public_ico_7" transform="translate(-446 -1376)">
    <g transform="matrix(1, 0, 0, 1, 446, 1376)" filter="url(#패스_2810)">
      <path id="패스_2810-2" data-name="패스 2810" d="M25,0A25,25,0,1,1,0,25,25,25,0,0,1,25,0Z" transform="translate(12 10)" fill="#fcfcfd"/>
    </g>
    <rect id="사각형_1387" data-name="사각형 1387" width="75" height="75" transform="translate(446 1376)" fill="none"/>
    <path id="패스_2776" data-name="패스 2776" d="M19.282,0a1.139,1.139,0,1,0,1.131,1.135A1.128,1.128,0,0,0,19.282,0" transform="translate(465.389 1395.904)" fill="#9397a6"/>
    <path id="패스_2777" data-name="패스 2777" d="M14.137,0a1.138,1.138,0,1,0,1.136,1.135A1.135,1.135,0,0,0,14.137,0" transform="translate(467.498 1395.904)" fill="#9397a6"/>
    <path id="패스_2778" data-name="패스 2778" d="M0,31.55H3.223l2.587-4.113h8.847l2.68,4.466h3.04l-4.366-6.8a4.333,4.333,0,0,0,2.756-4.017V8.939a4.3,4.3,0,0,0-4.28-4.285H5.99A4.3,4.3,0,0,0,1.7,8.939v12.15a4.294,4.294,0,0,0,3.017,4.1ZM3.726,21.531A1.629,1.629,0,0,1,5.362,19.9a1.64,1.64,0,1,1-1.636,1.628m9.1-14.492a.707.707,0,0,1-.7.705H8.434a.7.7,0,0,1-.7-.705V6.188a.708.708,0,0,1,.7-.71h3.689a.711.711,0,0,1,.7.71Zm3.8,5.47a1.8,1.8,0,0,1-1.79,1.791h-9.3a1.794,1.794,0,0,1-1.786-1.791V10.372A1.793,1.793,0,0,1,5.539,8.585h9.3a1.8,1.8,0,0,1,1.79,1.786ZM14.889,23.184a1.64,1.64,0,1,1,1.651-1.653,1.648,1.648,0,0,1-1.651,1.653" transform="translate(472.813 1394)" fill="#9397a6"/>
  </g>
</svg>
