<svg xmlns="http://www.w3.org/2000/svg" xmlns:xlink="http://www.w3.org/1999/xlink" width="75" height="75" viewBox="0 0 75 75">
  <defs>
    <filter id="패스_2810" x="0" y="1" width="74" height="74" filterUnits="userSpaceOnUse">
      <feOffset dy="3" input="SourceAlpha"/>
      <feGaussianBlur stdDeviation="4" result="blur"/>
      <feFlood flood-color="#84889c" flood-opacity="0.4"/>
      <feComposite operator="in" in2="blur"/>
      <feComposite in="SourceGraphic"/>
    </filter>
  </defs>
  <g id="floor_public_ico_1" transform="translate(-446 -1376)">
    <g transform="matrix(1, 0, 0, 1, 446, 1376)" filter="url(#패스_2810)">
      <path id="패스_2810-2" data-name="패스 2810" d="M25,0A25,25,0,1,1,0,25,25,25,0,0,1,25,0Z" transform="translate(12 10)" fill="#fcfcfd"/>
    </g>
    <rect id="사각형_1387" data-name="사각형 1387" width="75" height="75" transform="translate(446 1376)" fill="none"/>
    <g id="그룹_1828" data-name="그룹 1828" transform="translate(0.687)">
      <path id="패스_2760" data-name="패스 2760" d="M7.962,0a2.151,2.151,0,0,1,2.146,2.173,2.162,2.162,0,1,1-4.323,0A2.167,2.167,0,0,1,7.962,0" transform="translate(466.091 1399.045)" fill="#9397a6"/>
      <path id="패스_2761" data-name="패스 2761" d="M35.383,0a2.154,2.154,0,0,1,2.122,2.173,2.149,2.149,0,1,1-4.3,0A2.165,2.165,0,0,1,35.383,0" transform="translate(455.557 1399.045)" fill="#9397a6"/>
      <rect id="사각형_1352" data-name="사각형 1352" width="1.006" height="24.716" transform="translate(482.002 1399.488)" fill="#9397a6"/>
      <path id="패스_2762" data-name="패스 2762" d="M35.555,7.649c3.157,0,3.009,2.738,3.009,2.738V16.67a.956.956,0,0,1-.939.966.971.971,0,0,1-.968-.966v-5.4h-.443V27.3a1.2,1.2,0,1,1-2.4,0V17.758H33.4V27.3a1.232,1.232,0,0,1-1.224,1.207A1.216,1.216,0,0,1,30.979,27.3V11.274h-.442v5.4a.975.975,0,0,1-.942.966.954.954,0,0,1-.966-.966V10.387s-.147-2.738,3.009-2.738Z" transform="translate(457.317 1396.107)" fill="#9397a6"/>
      <path id="패스_2763" data-name="패스 2763" d="M7.1,7.845A2.586,2.586,0,0,1,9.608,9.617l1.837,6.567a.844.844,0,0,1-.5.979c-.469.133-.887.065-1.047-.485l-1.694-5.8-.292.106,2.6,9.3h-2.6V27.5a.967.967,0,0,1-.966.992,1,1,0,0,1-.968-.992V20.33H5.469V27.5a1,1,0,0,1-.964.992.976.976,0,0,1-.969-.992V20.29H.933l2.62-9.3-.323-.106-1.651,5.8c-.163.551-.591.618-1.076.485a.86.86,0,0,1-.48-.979L1.862,9.617A2.564,2.564,0,0,1,4.371,7.845Z" transform="translate(468.313 1396.032)" fill="#9397a6"/>
    </g>
  </g>
</svg>
