<svg xmlns="http://www.w3.org/2000/svg" width="94.297" height="114" viewBox="0 0 94.297 114">
  <g id="floor_ico_toast" transform="translate(-638.926 -118.287)">
    <path id="패스_376" data-name="패스 376" d="M695.115,124.651l-4.092,5.107,1.485,1.189,5.853-7.3a.951.951,0,0,0-.35-1.462l-8.521-3.868-.786,1.732,6.033,2.739A43.885,43.885,0,0,0,662.6,148.122l-1.334-6.584-1.865.378,1.859,9.173a.951.951,0,0,0,1.346.667c1.226-.592,8.429-4.064,8.429-4.064l-.825-1.714-5.821,2.806A41.975,41.975,0,0,1,695.115,124.651Z" transform="translate(-9.022 -0.012)" fill="#3cd48a"/>
    <path id="패스_377" data-name="패스 377" d="M750.312,118.287A11.51,11.51,0,0,0,739,128.008a.951.951,0,1,0,1.881.284,9.537,9.537,0,0,1,18.965,1.434,9.5,9.5,0,0,1-1.335,4.86.952.952,0,0,0,1.635.973,11.435,11.435,0,0,0-9.837-17.273Z" transform="translate(-44.094 0)" fill="#3cd48a"/>
    <path id="패스_378" data-name="패스 378" d="M649.679,211.235l.058,0a.951.951,0,0,0,.055-1.9,9.536,9.536,0,1,1,5.4-17.741.952.952,0,0,0,.967-1.639,11.438,11.438,0,1,0-6.479,21.28Z" transform="translate(0 -30.886)" fill="#3cd48a"/>
    <path id="패스_379" data-name="패스 379" d="M732.832,169.078a6.754,6.754,0,0,0-4.741-.174l.526-1.537a6.817,6.817,0,0,0-8.6-8.678,6.818,6.818,0,0,0-8.713-8.219l5.069-14.68a6.936,6.936,0,0,0-3.757-8.721,6.765,6.765,0,0,0-5.413.078,6.846,6.846,0,0,0-3.646,3.991l-11.77,34.084c-1.666,4.825-7.233,14.337-13.148,15.54-2.449.5-4.732-.468-6.975-2.954-.389-.431-.82-.938-1.295-1.493-3.669-4.3-9.817-11.493-17.458-9.647-4.039.976-6.085,3.946-5.21,7.569.51,2.116,2.093,2.789,3.364,3.331.371.158.755.321,1.117.516,4.682,2.514,5.435,3.579,10.328,10.514l.276.391c1.507,2.134,2.8,4.275,3.948,6.163a49.846,49.846,0,0,0,3.518,5.335c8.966,11.019,10.2,16.9,10.2,21.611v12.479a1.348,1.348,0,1,0,2.7,0V222.1c0-5.21-1.308-11.64-10.806-23.312a48.134,48.134,0,0,1-3.3-5.031c-1.167-1.926-2.489-4.109-4.05-6.321l-.276-.39c-4.977-7.052-6.013-8.52-11.256-11.335-.47-.253-.931-.449-1.336-.621-1.194-.508-1.616-.723-1.8-1.483-.667-2.763,1.385-3.872,3.223-4.316,6.034-1.461,11.507,4.949,14.775,8.777.491.576.94,1.1,1.343,1.549,2.9,3.211,6.1,4.483,9.514,3.791,7.463-1.519,13.435-12.312,15.158-17.3l11.77-34.085a4.121,4.121,0,0,1,5.48-2.459,4.239,4.239,0,0,1,2.24,5.351L702.152,168.7a1.348,1.348,0,1,0,2.548.88l4.825-13.972a4.12,4.12,0,1,1,7.795,2.674l-1.537,4.488c-.021.056-.041.114-.06.171l-3.188,9.315-.009.03a1.348,1.348,0,0,0,2.55.873l3.245-9.478a4.121,4.121,0,0,1,7.748,2.808l-2.221,6.49c-.023.061-.045.123-.067.185l-1.6,4.682v0a1.347,1.347,0,0,0,2.55.872l1.653-4.831a4.123,4.123,0,0,1,5.422-2.323,4.241,4.241,0,0,1,2.251,5.347l-10.122,29.512a51.876,51.876,0,0,1-6.158,12.188c-2.11,3.263-3.776,5.841-3.776,9.607v6.352a1.348,1.348,0,1,0,2.7,0v-6.352c0-2.971,1.331-5.029,3.344-8.144a54.226,54.226,0,0,0,6.443-12.774l10.124-29.515A6.938,6.938,0,0,0,732.832,169.078Z" transform="translate(-3.778 -3.638)" fill="#fff"/>
  </g>
</svg>
