<svg xmlns="http://www.w3.org/2000/svg" xmlns:xlink="http://www.w3.org/1999/xlink" width="75" height="75" viewBox="0 0 75 75">
  <defs>
    <filter id="패스_2810" x="0" y="1" width="74" height="74" filterUnits="userSpaceOnUse">
      <feOffset dy="3" input="SourceAlpha"/>
      <feGaussianBlur stdDeviation="4" result="blur"/>
      <feFlood flood-color="#84889c" flood-opacity="0.4"/>
      <feComposite operator="in" in2="blur"/>
      <feComposite in="SourceGraphic"/>
    </filter>
  </defs>
  <g id="floor_public_ico_6" transform="translate(-446 -1376)">
    <g transform="matrix(1, 0, 0, 1, 446, 1376)" filter="url(#패스_2810)">
      <path id="패스_2810-2" data-name="패스 2810" d="M25,0A25,25,0,1,1,0,25,25,25,0,0,1,25,0Z" transform="translate(12 10)" fill="#fcfcfd"/>
    </g>
    <rect id="사각형_1387" data-name="사각형 1387" width="75" height="75" transform="translate(446 1376)" fill="none"/>
    <g id="그룹_1829" data-name="그룹 1829" transform="translate(473.368 1394)">
      <path id="패스_2766" data-name="패스 2766" d="M2.114,35.6A2.134,2.134,0,0,1,0,33.5V17.755a2.14,2.14,0,0,1,2.114-2.16H17.809a2.139,2.139,0,0,1,2.113,2.16V33.5a2.133,2.133,0,0,1-2.113,2.1Zm-.727-1.417h17.15V17.031H1.387Z" transform="translate(0 -3.724)" fill="#9397a6"/>
      <path id="패스_2767" data-name="패스 2767" d="M6.769,20.818a1.083,1.083,0,0,1,1.1,1.093,1.061,1.061,0,0,1-2.122,0,1.092,1.092,0,0,1,1.026-1.093" transform="translate(-1.372 -4.972)" fill="#9397a6"/>
      <path id="패스_2768" data-name="패스 2768" d="M12.722,20.818a1.094,1.094,0,0,1,1.028,1.093,1.06,1.06,0,0,1-1.028,1.045,1.074,1.074,0,0,1-1.1-1.045,1.105,1.105,0,0,1,1.1-1.093" transform="translate(-2.776 -4.972)" fill="#9397a6"/>
      <path id="패스_2769" data-name="패스 2769" d="M18.615,20.818a1.069,1.069,0,0,1,1.03,1.093,1.046,1.046,0,0,1-2.092,0,1.077,1.077,0,0,1,1.062-1.093" transform="translate(-4.192 -4.972)" fill="#9397a6"/>
      <path id="패스_2770" data-name="패스 2770" d="M16.288,23.893H14.4a1.479,1.479,0,0,0-1.311.594,1.371,1.371,0,0,0-1.278-.594H9.887a1.374,1.374,0,0,0-1.28.594,1.391,1.391,0,0,0-1.28-.594H5.405a1.316,1.316,0,0,0-1.493,1.343v3.087a.46.46,0,0,0,.5.446.444.444,0,0,0,.432-.446V25.682h.232l.034,7.866a.545.545,0,0,0,.563.548.526.526,0,0,0,.561-.548V28.837h.235v4.711a.545.545,0,0,0,.563.548.559.559,0,0,0,.6-.548V25.682h.231v2.641a.472.472,0,0,0,.461.446.446.446,0,0,0,.285-.1.434.434,0,0,0,.711-.346V25.682h.267v7.866a.556.556,0,0,0,.6.548.576.576,0,0,0,.6-.548V28.837h.2v4.711a.526.526,0,0,0,.563.548.577.577,0,0,0,.6-.548V25.682h.231v2.641a.443.443,0,0,0,.431.446.386.386,0,0,0,.284-.1.486.486,0,0,0,.283.1.472.472,0,0,0,.463-.446V25.682h.232v7.866a.577.577,0,0,0,.6.548.564.564,0,0,0,.6-.548V28.837h.2v4.711a.556.556,0,0,0,.6.548.588.588,0,0,0,.6-.548V25.682h.2v2.641a.461.461,0,0,0,.5.446.446.446,0,0,0,.431-.446V25.236s.085-1.343-1.494-1.343" transform="translate(-0.934 -5.706)" fill="#9397a6"/>
      <path id="패스_2771" data-name="패스 2771" d="M8.924,4.473a.89.89,0,0,0-.247-.6L5.074.262a.773.773,0,0,0-1.16,0L.3,3.944a.756.756,0,0,0-.266.55.893.893,0,0,0,.266.6.718.718,0,0,0,.53.248.815.815,0,0,0,.6-.248L3.7,2.816V8.626H5.3V2.816L7.5,5.038a.828.828,0,0,0,1.18,0,.807.807,0,0,0,.247-.566" transform="translate(-0.007 0)" fill="#9397a6"/>
      <path id="패스_2772" data-name="패스 2772" d="M14.461,4.524a.813.813,0,0,0,.249.565l3.6,3.619a.829.829,0,0,0,1.18,0l3.6-3.686a.645.645,0,0,0,.266-.547.921.921,0,0,0-.266-.6.927.927,0,0,0-.526-.214.96.96,0,0,0-.6.214L19.7,6.15V.344H18.077V6.15L15.855,3.926a.845.845,0,0,0-1.145,0,.858.858,0,0,0-.249.6" transform="translate(-3.454 -0.082)" fill="#9397a6"/>
    </g>
  </g>
</svg>
