<svg xmlns="http://www.w3.org/2000/svg" xmlns:xlink="http://www.w3.org/1999/xlink" width="75" height="75" viewBox="0 0 75 75">
  <defs>
    <filter id="패스_2810" x="0" y="1" width="74" height="74" filterUnits="userSpaceOnUse">
      <feOffset dy="3" input="SourceAlpha"/>
      <feGaussianBlur stdDeviation="4" result="blur"/>
      <feFlood flood-color="#84889c" flood-opacity="0.4"/>
      <feComposite operator="in" in2="blur"/>
      <feComposite in="SourceGraphic"/>
    </filter>
  </defs>
  <g id="floor_public_ico_2" transform="translate(-446 -1376)">
    <g transform="matrix(1, 0, 0, 1, 446, 1376)" filter="url(#패스_2810)">
      <path id="패스_2810-2" data-name="패스 2810" d="M25,0A25,25,0,1,1,0,25,25,25,0,0,1,25,0Z" transform="translate(12 10)" fill="#fcfcfd"/>
    </g>
    <rect id="사각형_1387" data-name="사각형 1387" width="75" height="75" transform="translate(446 1376)" fill="none"/>
    <g id="floor_public_ico_2-2" data-name="floor_public_ico_2" transform="translate(474.45 1399.026)">
      <path id="패스_2815" data-name="패스 2815" d="M9.125,7.3A3.652,3.652,0,1,0,5.473,3.652,3.653,3.653,0,0,0,9.125,7.3m8.859,6.26-5.648-5.47H5.922L.331,13.269c-.8.794.111,1.868.111,1.868a1.311,1.311,0,0,0,1.628.268L5.41,12.523v1.639a1.093,1.093,0,0,0,1.1,1.131h5.3a1.119,1.119,0,0,0,1.181-1.077V12.609l3.32,3.08c.68.4,1.474-.283,1.474-.283.92-1.076.2-1.841.2-1.841M8.446,23.8,6.366,21.578l1.987-1.9L5.477,16.6,2.458,19.514a1.313,1.313,0,0,0-.283.863,1.928,1.928,0,0,0,.4,1.271L6.636,25.87c.75.481,1.562-.388,1.562-.388.927-1.065.248-1.683.248-1.683m4.331-7.2L9.9,19.682l1.984,1.9L9.808,23.8s-.681.617.246,1.683c0,0,.814.869,1.563.388l4.067-4.222a1.92,1.92,0,0,0,.394-1.271,1.313,1.313,0,0,0-.283-.863Z" transform="translate(-1 -1)" fill="#9397a6"/>
      <rect id="사각형_1383" data-name="사각형 1383" width="30" height="30" transform="translate(-6.25 -3.026)" fill="none"/>
    </g>
  </g>
</svg>
