<svg xmlns="http://www.w3.org/2000/svg" xmlns:xlink="http://www.w3.org/1999/xlink" width="80" height="85" viewBox="0 0 80 85">
  <defs>
    <filter id="패스_2988" x="2" y="0" width="78" height="78" filterUnits="userSpaceOnUse">
      <feOffset dy="3" input="SourceAlpha"/>
      <feGaussianBlur stdDeviation="3" result="blur"/>
      <feFlood flood-color="#242b4d" flood-opacity="0.169"/>
      <feComposite operator="in" in2="blur"/>
      <feComposite in="SourceGraphic"/>
    </filter>
  </defs>
  <g id="fnb_category_bt_3" transform="translate(-226 -1439)">
    <g transform="matrix(1, 0, 0, 1, 226, 1439)" filter="url(#패스_2988)">
      <path id="패스_2988-2" data-name="패스 2988" d="M30,0A30,30,0,1,1,0,30,30,30,0,0,1,30,0Z" transform="translate(11 6)" fill="#fafafb"/>
    </g>
    <rect id="사각형_1430" data-name="사각형 1430" width="80" height="85" transform="translate(226 1439)" fill="none"/>
    <path id="빼기_9" data-name="빼기 9" d="M-2123.362-1812.365h-11.275a1.993,1.993,0,0,1-1.864-1.49l-.24-1.1a11.269,11.269,0,0,1-7.36-6.894,18.923,18.923,0,0,1-1.3-6.767v-.106c0-.1,0-.2,0-.3h32.791c0,.094,0,.2,0,.3v.1a18.914,18.914,0,0,1-1.3,6.766,11.271,11.271,0,0,1-7.362,6.9l-.238,1.1A1.991,1.991,0,0,1-2123.362-1812.365Zm-18.182-17.588h-2.594a5.4,5.4,0,0,1,2.717-4.024,5.964,5.964,0,0,1,4.658-4.1A10.746,10.746,0,0,1-2129-1841a10.751,10.751,0,0,1,7.764,2.92,5.957,5.957,0,0,1,4.658,4.1,5.4,5.4,0,0,1,2.724,4.023h-2.6a3.019,3.019,0,0,0-1.776-2.017l-.619-.289-.1-.672a3.359,3.359,0,0,0-3.073-2.7l-.544-.062-.33-.432c-.2-.239-2.029-2.334-6.1-2.334-4.2,0-6.029,2.249-6.1,2.345l-.33.414-.535.071a3.364,3.364,0,0,0-3.075,2.7l-.1.672-.621.289a3.019,3.019,0,0,0-1.774,2.017Z" transform="translate(2396 3301.683)" fill="#9397a6" stroke="rgba(0,0,0,0)" stroke-miterlimit="10" stroke-width="1"/>
  </g>
</svg>
