<svg xmlns="http://www.w3.org/2000/svg" width="80" height="85" viewBox="0 0 80 85">
  <g id="fnb_category_bt_4_o" transform="translate(-226 -1439)">
    <path id="패스_2988" data-name="패스 2988" d="M30,0A30,30,0,1,1,0,30,30,30,0,0,1,30,0Z" transform="translate(237 1445)" fill="#2d3552"/>
    <rect id="사각형_1430" data-name="사각형 1430" width="80" height="85" transform="translate(226 1439)" fill="none"/>
    <path id="패스_2991" data-name="패스 2991" d="M151.448,3.149a.849.849,0,0,0-.9-.8l-15.123,1a2.766,2.766,0,0,0,.126-.436L150.468,1.7A.849.849,0,1,0,150.315,0l-26.31,2.6a.626.626,0,0,0,.113,1.247l2.358-.193c-.113.1-.24.206-.378.312l-1.935.128a.626.626,0,0,0,.072,1.25l.222-.011a2.869,2.869,0,0,0-.721,1.933,3.687,3.687,0,0,0,1.973,3.012c.891.649,1.437,1.091,1.437,1.958s-.546,1.308-1.437,1.957a3.933,3.933,0,0,0-1.945,2.586h1.327c.154-.6.653-1,1.386-1.532a3.687,3.687,0,0,0,1.973-3.011,3.687,3.687,0,0,0-1.973-3.012c-.891-.649-1.437-1.091-1.437-1.957s.546-1.308,1.437-1.957l.111-.081,1.615-.08a2.924,2.924,0,0,0-.889,2.118,3.687,3.687,0,0,0,1.973,3.012c.891.649,1.437,1.091,1.437,1.958s-.546,1.308-1.437,1.957a3.933,3.933,0,0,0-1.945,2.586h1.327c.154-.6.653-1,1.386-1.532a3.687,3.687,0,0,0,1.973-3.011,3.687,3.687,0,0,0-1.973-3.012c-.891-.649-1.437-1.091-1.437-1.957s.546-1.308,1.437-1.957c.119-.087.242-.176.366-.27l1.552-.077a3.008,3.008,0,0,0-1.081,2.3,3.687,3.687,0,0,0,1.973,3.012c.891.649,1.437,1.091,1.437,1.958s-.546,1.308-1.437,1.957a3.933,3.933,0,0,0-1.945,2.586h1.327c.154-.6.653-1,1.386-1.532a3.687,3.687,0,0,0,1.973-3.011,3.687,3.687,0,0,0-1.973-3.012c-.891-.649-1.437-1.091-1.437-1.957s.546-1.308,1.437-1.957c.2-.143.4-.294.607-.459l16.4-.812a.85.85,0,0,0,.806-.9m-21.454.565-1.975.131a2.889,2.889,0,0,0,.176-.326l2.163-.177a2.988,2.988,0,0,1-.364.372m3.842-.255-2.1.14a2.75,2.75,0,0,0,.156-.382l2.247-.184a1.888,1.888,0,0,1-.3.426" transform="translate(136.276 1459.895)" fill="#fff"/>
    <path id="패스_2992" data-name="패스 2992" d="M21.153,198.218H0a15.968,15.968,0,0,0,11.382,15.376l.121.578c0,.367.6.765.966.765h9.17c.367,0,.966-.4.966-.765l.121-.578a15.968,15.968,0,0,0,11.382-15.376H21.153Z" transform="translate(249.263 1278.462)" fill="#fff"/>
  </g>
</svg>
