<svg xmlns="http://www.w3.org/2000/svg" xmlns:xlink="http://www.w3.org/1999/xlink" width="80" height="85" viewBox="0 0 80 85">
  <defs>
    <filter id="패스_2988" x="2" y="0" width="78" height="78" filterUnits="userSpaceOnUse">
      <feOffset dy="3" input="SourceAlpha"/>
      <feGaussianBlur stdDeviation="3" result="blur"/>
      <feFlood flood-color="#242b4d" flood-opacity="0.169"/>
      <feComposite operator="in" in2="blur"/>
      <feComposite in="SourceGraphic"/>
    </filter>
  </defs>
  <g id="fnb_category_bt_2" transform="translate(-226 -1439)">
    <g transform="matrix(1, 0, 0, 1, 226, 1439)" filter="url(#패스_2988)">
      <path id="패스_2988-2" data-name="패스 2988" d="M30,0A30,30,0,1,1,0,30,30,30,0,0,1,30,0Z" transform="translate(11 6)" fill="#fafafb"/>
    </g>
    <rect id="사각형_1430" data-name="사각형 1430" width="80" height="85" transform="translate(226 1439)" fill="none"/>
    <rect id="사각형_1423" data-name="사각형 1423" width="17.925" height="2.335" transform="translate(258.037 1486.513)" fill="#9397a6"/>
    <path id="패스_2993" data-name="패스 2993" d="M23.786,4.179a6.915,6.915,0,0,0-1.969.284,6.917,6.917,0,0,0-12.934,0,6.915,6.915,0,1,0-2.5,13.523v6.395H24.312V17.987a6.914,6.914,0,0,0-.526-13.808" transform="translate(251.65 1461.152)" fill="#9397a6"/>
  </g>
</svg>
