<svg xmlns="http://www.w3.org/2000/svg" width="80" height="85" viewBox="0 0 80 85">
  <g id="fnb_category_bt_5_o" transform="translate(-226 -1439)">
    <path id="패스_2988" data-name="패스 2988" d="M30,0A30,30,0,1,1,0,30,30,30,0,0,1,30,0Z" transform="translate(237 1445)" fill="#2d3552"/>
    <rect id="사각형_1430" data-name="사각형 1430" width="80" height="85" transform="translate(226 1439)" fill="none"/>
    <path id="패스_3003" data-name="패스 3003" d="M213.55,54.671A2.663,2.663,0,0,1,212.559,56a.81.81,0,0,0-.074,1.225c2.212,2.19,6.262,5.522,8.018,2.6,1.717-2.856-2.921-4.765-5.935-5.668a.821.821,0,0,0-1.019.512" transform="translate(69.671 1420.96)" fill="#fff"/>
    <path id="패스_3004" data-name="패스 3004" d="M118.644,10.714c1.249.009,2.407.025,3.463.046a.754.754,0,0,0,.661-.359,10.1,10.1,0,0,0,.942-2.051,11.052,11.052,0,0,0,.228-6.115,1.36,1.36,0,0,0-.953-.991,24.686,24.686,0,0,0-4.29-.83.74.74,0,0,0-.769.973,12.839,12.839,0,0,1,0,8.316.763.763,0,0,0,.72,1.009" transform="translate(147.92 1465.503)" fill="#fff"/>
    <path id="패스_3005" data-name="패스 3005" d="M73.533,0a27.783,27.783,0,0,0-5.4.871.74.74,0,0,0-.463,1.075,11.551,11.551,0,0,1,1.309,7.575.773.773,0,0,0,.779.894c1.316-.025,2.579-.04,3.782-.046a.764.764,0,0,0,.684-.441,11.461,11.461,0,0,0,.023-9.48A.741.741,0,0,0,73.533,0" transform="translate(189.632 1465.843)" fill="#fff"/>
    <path id="패스_3006" data-name="패스 3006" d="M9.859,10.944a.745.745,0,0,0-.877-.287C.41,13.866-4.6,19.977,6,19.472q2.326-.111,4.517-.176a.754.754,0,0,0,.715-.592,9.994,9.994,0,0,0-1.37-7.759" transform="translate(245.674 1457.044)" fill="#fff"/>
    <path id="패스_3007" data-name="패스 3007" d="M159.363,13.029a12.419,12.419,0,0,1-.877,6.793.708.708,0,0,0,.628.988c2.285.079,3.578.161,3.578.161,8.805.8,5-5.143-2.6-8.506a.526.526,0,0,0-.73.564" transform="translate(114.297 1455.544)" fill="#fff"/>
    <path id="패스_3008" data-name="패스 3008" d="M46.7,69.95a.384.384,0,0,0-.345.282,8.92,8.92,0,0,1-8.179,6.754l-.055,0a68.853,68.853,0,0,1-11.261,0,10.514,10.514,0,0,1-9.134-6.819.461.461,0,0,0-.4-.281q-.205-.013-.4-.03a.456.456,0,0,0-.457.631,11.932,11.932,0,0,0,10.283,7.786c2.055.175,4.016.233,5.718.233,3.2,0,5.489-.206,5.755-.231a10.576,10.576,0,0,0,4.277-1.2A10.189,10.189,0,0,0,47.654,70.4a.385.385,0,0,0-.392-.486Z" transform="translate(232.044 1408.914)" fill="#fff" stroke="#fff" stroke-width="1.2"/>
  </g>
</svg>
