<svg xmlns="http://www.w3.org/2000/svg" xmlns:xlink="http://www.w3.org/1999/xlink" width="80" height="85" viewBox="0 0 80 85">
  <defs>
    <filter id="패스_2988" x="2" y="0" width="78" height="78" filterUnits="userSpaceOnUse">
      <feOffset dy="3" input="SourceAlpha"/>
      <feGaussianBlur stdDeviation="3" result="blur"/>
      <feFlood flood-color="#242b4d" flood-opacity="0.169"/>
      <feComposite operator="in" in2="blur"/>
      <feComposite in="SourceGraphic"/>
    </filter>
  </defs>
  <g id="fnb_category_bt_1" transform="translate(-226 -1439)">
    <g transform="matrix(1, 0, 0, 1, 226, 1439)" filter="url(#패스_2988)">
      <path id="패스_2988-2" data-name="패스 2988" d="M30,0A30,30,0,1,1,0,30,30,30,0,0,1,30,0Z" transform="translate(11 6)" fill="#fafafb"/>
    </g>
    <g id="그룹_1923" data-name="그룹 1923" transform="translate(248.57 1465.129)">
      <path id="패스_2989" data-name="패스 2989" d="M31.389,3.589a23.7,23.7,0,0,1-1.906,6.287c-.1.208-.044.327.167.288a7.219,7.219,0,0,0,4.73-2.781c1.2-1.794.546-3.494-1.549-4.014a5.166,5.166,0,0,0-.977-.142c-.29,0-.413.028-.465.362m-3.334,8.848a15.824,15.824,0,0,1-4.937,4.9H11.174C6.517,14.512,3.16,8.495,2.644,1.356,2.56.476,3.054.06,3.988,0H30.312c.8-.012,1.261.271,1.34.9.05.316.029.326.473.341a7.043,7.043,0,0,1,1.183.186C36.773,2.289,38,5.56,36.04,8.5c-1.807,2.7-4.949,3.6-7.984,3.942M.492,20.514c-1.318,0,.285,2.429,1.6,2.429H31.47c1.318,0,2.922-2.429,1.6-2.429Z" transform="translate(0 0)" fill="#9397a6" fill-rule="evenodd"/>
    </g>
    <rect id="사각형_1430" data-name="사각형 1430" width="80" height="85" transform="translate(226 1439)" fill="none"/>
  </g>
</svg>
