<svg xmlns="http://www.w3.org/2000/svg" width="80" height="85" viewBox="0 0 80 85">
  <g id="fnb_category_bt_2_o" transform="translate(-226 -1439)">
    <path id="패스_2988" data-name="패스 2988" d="M30,0A30,30,0,1,1,0,30,30,30,0,0,1,30,0Z" transform="translate(237 1445)" fill="#2d3552"/>
    <rect id="사각형_1430" data-name="사각형 1430" width="80" height="85" transform="translate(226 1439)" fill="none"/>
    <rect id="사각형_1423" data-name="사각형 1423" width="17.925" height="2.335" transform="translate(258.037 1486.513)" fill="#fff"/>
    <path id="패스_2993" data-name="패스 2993" d="M23.786,4.179a6.915,6.915,0,0,0-1.969.284,6.917,6.917,0,0,0-12.934,0,6.915,6.915,0,1,0-2.5,13.523v6.395H24.312V17.987a6.914,6.914,0,0,0-.526-13.808" transform="translate(251.65 1461.152)" fill="#fff"/>
  </g>
</svg>
