<svg xmlns="http://www.w3.org/2000/svg" xmlns:xlink="http://www.w3.org/1999/xlink" width="80" height="85" viewBox="0 0 80 85">
  <defs>
    <filter id="패스_2988" x="2" y="0" width="78" height="78" filterUnits="userSpaceOnUse">
      <feOffset dy="3" input="SourceAlpha"/>
      <feGaussianBlur stdDeviation="3" result="blur"/>
      <feFlood flood-color="#242b4d" flood-opacity="0.169"/>
      <feComposite operator="in" in2="blur"/>
      <feComposite in="SourceGraphic"/>
    </filter>
  </defs>
  <g id="fnb_category_bt_7" transform="translate(-226 -1439)">
    <g transform="matrix(1, 0, 0, 1, 226, 1439)" filter="url(#패스_2988)">
      <path id="패스_2988-2" data-name="패스 2988" d="M30,0A30,30,0,1,1,0,30,30,30,0,0,1,30,0Z" transform="translate(11 6)" fill="#fafafb"/>
    </g>
    <rect id="사각형_1430" data-name="사각형 1430" width="80" height="85" transform="translate(226 1439)" fill="none"/>
    <g id="그룹_1932" data-name="그룹 1932" transform="translate(249.924 1451.795)">
      <path id="패스_2997" data-name="패스 2997" d="M65.259,764.161v-.168H45.451v.168c0,2.169,2.266,3.927,5.06,3.927H60.2c2.795,0,5.061-1.758,5.061-3.927" transform="translate(-43.391 -729.357)" fill="#9397a6"/>
      <path id="패스_2998" data-name="패스 2998" d="M65.259,462.651c0-2.943-4.434-5.329-9.9-5.329s-9.9,2.386-9.9,5.329v.863H65.259Z" transform="translate(-43.391 -436.589)" fill="#9397a6"/>
      <path id="패스_2999" data-name="패스 2999" d="M1.975,610.11H21.964a1.578,1.578,0,1,0,0-3.057H1.975a1.578,1.578,0,1,0,0,3.057" transform="translate(-0.005 -579.532)" fill="#9397a6"/>
      <path id="패스_3000" data-name="패스 3000" d="M4.688,689.566h0a4.684,4.684,0,0,0,2.868.921,4.682,4.682,0,0,0,2.867-.921h0a2.659,2.659,0,0,1,3.1,0h0a4.923,4.923,0,0,0,5.735,0h0a2.657,2.657,0,0,1,3.1,0,1.132,1.132,0,0,0,1.319,0,.616.616,0,0,0,0-1.024,4.921,4.921,0,0,0-5.732,0l0,0a2.657,2.657,0,0,1-3.1,0h0a4.682,4.682,0,0,0-2.867-.922,4.682,4.682,0,0,0-2.867.922h0a2.529,2.529,0,0,1-1.548.5,2.526,2.526,0,0,1-1.548-.5l0,0a4.683,4.683,0,0,0-2.865-.92,4.682,4.682,0,0,0-2.867.922.616.616,0,0,0,0,1.024,1.084,1.084,0,0,0,.659.212,1.085,1.085,0,0,0,.66-.212,2.524,2.524,0,0,1,1.548-.5,2.527,2.527,0,0,1,1.548.5" transform="translate(0 -656.448)" fill="#9397a6"/>
      <path id="패스_3001" data-name="패스 3001" d="M341.387,2.715a.743.743,0,0,0-1.006-.294l-3.454,2.76-.758,3.592H324.014l.568,11.476c4.325.775,7.379,3.052,7.379,5.812v.762a2.416,2.416,0,0,1,2.06,2.225,2.25,2.25,0,0,1-1.311,1.96,4.8,4.8,0,0,1,.757.479,1.383,1.383,0,0,1,0,2.238,1.847,1.847,0,0,1-1.131.373,1.917,1.917,0,0,1-.375-.036V34.8a4.554,4.554,0,0,1-2.638,3.927h9.149l1.483-29.957h-2.271l.552-2.62,2.856-2.431a.745.745,0,0,0,.295-1.008m-6.443,11.867h-9.158l-.214-4.326h10.285Zm3.454-4.326-.214,4.326H336.46l.911-4.326Z" transform="translate(-309.325)" fill="#9397a6"/>
    </g>
  </g>
</svg>
