<svg xmlns="http://www.w3.org/2000/svg" xmlns:xlink="http://www.w3.org/1999/xlink" width="80" height="85" viewBox="0 0 80 85">
  <defs>
    <filter id="패스_2988" x="2" y="0" width="78" height="78" filterUnits="userSpaceOnUse">
      <feOffset dy="3" input="SourceAlpha"/>
      <feGaussianBlur stdDeviation="3" result="blur"/>
      <feFlood flood-color="#242b4d" flood-opacity="0.169"/>
      <feComposite operator="in" in2="blur"/>
      <feComposite in="SourceGraphic"/>
    </filter>
  </defs>
  <g id="fnb_category_bt_6" transform="translate(-226 -1439)">
    <g transform="matrix(1, 0, 0, 1, 226, 1439)" filter="url(#패스_2988)">
      <path id="패스_2988-2" data-name="패스 2988" d="M30,0A30,30,0,1,1,0,30,30,30,0,0,1,30,0Z" transform="translate(11 6)" fill="#fafafb"/>
    </g>
    <rect id="사각형_1430" data-name="사각형 1430" width="80" height="85" transform="translate(226 1439)" fill="none"/>
    <g id="그룹_1934" data-name="그룹 1934" transform="translate(247.865 1462.012)">
      <path id="패스_3009" data-name="패스 3009" d="M36.857,1.554c-.2-.04-1,.851-1.717,1.707A5.193,5.193,0,0,0,30.425,0a4.873,4.873,0,0,0-1.758.329,27.744,27.744,0,0,1-9.443,1.465A27.771,27.771,0,0,1,9.781.33,4.865,4.865,0,0,0,8.023,0,5.2,5.2,0,0,0,3.25,3.406c-.744-.9-1.625-1.894-1.837-1.852C.481,1.845-.325,5.159.131,5.911c.108.2,1.529-.212,2.695-.595a5.653,5.653,0,0,0,3.441,5.576,31.489,31.489,0,0,0,6.855,1.685l.028.013.037,0c.112.015.223.033.336.047L13.2,15.614a6,6,0,0,0,.012,1.622,6.144,6.144,0,0,0,4.386,4.9l-.7,11.15h4.669l-.684-11.15a6.146,6.146,0,0,0,4.387-4.9,6,6,0,0,0,.011-1.622l-.324-2.983a31.907,31.907,0,0,0,7.226-1.738,5.069,5.069,0,0,0,1.728-1.117h0a5.886,5.886,0,0,0,1.717-4.4c1.126.365,2.41.729,2.512.535.457-.752-.35-4.066-1.281-4.357M17.934,15.7a1.039,1.039,0,1,1-2.076-.081l.117-2.734c.677.048,1.363.079,2.055.1Zm3.649,1a1.039,1.039,0,0,1-1.039-1l-.095-2.719c.692-.019,1.378-.05,2.055-.1l.117,2.736A1.039,1.039,0,0,1,21.583,16.7" fill="#9397a6"/>
    </g>
  </g>
</svg>
