<svg xmlns="http://www.w3.org/2000/svg" xmlns:xlink="http://www.w3.org/1999/xlink" width="113" height="142.074" viewBox="0 0 113 142.074">
  <defs>
    <filter id="타원_1" x="0" y="81.074" width="113" height="61" filterUnits="userSpaceOnUse">
      <feOffset input="SourceAlpha"/>
      <feGaussianBlur stdDeviation="5" result="blur"/>
      <feFlood flood-opacity="0.502"/>
      <feComposite operator="in" in2="blur"/>
      <feComposite in="SourceGraphic"/>
    </filter>
  </defs>
  <g id="current_position" data-name="current position" transform="translate(15 4)">
    <g transform="matrix(1, 0, 0, 1, -15, -4)" filter="url(#타원_1)">
      <g id="타원_1-2" data-name="타원 1" transform="translate(15 96.07)" fill="#528fe3" stroke="#fff" stroke-width="4">
        <ellipse cx="41.5" cy="15.5" rx="41.5" ry="15.5" stroke="none"/>
        <ellipse cx="41.5" cy="15.5" rx="39.5" ry="13.5" fill="none"/>
      </g>
    </g>
    <g id="합치기_1" data-name="합치기 1" transform="translate(12.76 0)" fill="#528fe3" stroke-linecap="round" stroke-linejoin="round">
      <path d="M 37.85664367675781 109.710205078125 L 37.85655212402344 109.710205078125 L 37.8564453125 109.710205078125 C 37.71593475341797 109.710205078125 37.57184219360352 109.7077865600586 37.42818069458008 109.7030029296875 C 37.1680908203125 109.6943588256836 36.91882705688477 109.6865081787109 36.67985916137695 109.6789855957031 C 35.19793701171875 109.6323547363281 34.12721252441406 109.5986633300781 33.22510528564453 109.4648056030273 C 32.42802810668945 109.3465270996094 31.26732063293457 109.0840911865234 30.39370536804199 108.1745529174805 C 29.14261245727539 106.8720016479492 29.05984306335449 105.0330810546875 28.90959739685059 101.694709777832 L 28.90924453735352 101.6868515014648 C 28.69898796081543 97.03416442871094 28.48877143859863 92.578125 28.27481651306152 88.24135589599609 C 28.01121711730957 93.26913452148438 27.79084205627441 98.37614440917969 27.77390480041504 103.4042053222656 C 27.76576614379883 105.7632293701172 27.16607475280762 107.4175415039062 25.94059753417969 108.4618301391602 C 24.71664428710938 109.5048141479492 23.19091987609863 109.6386032104492 21.99845886230469 109.6386337280273 C 21.65056610107422 109.6386337280273 21.30568885803223 109.627082824707 20.97216606140137 109.6159133911133 L 20.96232032775879 109.6155700683594 C 20.67279815673828 109.6054763793945 20.34769058227539 109.5941543579102 20.04635047912598 109.5941543579102 C 19.73642730712891 109.5941543579102 19.47942733764648 109.6062164306641 19.26065826416016 109.6310501098633 C 18.88748931884766 109.6732788085938 18.52936744689941 109.6946487426758 18.19559669494629 109.6946640014648 C 16.68975067138672 109.6947250366211 15.49041271209717 109.2570495605469 14.63090515136719 108.3938140869141 C 13.2711820602417 107.0282211303711 13.16553592681885 105.0496978759766 13.17384338378906 103.1402206420898 C 13.2225513458252 91.20017242431641 13.21133613586426 79.05758666992188 13.20047473907471 67.31480407714844 C 13.19742584228516 64.01781463623047 13.19429969787598 60.63174057006836 13.19250679016113 57.26262664794922 C 12.08106422424316 59.50139617919922 10.97150039672852 61.73678588867188 9.86542797088623 63.96514129638672 L 8.197674751281738 67.32503509521484 L 7.349289894104004 69.03417205810547 L 5.602166652679443 68.26703643798828 C 1.602489709854126 66.51081848144531 -0.8912025690078735 65.31890869140625 -1.725033283233643 63.04298782348633 C -2.509094953536987 60.90289306640625 -1.548941016197205 58.66861724853516 0.1255666762590408 55.24321746826172 C 1.458228230476379 52.51592636108398 2.818012714385986 49.74578857421875 4.133028030395508 47.06686401367188 C 5.87401294708252 43.5201416015625 7.674274444580078 39.85269546508789 9.432812690734863 36.24134063720703 C 12.26636695861816 30.42087936401367 16.82204437255859 27.4695873260498 22.97321319580078 27.4695873260498 C 23.18070602416992 27.4695873260498 23.39296722412109 27.4730167388916 23.60413551330566 27.47978591918945 C 24.79491996765137 27.51838684082031 26.06938171386719 27.53635597229004 27.61564445495605 27.53635597229004 C 28.70449066162109 27.53635597229004 29.81595039367676 27.52738761901855 30.89082908630371 27.51872444152832 C 31.95004272460938 27.51018714904785 33.04530334472656 27.50135612487793 34.12625885009766 27.5009708404541 L 34.13584518432617 27.5009708404541 C 36.89193725585938 27.5009708404541 39.35149002075195 28.13604927062988 41.4461669921875 29.38857078552246 C 43.55616760253906 30.6502628326416 45.25653457641602 32.51363372802734 46.50002670288086 34.92694091796875 C 49.16082763671875 40.09038543701172 51.74549102783203 45.3901252746582 54.24504470825195 50.51535797119141 C 55.49126052856445 53.07069396972656 56.77990341186523 55.71301651000977 58.06033706665039 58.30213928222656 C 58.61164474487305 59.41652679443359 58.87807464599609 60.42827987670898 58.87475204467773 61.39492416381836 C 58.87135314941406 62.38277053833008 58.58202743530273 63.28831100463867 58.01481246948242 64.08640289306641 C 57.12516784667969 65.33817291259766 55.77239608764648 66.03035736083984 54.57887268066406 66.64104461669922 C 54.09236526489258 66.88998413085938 53.63285827636719 67.12510681152344 53.29984283447266 67.35326385498047 C 52.45150375366211 67.93418884277344 51.65085983276367 68.21652221679688 50.85170364379883 68.21666717529297 C 50.21841430664062 68.21678924560547 49.01774978637695 68.01612854003906 48.09175109863281 66.67100524902344 C 47.68161392211914 66.07521820068359 47.42541122436523 65.41309356689453 47.19936752319336 64.82892608642578 C 47.09499740600586 64.55923461914062 46.98709106445312 64.28035736083984 46.90153503417969 64.11675262451172 C 46.44746017456055 63.24786376953125 45.994873046875 62.36406326293945 45.55718231201172 61.50935745239258 C 44.88903427124023 60.20463943481445 44.21182632446289 58.8822135925293 43.50235748291016 57.560546875 C 43.49751281738281 62.0998649597168 43.49576568603516 66.66310882568359 43.49406051635742 71.10617065429688 C 43.49021148681641 81.12492370605469 43.48622894287109 91.48478698730469 43.4467658996582 101.6759567260742 C 43.44519805908203 102.0509414672852 43.47313690185547 102.4682312011719 43.50271987915039 102.9100341796875 C 43.61331939697266 104.5613403320312 43.75094985961914 106.6164627075195 42.32109069824219 108.1454467773438 C 41.33661270141602 109.1981735229492 39.87627410888672 109.7099990844727 37.85664367675781 109.710205078125 Z M 28.36091995239258 23.32006454467773 C 28.36087417602539 23.32006454467773 28.3608570098877 23.32006454467773 28.36084365844727 23.32006454467773 C 24.98850440979004 23.3202018737793 21.83533668518066 22.0648021697998 19.48225975036621 19.78509521484375 C 17.1218433380127 17.4982795715332 15.78042793273926 14.38792514801025 15.70510482788086 11.02700233459473 C 15.6282901763916 7.631848335266113 16.83913612365723 4.417648315429688 19.11458206176758 1.976925373077393 C 21.3974437713623 -0.471782386302948 24.50735092163086 -1.881582379341125 27.87142753601074 -1.99279773235321 C 28.0172290802002 -1.997613191604614 28.16478157043457 -2.000043869018555 28.31011962890625 -2.000043869018555 C 31.70322799682617 -2.000043869018555 34.88101196289062 -0.7042131423950195 37.25809097290039 1.648740649223328 C 39.6434440612793 4.009894371032715 40.96315002441406 7.180694580078125 40.97410583496094 10.57703304290771 C 40.98527526855469 14.01384830474854 39.727783203125 17.20671081542969 37.43327331542969 19.56744766235352 C 35.13372039794922 21.93337059020996 31.98655128479004 23.26548004150391 28.57148933410645 23.31835556030273 C 28.5023307800293 23.31949424743652 28.43075752258301 23.3200626373291 28.36091995239258 23.32006454467773 L 28.36091995239258 23.32006454467773 Z" stroke="none"/>
      <path d="M 37.85644149780273 107.7102127075195 C 42.61231231689453 107.7097244262695 41.43555068969727 104.3408126831055 41.44678497314453 101.668212890625 C 41.50829696655273 85.78101348876953 41.48340606689453 69.89405059814453 41.50683975219727 54.00708770751953 C 41.50927734375 52.89208602905273 41.658203125 51.77685165405273 41.73827743530273 50.66186904907227 C 44.48682403564453 54.77148818969727 46.49658584594727 59.02368927001953 48.67382431030273 63.18994140625 C 49.37793350219727 64.53638458251953 49.72510528564453 67.37720489501953 52.16944122314453 65.70337677001953 C 54.29638671875 64.24608612060547 58.42675018310547 63.55321502685547 56.26758575439453 59.18872451782227 C 52.41894912719727 51.40648651123047 48.6982421875 43.55883407592773 44.72216796875 35.84301376342773 C 42.56787490844727 31.66210556030273 38.9261589050293 29.49916839599609 34.12694931030273 29.50097846984863 C 30.59716415405273 29.502197265625 27.06494903564453 29.59301567077637 23.54004096984863 29.478759765625 C 17.69969177246094 29.29148101806641 13.73436641693115 31.97461700439453 11.23095035552979 37.116943359375 C 8.142586708068848 43.45923233032227 5.019040584564209 49.7841796875 1.922368049621582 56.12157821655273 C -1.23583197593689 62.58203125 -0.9970682859420776 63.18505096435547 6.406259059906006 66.43579864501953 C 9.002931594848633 61.20459747314453 11.62451362609863 55.92212295532227 14.24756813049316 50.640869140625 C 14.5610408782959 50.68750762939453 14.87596797943115 50.73437881469727 15.18994998931885 50.78003311157227 C 15.18994998931885 52.07836151123047 15.18994998931885 53.37572479248047 15.19140434265137 54.67308807373047 C 15.19629573822021 70.83081817626953 15.23974990844727 86.98973846435547 15.1738224029541 103.14892578125 C 15.16162204742432 105.9502029418945 15.42529106140137 108.05224609375 19.0351505279541 107.643798828125 C 19.6762809753418 107.571044921875 20.35693550109863 107.5932693481445 21.02929496765137 107.6167068481445 C 23.44873237609863 107.6977462768555 25.7587890625 107.780517578125 25.7739315032959 103.3974685668945 C 25.8022403717041 94.98632049560547 26.3832950592041 86.57495880126953 26.81884002685547 78.16870880126953 C 26.8886775970459 76.81250762939453 27.4292049407959 75.48070526123047 27.75194931030273 74.137939453125 C 28.22802352905273 74.18238067626953 28.7040958404541 74.2265625 29.1806583404541 74.27198028564453 C 29.37793159484863 75.51392364501953 29.68798637390137 76.75196075439453 29.75391387939453 78.00147247314453 C 30.1704044342041 85.86473846435547 30.55175018310547 93.73095703125 30.90722274780273 101.596923828125 C 31.18456840515137 107.7592849731445 31.16991424560547 107.49365234375 37.49462127685547 107.7041091918945 C 37.61914825439453 107.708251953125 37.7392578125 107.7102127075195 37.85644149780273 107.7102127075195 M 28.36084175109863 21.32007026672363 C 28.41991424560547 21.32007026672363 28.48047637939453 21.31957817077637 28.54053115844727 21.31859588623047 C 34.4990234375 21.2263240814209 38.99365997314453 16.60228729248047 38.97411346435547 10.58350563049316 C 38.95458602905273 4.535651206970215 34.01906967163086 -0.1945848613977432 27.93749618530273 0.006105734966695309 C 22.08885955810547 0.1994693726301193 17.57031440734863 5.046396732330322 17.70458602905273 10.98217868804932 C 17.8359317779541 16.84205055236816 22.47265815734863 21.32030487060547 28.36084175109863 21.32007026672363 M 37.85685729980469 111.7102127075195 C 37.69284439086914 111.7091293334961 37.52760314941406 111.7074127197266 37.36153030395508 111.7018890380859 C 37.10282135009766 111.6932907104492 36.85475158691406 111.6854705810547 36.6169319152832 111.6779937744141 C 35.12600326538086 111.6310729980469 33.94838714599609 111.5940170288086 32.93154907226562 111.4431457519531 C 31.84442329406738 111.2818298339844 30.2490406036377 110.9111251831055 28.95129585266113 109.5599975585938 C 28.71219444274902 109.3110656738281 28.50596237182617 109.0514831542969 28.32754516601562 108.7867279052734 C 28.01370811462402 109.2329711914062 27.64991188049316 109.6329116821289 27.23774909973145 109.9841232299805 C 25.49751281738281 111.4670486450195 23.41415023803711 111.6385955810547 21.99847793579102 111.6386337280273 C 21.61787796020508 111.6386489868164 21.25675010681152 111.6265640258789 20.90749549865723 111.6148681640625 L 20.89545822143555 111.6144714355469 C 20.89362335205078 111.6143951416016 20.89176750183105 111.6143417358398 20.88993263244629 111.6142730712891 C 20.61945915222168 111.604850769043 20.3128776550293 111.5941619873047 20.04623985290527 111.5941619873047 C 19.81245803833008 111.5941619873047 19.62924003601074 111.60205078125 19.48611259460449 111.6182861328125 C 19.03793144226074 111.6690139770508 18.6041316986084 111.6946487426758 18.19551277160645 111.6946487426758 C 16.13840484619141 111.6947250366211 14.46222305297852 111.0589447021484 13.21364116668701 109.8049621582031 C 12.27196788787842 108.8592147827148 11.65378665924072 107.6138534545898 11.37625885009766 106.1034545898438 C 11.19138622283936 105.0972900390625 11.16973209381104 104.080451965332 11.17385864257812 103.1314849853516 C 11.22254943847656 91.19541168212891 11.21133136749268 79.05372619628906 11.20047760009766 67.31179809570312 C 11.20000553131104 66.80216217041016 11.19953155517578 66.29022216796875 11.19906044006348 65.77671051025391 L 9.989131927490234 68.21427154541016 C 9.03940486907959 70.12758636474609 6.753913402557373 70.95705413818359 4.798095226287842 70.09828948974609 C 2.636313438415527 69.14907073974609 1.148513555526733 68.45332336425781 -0.05919555947184563 67.70601654052734 C -1.218013763427734 66.98894500732422 -2.84614109992981 65.79672241210938 -3.602959156036377 63.73099517822266 C -4.149959087371826 62.23799514770508 -4.128886699676514 60.59605026245117 -3.538541078567505 58.71132278442383 C -3.156195640563965 57.49061584472656 -2.540577411651611 56.14321517944336 -1.671231865882874 54.36485290527344 C -0.3378500938415527 51.63608932495117 1.022404432296753 48.8649787902832 2.337895393371582 46.18510437011719 C 4.078113555908203 42.63994216918945 5.877586364746094 38.97408676147461 7.634658813476562 35.36574172973633 C 9.174186706542969 32.20337677001953 11.22240447998047 29.75750541687012 13.72225856781006 28.09641456604004 C 16.34542274475098 26.35337829589844 19.45789527893066 25.46957778930664 22.97318649291992 25.46957778930664 C 23.20187759399414 25.46957778930664 23.43573188781738 25.47336006164551 23.66824150085449 25.48081398010254 C 24.8375129699707 25.51870536804199 26.09135055541992 25.53634262084961 27.61553192138672 25.53634262084961 C 28.69613265991211 25.53634262084961 29.8033504486084 25.52741432189941 30.87413215637207 25.51877784729004 C 31.93733215332031 25.51021575927734 33.0367317199707 25.5013599395752 34.12556838989258 25.50097846984863 L 34.13589477539062 25.50097846984863 C 37.25851440429688 25.50097846984863 40.06338500976562 26.2314338684082 42.47260284423828 27.67205047607422 C 44.90771484375 29.12814140319824 46.86089706420898 31.26081466674805 48.27789688110352 34.0108528137207 C 50.94874954223633 39.19383239746094 53.53831481933594 44.50359725952148 56.0426025390625 49.6385612487793 C 57.28765869140625 52.19148635864258 58.57509613037109 54.83134078979492 59.85309600830078 57.41554260253906 C 60.54489517211914 58.81394195556641 60.879150390625 60.11801528930664 60.87474822998047 61.40179824829102 C 60.86996841430664 62.79083251953125 60.44475173950195 64.11979675292969 59.64504241943359 65.24501800537109 C 58.47187805175781 66.89569091796875 56.74836730957031 67.77758026123047 55.48993301391602 68.4215087890625 C 55.0808219909668 68.63083648681641 54.65778732299805 68.8472900390625 54.43029403686523 69.00315856933594 C 53.25447845458984 69.80834197998047 52.05089569091797 70.2164306640625 50.85216903686523 70.21666717529297 C 50.8519172668457 70.21666717529297 50.85152435302734 70.21666717529297 50.85127639770508 70.21666717529297 C 49.82500839233398 70.21669769287109 47.88881683349609 69.90328216552734 46.44438552856445 67.80508422851562 C 46.01090240478516 67.17540740966797 45.72312545776367 66.53086090087891 45.4962043762207 65.96446228027344 C 45.49536895751953 67.690185546875 45.49470901489258 69.40608215332031 45.49406051635742 71.10481262207031 C 45.49020385742188 81.12599945068359 45.48622131347656 91.48834228515625 45.44675064086914 101.683708190918 C 45.44547653198242 101.9882507324219 45.47111511230469 102.3710861206055 45.49826049804688 102.7763977050781 C 45.62020492553711 104.5971603393555 45.80447769165039 107.3487091064453 43.7818603515625 109.5115203857422 C 42.41773223876953 110.9701995849609 40.42427825927734 111.7099456787109 37.85685729980469 111.7102127075195 Z M 28.36100387573242 25.32007026672363 C 28.36088180541992 25.32007026672363 28.36086082458496 25.32007026672363 28.36084175109863 25.32007026672363 C 24.46625900268555 25.32023239135742 20.81882286071777 23.86466979980469 18.09062194824219 21.22152328491211 C 15.35007762908936 18.56645202636719 13.79278659820557 14.96186923980713 13.70558643341064 11.07181453704834 C 13.6169319152832 7.152342319488525 15.01834964752197 3.437741994857788 17.65169525146484 0.6131057143211365 C 20.29987716674805 -2.227439641952515 23.90582275390625 -3.86278510093689 27.80531311035156 -3.991712331771851 C 27.97296714782715 -3.997257947921753 28.14278602600098 -4.000057697296143 28.31011390686035 -4.000057697296143 C 32.23358535766602 -4.000057697296143 35.91106033325195 -2.498730659484863 38.66505813598633 0.2273420989513397 C 41.43109512329102 2.965305805206299 42.96140289306641 6.638614654541016 42.97409439086914 10.57059669494629 C 42.98696899414062 14.53328800201416 41.52853012084961 18.22352409362793 38.86745834350586 20.96139717102051 C 36.19623947143555 23.70972442626953 32.55073165893555 25.25697898864746 28.60245895385742 25.31812477111816 C 28.52405738830566 25.31939506530762 28.4415168762207 25.320068359375 28.36100387573242 25.320068359375 L 28.36100387573242 25.32007026672363 Z" stroke="none" fill="#fff"/>
    </g>
  </g>
</svg>
