<?xml version="1.0" encoding="utf-8"?>
<!-- Generator: Adobe Illustrator 28.0.0, SVG Export Plug-In . SVG Version: 6.00 Build 0)  -->
<svg version="1.1" id="Layer_1" xmlns="http://www.w3.org/2000/svg" xmlns:xlink="http://www.w3.org/1999/xlink" x="0px" y="0px"
	 viewBox="0 0 90 90" style="enable-background:new 0 0 90 90;" xml:space="preserve">
<style type="text/css">
	.st0{fill:#FCD1BA;}
	.st1{fill:#BD8A76;}
	.st2{fill:#8E6A59;}
	.st3{fill:#FAB899;}
	.st4{fill:#B28470;}
	.st5{fill:#866454;}
	.st6{fill:#4D413B;}
	.st7{fill:#FFFFFF;}
	.st8{fill:#9A9C9F;}
	.st9{fill:#919296;}
	.st10{fill:#DCE799;}
	.st11{fill:#4A4546;}
	.st12{fill:#B0C97A;}
	.st13{fill:#FDC76C;}
	.st14{fill:#F9A44C;}
	.st15{fill:#359675;}
	.st16{fill:#00715E;}
	.st17{fill:#005742;}
	.st18{fill:#CC495F;}
	.st19{fill:#354F7B;}
	.st20{fill:#25375C;}
	.st21{fill:#47689E;}
	.st22{fill:#2B4067;}
	.st23{fill:#66453F;}
	.st24{fill:#343133;}
	.st25{fill:#F8AB8D;}
	.st26{fill:#F06D84;}
	.st27{fill:#412A24;}
	.st28{fill:#F26A55;}
	.st29{fill:#56595B;}
	.st30{fill:#ED1E79;}
	.st31{fill:#C41066;}
	.st32{fill:#FBC7AB;}
	.st33{fill:#E6E6C8;}
	.st34{fill:#F0F0F0;}
	.st35{fill:#192878;}
	.st36{fill:#DBDADA;}
	.st37{fill:#192855;}
	.st38{fill:#F7BEA2;}
	.st39{fill:#777777;}
	.st40{fill:#3C2D14;}
	.st41{fill:#4C3E27;}
	.st42{fill:#60503D;}
	.st43{fill:#FFD7BE;}
	.st44{fill:#785039;}
	.st45{fill:#432A14;}
	.st46{fill:#1E1E1E;}
	.st47{fill:#9F2223;}
</style>
<g>
	<g>
		
			<rect x="25.83" y="63.73" transform="matrix(0.4434 -0.8963 0.8963 0.4434 -39.5735 64.8147)" class="st9" width="13.14" height="1.08"/>
		<path class="st30" d="M17.43,83.79c-0.46,0.92-0.08,2.04,0.84,2.49l5.17,2.56c0.92,0.46,2.04,0.08,2.49-0.84l9.96-20.14
			c0.46-0.92,0.08-2.04-0.84-2.49l-5.17-2.56c-0.92-0.45-2.04-0.08-2.49,0.84L17.43,83.79z"/>
		<g>
			<path class="st11" d="M18.75,86.6c-0.57,1.14-0.1,2.53,1.05,3.09c1.14,0.57,2.53,0.1,3.09-1.05c0.57-1.14,0.1-2.53-1.05-3.09
				C20.7,84.99,19.32,85.46,18.75,86.6z"/>
			<path class="st7" d="M20,87.22c-0.22,0.45-0.04,1,0.41,1.22c0.45,0.22,1,0.04,1.23-0.41c0.22-0.45,0.04-1-0.41-1.22
				C20.78,86.58,20.23,86.77,20,87.22z"/>
		</g>
		<path class="st11" d="M34.02,58.14c-0.26,0.53,0.04,1.21,0.67,1.52l0,0c0.63,0.31,1.35,0.13,1.61-0.4l2.68-5.42
			c0.26-0.53-0.04-1.21-0.66-1.52l0,0c-0.63-0.31-1.35-0.13-1.61,0.4L34.02,58.14z"/>
		
			<rect x="18.45" y="72.05" transform="matrix(0.4433 -0.8964 0.8964 0.4433 -49.5696 65.7632)" class="st31" width="19.43" height="1.49"/>
	</g>
	<g>
		<g>
			<rect x="41.22" y="53.88" class="st32" width="3.43" height="33.26"/>
			
				<rect x="47.09" y="53.88" transform="matrix(-1 -1.224647e-16 1.224647e-16 -1 97.6052 141.0208)" class="st32" width="3.43" height="33.26"/>
			<g>
				<rect x="41.14" y="77.84" class="st33" width="3.58" height="9.3"/>
				<rect x="41.14" y="77.84" class="st34" width="3.58" height="0.67"/>
			</g>
			<g>
				<rect x="47.01" y="77.84" class="st33" width="3.58" height="9.3"/>
				<rect x="47.01" y="77.84" class="st34" width="3.58" height="0.67"/>
			</g>
			<path class="st35" d="M45.34,85.03c0-0.21-0.17-0.37-0.37-0.37l0,0l0,0c-0.18,0-0.33,0.12-0.36,0.29l0,0c0,0-0.39,1.26-1.22,1.51
				c-1.39,0.42-1.86-0.58-2.43-0.91c-0.56-0.32-1.34,0.31-1.34,0.31c-2.45,1.66-5.82,2.4-5.82,2.4s-0.83,0.2-0.83,0.63
				c0,0.17,0,0.17,0,0.17h12.37V85.03C45.34,85.03,45.34,85.03,45.34,85.03z"/>
			<path class="st36" d="M32.98,88.88v0.75c0,0.21,0.17,0.37,0.37,0.37h11.62c0.21,0,0.37-0.17,0.37-0.37v-0.75H32.98z"/>
			<path class="st34" d="M35.79,87.68c-1.15,0.39-1.98,0.58-1.98,0.58s-0.83,0.2-0.83,0.63v0.17h2.95
				C36.05,88.4,35.93,87.95,35.79,87.68z"/>
			<path class="st36" d="M39.35,86.03l0.87,0.72l0.24-0.14l-0.88-0.73C39.5,85.93,39.42,85.98,39.35,86.03z"/>
			<path class="st36" d="M39.38,87.06l0.24-0.14l-0.74-0.62c-0.08,0.05-0.16,0.09-0.24,0.14L39.38,87.06z"/>
			<path class="st36" d="M38.56,87.38l0.24-0.14l-0.65-0.54c-0.09,0.04-0.17,0.08-0.26,0.12L38.56,87.38z"/>
			<path class="st36" d="M37.73,87.69l0.24-0.14l-0.59-0.49c-0.09,0.04-0.18,0.08-0.27,0.11L37.73,87.69z"/>
			<path class="st36" d="M36.9,88l0.24-0.14l-0.57-0.47c-0.09,0.04-0.19,0.07-0.28,0.1L36.9,88z"/>
			<rect x="32.98" y="88.88" class="st37" width="12.37" height="0.17"/>
			<path class="st35" d="M46.39,85.03c0-0.21,0.17-0.37,0.37-0.37l0,0l0,0c0.18,0,0.33,0.12,0.36,0.29l0,0c0,0,0.39,1.26,1.22,1.51
				c1.39,0.42,1.86-0.58,2.43-0.91c0.56-0.32,1.34,0.31,1.34,0.31c2.45,1.66,5.82,2.4,5.82,2.4s0.83,0.2,0.83,0.63
				c0,0.17,0,0.17,0,0.17H46.39V85.03C46.39,85.03,46.39,85.03,46.39,85.03z"/>
			<path class="st36" d="M58.76,88.88v0.75c0,0.21-0.17,0.37-0.37,0.37H46.77c-0.21,0-0.37-0.17-0.37-0.37v-0.75H58.76z"/>
			<path class="st34" d="M55.95,87.68c1.15,0.39,1.98,0.58,1.98,0.58s0.83,0.2,0.83,0.63v0.17h-2.95
				C55.69,88.4,55.8,87.95,55.95,87.68z"/>
			<path class="st36" d="M52.39,86.03l-0.87,0.72l-0.24-0.14l0.88-0.73C52.24,85.93,52.31,85.98,52.39,86.03z"/>
			<path class="st36" d="M52.35,87.06l-0.24-0.14l0.74-0.62c0.08,0.05,0.16,0.09,0.24,0.14L52.35,87.06z"/>
			<path class="st36" d="M53.18,87.38l-0.24-0.14l0.65-0.54c0.09,0.04,0.17,0.08,0.26,0.12L53.18,87.38z"/>
			<path class="st36" d="M54.01,87.69l-0.24-0.14l0.59-0.49c0.09,0.04,0.18,0.08,0.27,0.11L54.01,87.69z"/>
			<path class="st36" d="M54.84,88l-0.24-0.14l0.57-0.47c0.09,0.04,0.19,0.07,0.28,0.1L54.84,88z"/>
			
				<rect x="46.39" y="88.88" transform="matrix(-1 -1.224647e-16 1.224647e-16 -1 105.1538 177.9317)" class="st37" width="12.37" height="0.17"/>
		</g>
		<g>
			<polygon class="st35" points="39.83,45.78 40.2,58.35 51.54,58.35 51.91,45.78 			"/>
			<g>
				<g>
					<path class="st38" d="M55.73,51.18c-0.51-0.65-0.98-1.09-1.49-2.13l-0.54,0v0h-0.92v4.84c0,0.25,0.21,0.46,0.46,0.46
						c0.25,0,0.46-0.21,0.46-0.46l0-1.83c0-0.23,0.11-0.23,0.17-0.22c0.54,0.1,0.95,0.69,0.95,1.39c0,0.6-0.3,1.11-0.71,1.31
						c-0.12,0.06-0.51,0.28-0.44,0.66c0.05,0.24,0.17,0.55,0.64,0.55c0.54,0,1.07-0.07,1.42-0.46c0.48-0.53,0.69-1.3,0.69-2.06
						S56.18,51.74,55.73,51.18z"/>
				</g>
				<path class="st38" d="M36,51.18c0.51-0.65,0.98-1.09,1.49-2.13l0.54,0v0h0.92v4.84c0,0.25-0.21,0.46-0.46,0.46
					s-0.46-0.21-0.46-0.46l0-1.83c0-0.23-0.11-0.23-0.17-0.22c-0.54,0.1-0.95,0.69-0.95,1.39c0,0.6,0.3,1.11,0.71,1.31
					c0.12,0.06,0.51,0.28,0.44,0.66c-0.05,0.24-0.17,0.55-0.64,0.55c-0.54,0-1.07-0.07-1.42-0.46c-0.48-0.53-0.69-1.3-0.69-2.06
					S35.56,51.74,36,51.18z"/>
				<polygon class="st7" points="39.38,26.68 39.38,50.24 52.35,50.24 52.35,26.68 48.63,19.97 43.09,19.97 				"/>
			</g>
			<path d="M56.08,51.19l-0.13-24.51c0,0,0.37-4.12-3.73-5.57c-1.16-0.41-1.95-0.67-2.47-0.84l0,0c0,0,0,0,0,0
				c-0.09-0.03-0.18-0.06-0.26-0.08c0,0,0,0,0,0c-0.06-0.02-0.12-0.04-0.17-0.05c0,0-0.01,0-0.01,0c-0.01,0-0.02-0.01-0.03-0.01
				c0,0-0.01,0-0.01,0c-0.01,0-0.02-0.01-0.03-0.01c0,0-0.01,0-0.01,0c-0.02,0-0.03-0.01-0.05-0.01c-0.01,0-0.01,0-0.02-0.01
				c-0.01,0-0.01,0-0.02-0.01c-0.01,0-0.01,0-0.02-0.01c-0.01,0-0.01,0-0.02,0c-0.01,0-0.02,0-0.02-0.01
				c-0.39-0.11-0.42-0.09-0.42-0.09l-1.8,14.49v25.61h5.54v-8.88H56.08z"/>
			<path class="st37" d="M47.44,35.83c0,0.31,0.25,0.56,0.56,0.56c0.31,0,0.56-0.25,0.56-0.56c0-0.31-0.25-0.56-0.56-0.56
				C47.69,35.27,47.44,35.52,47.44,35.83z"/>
			<path class="st39" d="M50.15,30.25c0,0.52,0.43,0.95,0.95,0.95c0.52,0,0.95-0.43,0.95-0.95c0-0.52-0.42-0.95-0.95-0.95
				C50.58,29.3,50.15,29.72,50.15,30.25z"/>
			<path class="st37" d="M47.44,42.04c0,0.31,0.25,0.56,0.56,0.56c0.31,0,0.56-0.25,0.56-0.56c0-0.31-0.25-0.56-0.56-0.56
				C47.69,41.48,47.44,41.73,47.44,42.04z"/>
			<path class="st37" d="M47.44,48.24c0,0.31,0.25,0.56,0.56,0.56c0.31,0,0.56-0.25,0.56-0.56c0-0.31-0.25-0.56-0.56-0.56
				C47.69,47.68,47.44,47.93,47.44,48.24z"/>
			<path class="st38" d="M45.86,18.63c-0.79,0-1.8-0.48-2.77-1.25v3.02c0,1.16,1.24,2.1,2.77,2.1s2.77-0.94,2.77-2.1v-3.02
				C47.65,18.15,46.65,18.63,45.86,18.63z"/>
			<path class="st39" d="M46.85,34.46l1.8-14.49l0.41,0.09c0.16,0.04,0.37,0.11,0.66,0.2l1.38,3.67l-1.49,1.14l1.49,1.02
				L46.85,34.46z"/>
			<path d="M43.09,19.97c0,0-0.03-0.02-0.42,0.09c-0.01,0-0.02,0-0.02,0.01c-0.01,0-0.01,0-0.02,0c-0.01,0-0.01,0-0.02,0.01
				c-0.01,0-0.01,0-0.02,0.01c-0.01,0-0.01,0-0.02,0.01c-0.02,0-0.03,0.01-0.05,0.01c0,0-0.01,0-0.01,0c-0.01,0-0.02,0.01-0.03,0.01
				c0,0-0.01,0-0.01,0c-0.01,0-0.02,0.01-0.03,0.01c0,0-0.01,0-0.01,0c-0.05,0.02-0.11,0.03-0.17,0.05c0,0,0,0,0,0
				c-0.08,0.02-0.17,0.05-0.26,0.08c0,0,0,0,0,0l0,0c-0.53,0.17-1.31,0.43-2.47,0.84c-4.1,1.45-3.73,5.57-3.73,5.57l-0.13,24.51
				h3.69v8.88h5.54V34.46L43.09,19.97z"/>
			<path class="st39" d="M44.89,34.46l-1.8-14.49l-0.41,0.09c-0.16,0.04-0.37,0.11-0.66,0.2l-1.38,3.67l1.49,1.14l-1.49,1.02
				L44.89,34.46z"/>
		</g>
		<g>
			<path class="st40" d="M52.74,8.73l0.25-2.5c0-2.22-1.48-3.8-2.69-4.88c0,0-1.31-0.84-1.75-0.22c0,0-0.1,1.32-1.08,2.68
				c0.18,0.19,0.9,0.95,1.78,1.47c1.07,0.63,1.66,1.35,1.71,2.36c0.06,1.01,0.38,1.89,1.1,1.76"/>
			<path class="st41" d="M45.86,0c-3.09,0.05-5.66,2.26-6.13,5.22l0.03-0.01c-0.75,0.81-1.34,2-1.44,3.61
				c-0.68,1.53-0.52,3.2-0.2,4.85c0.39,2.04-0.08,3.22-0.85,5.39c-1.11,3.15,2.51,5.78,2.51,5.78c-1.74-2.6-0.62-5.71-0.62-5.71
				c1.55-3.83,1.03-3.05,1.17-7.34c0.13-4.03,1.39-4.5,4.44-5.84c3.52-1.55,3.78-4.83,3.78-4.83S48.55-0.04,45.86,0z"/>
			<g>
				<path class="st41" d="M50.43,18.79c0,0,1-1.41-0.2-3.01c0,0,0.01-0.01,0.01-0.01c-0.49,0.61-1.05,1.16-1.61,1.61v2.6
					c0,0,0.06-0.03,1.03,0.28C49.76,19.78,50.07,19.42,50.43,18.79z"/>
			</g>
			<path class="st42" d="M40.21,16.05c-0.13,0.7-0.41,1.49-1.06,3.09c0,0-0.14,0.37-0.24,0.97c0.06,0.22,0.12,0.48,0.21,0.81
				c0.51,1.98,3.22,3.24,3.22,3.24C39.92,21,40.21,16.13,40.21,16.05z"/>
			<g>
				<path class="st43" d="M50.96,7.64c-0.06-1.01-0.64-1.73-1.71-2.36c-0.88-0.52-1.6-1.28-1.78-1.47c0.01-0.02,0.03-0.04,0.04-0.06
					c-0.56,0.8-1.42,1.63-2.74,2.21c-3.05,1.34-4.31,1.82-4.44,5.84c-0.03,0.9-0.03,1.58-0.03,2.12l0,0.01
					c1.22,2.53,3.87,4.7,5.55,4.7c2.24,0,6.21-3.85,6.21-7.28V9.4C51.34,9.53,51.02,8.65,50.96,7.64z"/>
			</g>
			<g>
				<g>
					<g>
						<circle class="st44" cx="42.98" cy="10.52" r="0.67"/>
						<circle class="st45" cx="42.98" cy="10.52" r="0.34"/>
						<circle class="st7" cx="43.18" cy="10.25" r="0.11"/>
					</g>
					<circle class="st44" cx="48.74" cy="10.52" r="0.67"/>
					<circle class="st45" cx="48.74" cy="10.52" r="0.34"/>
					<circle class="st7" cx="48.94" cy="10.25" r="0.11"/>
					<g>
						<path class="st46" d="M44.26,14.62c0,0.94,0.34,1.77,1.64,1.77c1.82,0,1.58-1.77,1.58-1.77H44.26z"/>
						<path class="st47" d="M47.26,15.72c-0.27-0.26-0.72-0.43-1.42-0.43c-0.69,0-1.11,0.17-1.36,0.4c0.23,0.42,0.66,0.7,1.41,0.7
							C46.65,16.39,47.05,16.08,47.26,15.72z"/>
						<path class="st7" d="M45.89,15.16c0.76,0,1.16-0.18,1.37-0.54h-2.77C44.73,15.02,45.15,15.16,45.89,15.16z"/>
					</g>
				</g>
				<path class="st38" d="M45.28,10.22l-0.26,2.53c-0.07,0.55,0.38,0.73,0.84,0.73s0.84-0.22,0.84-0.68v-0.32L45.28,10.22z"/>
			</g>
			<path class="st38" d="M53.41,9.4c0-0.37-0.3-0.67-0.67-0.67c-0.37,0-0.67,0.3-0.67,0.67l-0.05,2.6c0,0.25,0.25,0.54,0.49,0.54
				c0.21,0,0.38-0.14,0.43-0.33l0,0l0,0C52.95,12.17,53.41,9.47,53.41,9.4z"/>
			<path class="st41" d="M43.49,9.05c-0.33-0.15-0.74-0.15-1.01-0.01c-0.16,0.09-0.37,0.02-0.45-0.14C41.94,8.74,42,8.53,42.16,8.45
				c0.46-0.24,1.07-0.25,1.6-0.01C43.77,8.44,43.5,9.05,43.49,9.05z"/>
			<path class="st41" d="M49.39,9.08c-0.05,0-0.09-0.01-0.14-0.03c-0.33-0.15-1.01-0.01-1.01-0.01s-0.32-0.59-0.31-0.59
				C48.39,8.2,49,8.2,49.53,8.44c0.17,0.08,0.24,0.27,0.17,0.44C49.64,9.01,49.52,9.08,49.39,9.08z"/>
			<g>
				<path class="st40" d="M40.72,20.7c2.28-0.78,2.37-0.73,2.37-0.73v-2.6c0.01,0,0.01,0.01,0.02,0.01c-1.1-0.87-2.15-2.11-2.8-3.46
					c0,0,0,0,0-0.01c0.01,0.97-0.09,1.58-0.09,2.13c0,0,0,0,0,0C40.21,16.11,40.08,18.3,40.72,20.7z"/>
			</g>
			<path class="st40" d="M52.8,12.42L52.8,12.42c-0.08,0.07-0.18,0.11-0.29,0.11c-0.25,0-0.49-0.29-0.49-0.54
				c-0.18,1.32-0.88,2.65-1.79,3.78c1.19,1.6,0.2,3.01,0.2,3.01c-0.71,1.27-1.22,1.45-0.34,3.54c0.29,0.7,0.37,1.47-0.46,2.76
				c0,0,2.62,0.85,2.43-3.48c-0.12-2.63,0.99-1.8,1.15-4.32C53.34,15.37,52.65,14.6,52.8,12.42z"/>
		</g>
	</g>
</g>
</svg>
