<svg xmlns="http://www.w3.org/2000/svg" xmlns:xlink="http://www.w3.org/1999/xlink" width="843" height="1379" viewBox="0 0 843 1379">
  <defs>
    <filter id="사각형_913" x="2" y="2" width="839" height="1372" filterUnits="userSpaceOnUse">
      <feOffset dx="20" dy="30" input="SourceAlpha"/>
      <feGaussianBlur stdDeviation="25" result="blur"/>
      <feFlood flood-color="#28292e" flood-opacity="0.51"/>
      <feComposite operator="in" in2="blur"/>
      <feComposite in="SourceGraphic"/>
    </filter>
    <filter id="사각형_1098" x="0" y="0" width="843" height="1379" filterUnits="userSpaceOnUse">
      <feOffset dx="20" dy="30" input="SourceAlpha"/>
      <feGaussianBlur stdDeviation="25" result="blur-2"/>
      <feFlood flood-color="#28292e" flood-opacity="0.51"/>
      <feComposite operator="in" in2="blur-2"/>
      <feComposite in="SourceGraphic"/>
    </filter>
    <clipPath id="clip-path">
      <rect id="사각형_1303" data-name="사각형 1303" width="378" height="48.867" fill="#babbc5"/>
    </clipPath>
  </defs>
  <g id="intro_event_689-1225" transform="translate(-572.014 45.384)">
    <g transform="matrix(1, 0, 0, 1, 572.01, -45.38)" filter="url(#사각형_913)">
      <rect id="사각형_913-2" data-name="사각형 913" width="689" height="1222" rx="25" transform="translate(57 47)" fill="#fff"/>
    </g>
    <g transform="matrix(1, 0, 0, 1, 572.01, -45.38)" filter="url(#사각형_1098)">
      <g id="사각형_1098-2" data-name="사각형 1098" transform="translate(57 47)" fill="#efeff6" stroke="#fff" stroke-width="2">
        <rect width="689" height="1225" stroke="none"/>
        <rect x="-1" y="-1" width="691" height="1227" fill="none"/>
      </g>
    </g>
    <rect id="사각형_1398" data-name="사각형 1398" width="689" height="1225" transform="translate(629.014 1.616)" fill="#efeff6"/>
    <g id="그룹_1258" data-name="그룹 1258" transform="translate(780.014 562.749)">
      <path id="패스_2712" data-name="패스 2712" d="M148.469,1.613,92.744,36.141V1.613H85.214V48.563l34.309-21.886L150.885,46.52h13.059l-38.23-23.41,35.7-21.5Z" transform="translate(16.068 0.304)" fill="#babbc5"/>
      <path id="패스_2713" data-name="패스 2713" d="M46.381,0,0,46.824H10.015L46.335,9.705,82.653,46.824H92.675Z" transform="translate(0 0)" fill="#babbc5"/>
      <g id="그룹_1257" data-name="그룹 1257" transform="translate(0 0)">
        <g id="그룹_1256" data-name="그룹 1256" clip-path="url(#clip-path)">
          <path id="패스_2714" data-name="패스 2714" d="M167.832,10.094V34.785h4.9V26.307h14.024c3.052,0,5.444-.689,7.117-2.038a7.447,7.447,0,0,0,2.621-6.074,7.514,7.514,0,0,0-2.472-5.874,9.388,9.388,0,0,0-6.523-2.227Zm19.82,4.337a3.765,3.765,0,1,1,0,7.528h-14.92V14.431Z" transform="translate(31.647 1.903)" fill="#babbc5"/>
          <path id="패스_2715" data-name="패스 2715" d="M199.662,10.094V34.785h24.32V30.437H204.559V10.094Z" transform="translate(37.649 1.903)" fill="#babbc5"/>
          <path id="패스_2716" data-name="패스 2716" d="M239.7,10.094,226.082,34.785h5.586L242.91,14.247l11.18,20.538h5.623L246.09,10.094Z" transform="translate(42.631 1.903)" fill="#babbc5"/>
          <path id="패스_2717" data-name="패스 2717" d="M303.358,10.094l-13.62,24.691h5.587l11.24-20.538,11.18,20.538h5.621L309.749,10.094Z" transform="translate(54.634 1.903)" fill="#babbc5"/>
          <path id="패스_2718" data-name="패스 2718" d="M262.662,10.094v4.364h18.574L262.367,31.094v3.69h27.785V30.43H270.421l18.867-16.645V10.094Z" transform="translate(49.473 1.903)" fill="#babbc5"/>
        </g>
      </g>
    </g>
  </g>
</svg>
