<svg xmlns="http://www.w3.org/2000/svg" width="80" height="80" viewBox="0 0 80 80">
  <g id="menu_ico_4" transform="translate(-228.455 -1641)">
    <path id="패스_1985" data-name="패스 1985" d="M-3581.194-1302.25h-29.668l-2.009,32.605h36.049l-1.723-32.605h-4.3" transform="translate(3861 2972.183)" fill="#3f4564"/>
    <g id="패스_2744" data-name="패스 2744" transform="translate(257.079 1653)" fill="none">
      <path d="M9.237,0a9.237,9.237,0,0,1,9.237,9.237V27.79A9.237,9.237,0,0,1,0,27.79V9.237A9.237,9.237,0,0,1,9.237,0Z" stroke="none"/>
      <path d="M 9.236896514892578 3.500003814697266 C 6.073556900024414 3.500003814697266 3.499996185302734 6.073562622070313 3.499996185302734 9.236892700195313 L 3.499996185302734 27.78953170776367 C 3.499996185302734 30.95286178588867 6.073556900024414 33.52642059326172 9.236896514892578 33.52642059326172 C 12.40023612976074 33.52642059326172 14.97379684448242 30.95286178588867 14.97379684448242 27.78953170776367 L 14.97379684448242 9.236892700195313 C 14.97379684448242 6.073562622070313 12.40023612976074 3.500003814697266 9.236896514892578 3.500003814697266 M 9.236896514892578 3.814697265625e-06 C 14.33829689025879 3.814697265625e-06 18.47379684448242 4.135501861572266 18.47379684448242 9.236892700195313 L 18.47379684448242 27.78953170776367 C 18.47379684448242 32.89092254638672 14.33829689025879 37.02642059326172 9.236896514892578 37.02642059326172 C 4.135496139526367 37.02642059326172 -3.814697265625e-06 32.89092254638672 -3.814697265625e-06 27.78953170776367 L -3.814697265625e-06 9.236892700195313 C -3.814697265625e-06 4.135501861572266 4.135496139526367 3.814697265625e-06 9.236896514892578 3.814697265625e-06 Z" stroke="none" fill="#3f4564"/>
    </g>
    <rect id="사각형_1377" data-name="사각형 1377" width="80" height="80" transform="translate(228.455 1641)" fill="none"/>
  </g>
</svg>
