<svg xmlns="http://www.w3.org/2000/svg" width="80" height="80" viewBox="0 0 80 80">
  <g id="menu_ico_1" transform="translate(11.932 27.267)">
    <path id="패스_2740" data-name="패스 2740" d="M38.084,10.791c-2.088,0-4.873-.016-6.5-.029V21.535l-4.04.015c-2.074,0-4.841-.018-6.456-.029V32.265H10.6v10.67H0v3.32H13.776V35.495H24.322V24.742H34.876V14.071H45.364V3.23h9.9V0H42.138V10.766Z" transform="translate(-3.043 -2.961)" fill="#3f4564"/>
    <path id="빼기_4" data-name="빼기 4" d="M10.81,30.6v0L8.892,27.533c-.756-1.21-1.707-2.551-2.625-3.849C3.328,19.531,0,14.825,0,10.807a10.808,10.808,0,0,1,21.616,0c0,4.018-3.327,8.721-6.263,12.871l-.031.044c-.955,1.35-1.856,2.626-2.6,3.811L10.812,30.6Zm0-23.215a3.406,3.406,0,1,0,3.407,3.4A3.408,3.408,0,0,0,10.807,7.387Z" transform="translate(5.977 -15.23)" fill="#3f4564"/>
    <rect id="사각형_1375" data-name="사각형 1375" width="80" height="80" transform="translate(-11.932 -27.267)" fill="none"/>
  </g>
</svg>
