<svg xmlns="http://www.w3.org/2000/svg" width="80" height="80" viewBox="0 0 80 80">
  <g id="menu_ico_5" transform="translate(23.652 16.795)">
    <path id="패스_2742" data-name="패스 2742" d="M12.289,36.057V28.335a5.136,5.136,0,0,1,1.564-4.2c1.885-1.456,4.27-3.289,4.732-3.624L19,20.181c1.613-1.257,4.05-3.155,4.05-7.249,0-4.491-3.582-7.627-8.712-7.627A9.177,9.177,0,0,0,7.981,7.679a8.184,8.184,0,0,0-2.529,6.032L5.4,16.472H0V14.566C0,5.989,5.944,0,14.454,0c9.335,0,14.475,5.05,14.475,14.222a9.093,9.093,0,0,1-2.968,6.92c-.035.029-4.866,3.985-6.073,4.906a5.961,5.961,0,0,0-2.642,5.15v4.858Z" transform="translate(1)" fill="#3f4564"/>
    <rect id="사각형_1346" data-name="사각형 1346" width="4.957" height="5.364" transform="translate(13.289 39.738)" fill="#3f4564"/>
    <rect id="사각형_1378" data-name="사각형 1378" width="80" height="80" transform="translate(-23.652 -16.795)" fill="none"/>
  </g>
</svg>
