<svg xmlns="http://www.w3.org/2000/svg" width="80" height="80" viewBox="0 0 80 80">
  <g id="menu_ico_3" transform="translate(20.128 12.083)">
    <g id="그룹_1825" data-name="그룹 1825">
      <path id="패스_2746" data-name="패스 2746" d="M249.666,56.506V30.7c-2.908-2.565-3.937-7.423-3.915-13.02A28.238,28.238,0,0,1,251.685.915c.885-1.117,2.99-1.475,2.99.459V56.506" transform="translate(-221.705 0)" fill="#FFFFFF"/>
      <path id="패스_2747" data-name="패스 2747" d="M14.919,10.852a1.136,1.136,0,0,0-1.245-.993,1.144,1.144,0,0,0-1.245.993V24.172a.764.764,0,0,1-.834.665.764.764,0,0,1-.834-.665v-.665h.012V10.852a1.144,1.144,0,0,0-1.245-.993,1.136,1.136,0,0,0-1.245.993V24.192a.76.76,0,0,1-.822.655.747.747,0,0,1-.809-.655V10.852A1.144,1.144,0,0,0,5.4,9.859a1.144,1.144,0,0,0-1.245.993V24.182a.764.764,0,0,1-.834.665.764.764,0,0,1-.834-.665V10.852a1.144,1.144,0,0,0-1.245-.993A1.144,1.144,0,0,0,0,10.852V25.418a6.86,6.86,0,0,0,5.049,6.127V65.6h5.03V31.538a6.653,6.653,0,0,0,4.829-6.12v-.193c0-.044.011-.086.011-.13Z" transform="translate(0 -9.09)" fill="#FFFFFF"/>
      <rect id="사각형_1376" data-name="사각형 1376" width="80" height="80" transform="translate(-20.128 -12.083)" fill="none"/>
    </g>
  </g>
</svg>
