<svg xmlns="http://www.w3.org/2000/svg" width="60" height="60" viewBox="0 0 60 60">
  <g id="popup_ico_location_o" transform="translate(8.414 14.973)">
    <rect id="사각형_374" data-name="사각형 374" width="60" height="60" transform="translate(-8.414 -14.973)" fill="none"/>
    <path id="빼기_6" data-name="빼기 6" d="M12.308,34.6h0l-2.182-3.466c-.852-1.353-1.89-2.81-2.988-4.352C3.792,22.085,0,16.762,0,12.217a12.1,12.1,0,0,1,3.6-8.64,12.37,12.37,0,0,1,17.405,0,12.1,12.1,0,0,1,3.6,8.64c0,4.545-3.791,9.867-7.137,14.563-1.1,1.542-2.137,3-2.988,4.352L12.309,34.6Zm0-26.249A3.851,3.851,0,1,0,16.186,12.2,3.869,3.869,0,0,0,12.307,8.351Z" transform="translate(9.278 -2.936)" fill="#fff"/>
  </g>
</svg>
