<svg xmlns="http://www.w3.org/2000/svg" width="97.565" height="145.855" viewBox="0 0 97.565 145.855">
  <g id="그룹_157" data-name="그룹 157" transform="translate(0.5 20.624)">
    <g id="그룹_158" data-name="그룹 158" transform="translate(0 -20)">
      <path id="패스_115" data-name="패스 115" d="M0,34.005c.967-2.348,1.716-2.835,4.389-2.836H92.175c3.275,0,4.371,1.109,4.371,4.426q0,50.011.018,100.021c0,2.018-.535,3.587-2.513,4.405H2.542A4.317,4.317,0,0,1,0,137.195Zm90.015,3.722H6.577v95.79H90.015Z" transform="translate(0 4.71)" fill="#414141" stroke="#fff" stroke-width="1"/>
      <path id="패스_116" data-name="패스 116" d="M0,123.276A4.317,4.317,0,0,0,2.542,126.1H0Z" transform="translate(0 18.629)" fill="#414141" stroke="#fff" stroke-width="1"/>
      <path id="패스_117" data-name="패스 117" d="M27.958,7.7c-4.4,4.418-8.677,8.723-12.965,13.019a10.037,10.037,0,0,1-1.376,1.205A3.134,3.134,0,0,1,9.292,17.5a9.051,9.051,0,0,1,1.019-1.165Q17.643,8.979,24.983,1.641C27.123-.5,28.8-.512,30.907,1.595q7.492,7.487,14.97,14.99c1.475,1.481,1.775,2.9.974,4.3a3.077,3.077,0,0,1-4.368,1.141,8.8,8.8,0,0,1-1.5-1.275c-4.295-4.289-8.577-8.59-13.028-13.051" transform="translate(1.31 0.004)" fill="#414141" stroke="#fff" stroke-width="1"/>
      <path id="패스_118" data-name="패스 118" d="M61.015,14.832C65.434,10.4,69.719,6.1,74.008,1.8,76.077-.275,77.884-.555,79.4.954s1.219,3.32-.848,5.39q-7.29,7.3-14.585,14.587c-2.155,2.153-3.754,2.156-5.9.008Q50.615,13.5,43.184,6.045C41.585,4.439,41.3,3,42.231,1.521A3.031,3.031,0,0,1,46.4.46a8.109,8.109,0,0,1,1.514,1.255c4.329,4.322,8.647,8.656,13.1,13.117" transform="translate(6.301 0)" fill="#414141" stroke="#fff" stroke-width="1"/>
      <path id="패스_119" data-name="패스 119" d="M70.8,96.043q0,9.681,0,19.362c0,3.227-1.1,4.332-4.305,4.335q-6.919.009-13.838,0c-2.827-.009-4-1.191-4.007-4.057-.01-13.049-.04-26.1.01-39.147.029-7.58,6-12.765,13.1-11.5,5.391.959,9.011,5.592,9.037,11.649.029,6.453.007,12.907.007,19.362M64.37,113.3V88.448c0-4.1.028-8.2-.01-12.294a4.615,4.615,0,0,0-5.279-4.848c-2.407.273-4,2.292-4,5.148q-.012,17.805,0,35.61c0,.4.061.8.1,1.24Z" transform="translate(7.349 9.799)" fill="#414141" stroke="#fff" stroke-width="1"/>
      <path id="패스_120" data-name="패스 120" d="M15.953,95.925c0-7.064-.161-14.133.052-21.191.166-5.452,5.183-9.844,10.785-9.91a11,11,0,0,1,10.972,9.582,30.452,30.452,0,0,1,.189,3.238q.019,18.795.008,37.591c0,3.487-1.033,4.508-4.553,4.509-4.518,0-9.036.01-13.553,0-2.879-.009-4.014-1.133-4.022-4.031-.018-6.595-.006-13.189-.006-19.784h.128M31.511,113.3v-1.647q0-15.046,0-30.091c0-1.979.046-3.959-.029-5.933a4.588,4.588,0,0,0-3.658-4.288,4.538,4.538,0,0,0-5.164,2.748,7.113,7.113,0,0,0-.412,2.48q-.038,17.731-.014,35.461c0,.4.061.808.1,1.271Z" transform="translate(2.391 9.796)" fill="#414141" stroke="#fff" stroke-width="1"/>
      <path id="패스_121" data-name="패스 121" d="M27.051,44.376a11.046,11.046,0,1,1-11,11.111,11.111,11.111,0,0,1,11-11.111M27.1,60.014a4.643,4.643,0,0,0,4.625-4.549,4.637,4.637,0,1,0-9.272-.125A4.654,4.654,0,0,0,27.1,60.014" transform="translate(2.426 6.706)" fill="#414141" stroke="#fff" stroke-width="1"/>
      <path id="패스_122" data-name="패스 122" d="M70.946,55.594a11.035,11.035,0,1,1-10.723-11.2,11.1,11.1,0,0,1,10.723,11.2M59.87,60.01a4.648,4.648,0,0,0,4.7-4.619,4.628,4.628,0,0,0-9.254-.124A4.612,4.612,0,0,0,59.87,60.01" transform="translate(7.386 6.707)" fill="#414141" stroke="#fff" stroke-width="1"/>
    </g>
  </g>
</svg>
