<svg xmlns="http://www.w3.org/2000/svg" width="232" height="97" viewBox="0 0 232 97">
  <g id="popup_bt_wayfinding" transform="translate(-294 -1561.188)">
    <path id="패스_2146" data-name="패스 2146" d="M0,0H232V97H0Z" transform="translate(294 1561.188)" fill="#656a82"/>
    <g id="popup_ico_wayfinding" transform="translate(-24.922 211.188)">
      <path id="패스_395" data-name="패스 395" d="M20.134,15.1H0V13.361H20.134a2.406,2.406,0,0,0,0-4.812H16.857a4.149,4.149,0,0,1,0-8.3L36.733.105V1.849l-19.876.145a2.406,2.406,0,0,0,0,4.812h3.278a4.149,4.149,0,0,1,0,8.3Z" transform="translate(338.298 1403.33)" fill="#fff"/>
      <rect id="사각형_243" data-name="사각형 243" width="24.886" height="31.931" transform="translate(361.047 1367.869)" fill="none"/>
      <rect id="popup_ico_wayfinding-2" data-name="popup_ico_wayfinding" width="60" height="60" transform="translate(331.922 1368)" fill="none"/>
      <path id="빼기_5" data-name="빼기 5" d="M10.808,30.6h0L8.892,27.534c-.748-1.2-1.658-2.483-2.622-3.846C3.331,19.533,0,14.826,0,10.805A10.807,10.807,0,0,1,18.45,3.164a10.736,10.736,0,0,1,3.165,7.642c0,4.02-3.329,8.727-6.267,12.88-.965,1.364-1.876,2.652-2.624,3.849L10.809,30.6Zm0-23.215a3.406,3.406,0,1,0,3.406,3.407A3.41,3.41,0,0,0,10.807,7.385Z" transform="translate(364.223 1374.037)" fill="#fff"/>
    </g>
  </g>
</svg>
