<svg id="Finding_a_way" data-name="Finding a way" xmlns="http://www.w3.org/2000/svg" width="78" height="78" viewBox="0 0 78 78">
  <g id="그룹_178" data-name="그룹 178" transform="translate(-438 -16107)">
    <path id="패스_127" data-name="패스 127" d="M71.188,3H61.494a16.549,16.549,0,0,0-16.5,16.5c0,9.075,5.2,16.5,14.279,16.5h3.078c9.074,0,14.279,7.425,14.279,16.5A16.549,16.549,0,0,1,60.13,69H21.5" transform="translate(436.252 16110)" fill="none" stroke="#414141" stroke-linecap="round" stroke-linejoin="round" stroke-width="3" stroke-dasharray="5 10"/>
    <path id="패스_128" data-name="패스 128" d="M16.748,0A16.732,16.732,0,0,0,0,16.747a12.813,12.813,0,0,0,.709,3.771,35.206,35.206,0,0,0,2,4.785A89.623,89.623,0,0,0,8.955,35.711c3.022,4.428,6.075,8.343,7.793,10.483,1.718-2.14,4.77-6.054,7.793-10.483A89.624,89.624,0,0,0,30.789,25.3a35.205,35.205,0,0,0,2-4.785,12.813,12.813,0,0,0,.709-3.771A16.732,16.732,0,0,0,16.748,0" transform="translate(441 16132.807)" fill="#456adb"/>
    <path id="패스_129" data-name="패스 129" d="M28.086,19.494a8.592,8.592,0,1,1-8.592,8.592,8.592,8.592,0,0,1,8.592-8.592" transform="translate(429.816 16121.151)" fill="#fff"/>
  </g>
  <rect id="사각형_125" data-name="사각형 125" width="78" height="78" fill="none"/>
</svg>
