<svg xmlns="http://www.w3.org/2000/svg" width="232" height="97" viewBox="0 0 232 97">
  <g id="popup_bt_wayfinding" transform="translate(-294 -1561.188)">
    <path id="패스_2146" data-name="패스 2146" d="M0,0H232V97H0Z" transform="translate(294 1561.188)" fill="#fff"/>
    <g id="popup_ico_wayfinding" transform="translate(-24.922 211.188)" opacity="0.8">
      <path id="패스_395" data-name="패스 395" d="M20.134,15.1H0V13.361H20.134a2.406,2.406,0,0,0,0-4.812H16.857a4.149,4.149,0,0,1,0-8.3L36.733.105V1.849l-19.876.145a2.406,2.406,0,0,0,0,4.812h3.278a4.149,4.149,0,0,1,0,8.3Z" transform="translate(338.298 1403.33)" fill="#3f4564"/>
      <rect id="사각형_243" data-name="사각형 243" width="24.886" height="31.931" transform="translate(361.047 1367.869)" fill="none"/>
      <rect id="popup_ico_wayfinding-2" data-name="popup_ico_wayfinding" width="60" height="60" transform="translate(331.922 1368)" fill="none"/>
      <path id="빼기_5" data-name="빼기 5" d="M10.81,30.6v0L8.892,27.533c-.756-1.21-1.707-2.551-2.625-3.849C3.328,19.531,0,14.825,0,10.807a10.808,10.808,0,0,1,21.616,0c0,4.018-3.327,8.721-6.263,12.871l-.031.044c-.955,1.35-1.856,2.626-2.6,3.811L10.812,30.6Zm0-23.215a3.406,3.406,0,1,0,3.407,3.4A3.408,3.408,0,0,0,10.807,7.387Z" transform="translate(364.223 1374.037)" fill="#3f4564"/>
    </g>
  </g>
</svg>
