<svg id="escalator" xmlns="http://www.w3.org/2000/svg" width="145" height="145" viewBox="0 0 145 145">
  <g id="그룹_152" data-name="그룹 152" transform="translate(7.784 -11.216)">
    <g id="그룹_153" data-name="그룹 153" transform="translate(3.216 21.216)">
      <path id="패스_112" data-name="패스 112" d="M72.3,93.459,44.558,121.2H11.816a9.316,9.316,0,1,1,0-18.632H25.927L83.992,44.5h30.646a9.316,9.316,0,0,1,0,18.633H101.9Z" transform="translate(-2.5 4.002)" fill="none" stroke="#374a81" stroke-linecap="round" stroke-linejoin="round" stroke-width="6"/>
      <path id="패스_113" data-name="패스 113" d="M43.986,80.105V44.039A12.607,12.607,0,0,1,56.593,31.432h0A12.607,12.607,0,0,1,69.2,44.039V54.89" transform="translate(3.923 1.979)" fill="none" stroke="#374a81" stroke-linecap="round" stroke-linejoin="round" stroke-width="6"/>
      <path id="패스_114" data-name="패스 114" d="M69.146,14.9a12.4,12.4,0,1,1-12.4-12.4A12.4,12.4,0,0,1,69.146,14.9Z" transform="translate(3.979 -2.5)" fill="none" stroke="#374a81" stroke-linecap="round" stroke-linejoin="round" stroke-width="6"/>
    </g>
  </g>
  <g id="그룹_177" data-name="그룹 177" transform="translate(-124 -15540)">
    <rect id="사각형_124" data-name="사각형 124" width="145" height="145" transform="translate(124 15540)" fill="none"/>
  </g>
</svg>
