<svg id="그룹_162" data-name="그룹 162" xmlns="http://www.w3.org/2000/svg" width="48.551" height="66.957" viewBox="0 0 48.551 66.957">
  <g id="그룹_164" data-name="그룹 164">
    <path id="패스_123" data-name="패스 123" d="M24.275,0A24.252,24.252,0,0,0,0,24.275a18.573,18.573,0,0,0,1.028,5.466,51.031,51.031,0,0,0,2.895,6.936A129.908,129.908,0,0,0,12.98,51.762c4.381,6.419,8.806,12.094,11.3,15.195,2.49-3.1,6.914-8.776,11.3-15.195a129.908,129.908,0,0,0,9.057-15.084,51.03,51.03,0,0,0,2.895-6.936,18.573,18.573,0,0,0,1.028-5.466A24.252,24.252,0,0,0,24.275,0" fill="#00b783"/>
    <path id="패스_124" data-name="패스 124" d="M31.947,19.494A12.454,12.454,0,1,1,19.494,31.947,12.454,12.454,0,0,1,31.947,19.494" transform="translate(-7.448 -8.132)" fill="#fff"/>
  </g>
</svg>
