<svg xmlns="http://www.w3.org/2000/svg" width="56.374" height="56" viewBox="0 0 56.374 56">
  <g id="ico_replay" transform="translate(0.374)">
    <rect id="사각형_130" data-name="사각형 130" width="56" height="56" fill="none"/>
    <g id="그룹_9464" data-name="그룹 9464" transform="translate(22352 2384)">
      <path id="패스_804" data-name="패스 804" d="M74.609,152.762l-3.537-6.171a1.08,1.08,0,0,0-1.383-.447l-6.477,2.934a1.081,1.081,0,0,0,.893,1.969l4.222-1.912a21.344,21.344,0,0,1-40.75-.89,1.081,1.081,0,0,0-2.077.6,23.509,23.509,0,0,0,44.9.918l2.335,4.074a1.08,1.08,0,0,0,1.874-1.074" transform="translate(-22372.055 -2499.799)" fill="#fff" stroke="#fff" stroke-width="2.5"/>
      <path id="패스_805" data-name="패스 805" d="M5.718,19.345l6.6-3.518A1.081,1.081,0,0,0,11.3,13.919L6.864,16.284a21.349,21.349,0,0,1,40.186.03,1.081,1.081,0,1,0,2.034-.73,23.51,23.51,0,0,0-44.325.17l-2.778-4.2a1.08,1.08,0,0,0-1.8,1.192l4.129,6.24a1.082,1.082,0,0,0,1.41.358" transform="translate(-22351 -2379)" fill="#fff" stroke="#fff" stroke-width="2.5"/>
    </g>
  </g>
</svg>
