<svg xmlns="http://www.w3.org/2000/svg" width="40" height="40" viewBox="0 0 40 40">
  <g id="store_list_ico_location_o" transform="translate(-3.011 0.404)">
    <circle id="타원_103" data-name="타원 103" cx="20" cy="20" r="20" transform="translate(3.011 -0.404)" fill="#70748d"/>
    <g id="popup_ico_location" transform="translate(0.425 4.569)">
      <path id="빼기_6" data-name="빼기 6" d="M7.309,20.6h0l-1.3-2.065c-.511-.814-1.154-1.718-1.775-2.591C2.25,13.148,0,9.981,0,7.275A7.213,7.213,0,0,1,2.141,2.13,7.315,7.315,0,0,1,14.616,7.275c0,2.7-2.25,5.871-4.235,8.665l-.021.03c-.646.909-1.255,1.768-1.756,2.566L7.31,20.6Zm0-15.629a2.293,2.293,0,1,0,2.3,2.292A2.3,2.3,0,0,0,7.307,4.973Z" transform="translate(15.278 5.064)" fill="#fff"/>
    </g>
  </g>
</svg>
