<svg xmlns="http://www.w3.org/2000/svg" xmlns:xlink="http://www.w3.org/1999/xlink" width="75" height="75" viewBox="0 0 75 75">
  <defs>
    <clipPath id="clip-path">
      <rect id="사각형_1420" data-name="사각형 1420" width="40.159" height="28.611" fill="#fff"/>
    </clipPath>
  </defs>
  <g id="strore_category_bt_8_o" transform="translate(-353 -1378)">
    <rect id="사각형_1413" data-name="사각형 1413" width="75" height="75" transform="translate(353 1378)" fill="none"/>
    <path id="패스_2964" data-name="패스 2964" d="M27.5,0A27.5,27.5,0,1,1,0,27.5,27.5,27.5,0,0,1,27.5,0Z" transform="translate(363 1385)" fill="#2d3552"/>
    <g id="그룹_1914" data-name="그룹 1914" transform="translate(371.11 1399.426)">
      <g id="그룹_1913" data-name="그룹 1913" clip-path="url(#clip-path)">
        <path id="패스_2965" data-name="패스 2965" d="M40.047,163.362a1.723,1.723,0,0,1,1.147.44l.642-3.475H26.027a.657.657,0,0,0-.657.657v6.47a.657.657,0,0,0,.657.654h1.834a.656.656,0,0,0,.654-.654v-2.309h8.263a1.729,1.729,0,0,1,1.731-1.784Z" transform="translate(-22.683 -143.347)" fill="#fff"/>
        <path id="패스_2966" data-name="패스 2966" d="M19.286,86.312l.085-.463a2.734,2.734,0,0,1,2.688-2.237h6.5l1.621-3.722a4.583,4.583,0,0,0-.863-.324,50.763,50.763,0,0,0-12.03-1.216,50.764,50.764,0,0,0-12.03,1.216,3.523,3.523,0,0,0-1.939,1.189L.808,84.213A4.334,4.334,0,0,0,0,86.7v4.026a.525.525,0,0,0,.522.525h.919a.528.528,0,0,0,.525-.525V87.69a1.38,1.38,0,0,1,1.378-1.378Z" transform="translate(0 -70.052)" fill="#fff"/>
        <path id="패스_2967" data-name="패스 2967" d="M41.816,8.394V6.689A1.553,1.553,0,0,1,43,5.086a17.1,17.1,0,0,1,6.953,0,1.552,1.552,0,0,1,1.183,1.6v.895c.333-.006.669-.009,1-.009s.669,0,1.006.009V6.689a1.55,1.55,0,0,1,1.18-1.6,17.1,17.1,0,0,1,6.953,0,1.553,1.553,0,0,1,1.18,1.6V8.394c.639.12,1.276.258,1.894.423a5.475,5.475,0,0,1,.949.348V1.837A1.843,1.843,0,0,0,63.459,0H40.81a1.841,1.841,0,0,0-1.834,1.837V9.166a5.362,5.362,0,0,1,.946-.348c.619-.165,1.255-.3,1.894-.423" transform="translate(-34.848)" fill="#fff"/>
        <path id="패스_2968" data-name="패스 2968" d="M167.407,66.236H165.87a.681.681,0,0,0-.653.515,3.16,3.16,0,0,1-.788,1.314l-1.9-10.321,1.654,1.113a.829.829,0,0,0,.463.141h1.56a.858.858,0,0,0,.576-.209.828.828,0,0,0,.257-.808l-.815-3.506a2.946,2.946,0,0,0-.221-.624l1.483-2.586a.19.19,0,0,0-.065-.256l-.768-.476a.19.19,0,0,0-.205,0l-2.559,1.706a2.927,2.927,0,0,0-.541-.052h-1.87a1.518,1.518,0,0,0-1.392.912l-2.909,6.678h-7.192a1.675,1.675,0,0,0-1.647,1.37l-1.328,7.189a3.439,3.439,0,0,1-1.069-1.591.679.679,0,0,0-.652-.513h-1.537a.67.67,0,0,0-.666.768c.295,1.87,1.667,3.552,3.939,4.8a19.613,19.613,0,0,0,17.112,0c2.271-1.247,3.644-2.929,3.939-4.8a.67.67,0,0,0-.666-.768m-11.829,4.686a16.235,16.235,0,0,1-6.138-1.111c.415-2.355,2.916-4.171,5.931-4.171,3.08,0,5.624,1.9,5.955,4.324a16.577,16.577,0,0,1-5.749.958" transform="translate(-127.922 -45.156)" fill="#fff"/>
      </g>
    </g>
  </g>
</svg>
