<svg xmlns="http://www.w3.org/2000/svg" xmlns:xlink="http://www.w3.org/1999/xlink" width="76" height="76" viewBox="0 0 76 76">
  <defs>
    <filter id="타원_169" x="0" y="0" width="76" height="76" filterUnits="userSpaceOnUse">
      <feOffset dy="3" input="SourceAlpha"/>
      <feGaussianBlur stdDeviation="3.5" result="blur"/>
      <feFlood flood-color="#242b4d" flood-opacity="0.169"/>
      <feComposite operator="in" in2="blur"/>
      <feComposite in="SourceGraphic"/>
    </filter>
    <clipPath id="clip-path">
      <rect id="사각형_1408" data-name="사각형 1408" width="27.737" height="28.43" fill="#9397a6"/>
    </clipPath>
  </defs>
  <g id="strore_category_bt_3" transform="translate(-352.5 -1377.5)">
    <rect id="사각형_1413" data-name="사각형 1413" width="75" height="75" transform="translate(353 1378)" fill="none"/>
    <g transform="matrix(1, 0, 0, 1, 352.5, 1377.5)" filter="url(#타원_169)">
      <circle id="타원_169-2" data-name="타원 169" cx="27.5" cy="27.5" r="27.5" transform="translate(10.5 7.5)" fill="#fafafb"/>
    </g>
    <g id="category_strore_3" transform="translate(357.303 1388.88)">
      <g id="그룹_1896" data-name="그룹 1896" transform="translate(23.866 7.838)">
        <g id="그룹_1895" data-name="그룹 1895" transform="translate(0 0)" clip-path="url(#clip-path)">
          <path id="패스_2954" data-name="패스 2954" d="M188.918,12.006a.791.791,0,0,0,.791-.791V7.669a5.544,5.544,0,1,1,11.039,0v3.546a.791.791,0,1,0,1.581,0V7.669A7.69,7.69,0,0,0,195.389.025V0l-.162.011L195.066,0V.025a7.691,7.691,0,0,0-6.939,7.644v3.546a.791.791,0,0,0,.791.791" transform="translate(-181.359)" fill="#9397a6"/>
          <path id="패스_2955" data-name="패스 2955" d="M27.119,222.6l-.794-.436-.814-.448.007.084-1.033-.466-.113-1.45a1.193,1.193,0,0,0-1.189-1.1h-1.22v3.345a1.785,1.785,0,1,1-3.569,0v-3.345H9.343v3.345a1.785,1.785,0,1,1-3.569,0v-3.345H4.554a1.193,1.193,0,0,0-1.189,1.1l-.113,1.45-1.033.466.007-.084-.814.448-.794.436a1.193,1.193,0,0,0-.611,1.169l.722,6.871.683,7.765s-.406.727,1.433.9a1.2,1.2,0,0,0,.294.037H24.6a1.2,1.2,0,0,0,.294-.037c1.84-.173,1.433-.9,1.433-.9l.683-7.765.722-6.871a1.193,1.193,0,0,0-.611-1.169" transform="translate(0 -210.911)" fill="#9397a6"/>
        </g>
      </g>
      <g id="그룹_1898" data-name="그룹 1898" transform="translate(2.337 13.234)">
        <path id="패스_2956" data-name="패스 2956" d="M60.49,20.986h3.22V14.974H60.49Zm3.678-7.156h.686v7.184h.777V21.9h.492l-.755,9.662H58.958L58.2,21.9H58.7v-.883h.651V13.83h.762V10.58a6.78,6.78,0,0,1,2.7-2.443A3.805,3.805,0,0,1,64.169,11Z" transform="translate(-46.24 -8.526)" fill="#9397a6" fill-rule="evenodd"/>
      </g>
    </g>
  </g>
</svg>
