<svg xmlns="http://www.w3.org/2000/svg" width="75" height="75" viewBox="0 0 75 75">
  <g id="strore_category_bt_9_o" transform="translate(-353 -1378)">
    <rect id="사각형_1413" data-name="사각형 1413" width="75" height="75" transform="translate(353 1378)" fill="none"/>
    <circle id="타원_169" data-name="타원 169" cx="27.5" cy="27.5" r="27.5" transform="translate(363 1385)" fill="#2d3552"/>
    <path id="패스_2969" data-name="패스 2969" d="M248.209,34.477v-15.2c-1.826-1.61-2.472-4.66-2.458-8.174A17.728,17.728,0,0,1,249.477.574c.556-.7,1.877-.926,1.877.288V34.477" transform="translate(148.541 1395.196)" fill="#fff"/>
    <path id="패스_2970" data-name="패스 2970" d="M9.367,10.482a.713.713,0,0,0-.782-.623.718.718,0,0,0-.782.623v8.363a.48.48,0,0,1-.524.418.48.48,0,0,1-.524-.418v-.418h.008V10.482a.718.718,0,0,0-.782-.623.713.713,0,0,0-.782.623v8.376a.477.477,0,0,1-.516.411.469.469,0,0,1-.508-.411V10.482a.718.718,0,0,0-.782-.623.718.718,0,0,0-.782.623v8.37a.48.48,0,0,1-.524.418.48.48,0,0,1-.524-.418v-8.37a.718.718,0,0,0-.782-.623A.718.718,0,0,0,0,10.482v9.145a4.307,4.307,0,0,0,3.17,3.847V43.853H6.328V23.47A4.177,4.177,0,0,0,9.36,19.627v-.121c0-.027.007-.054.007-.081Z" transform="translate(379.195 1385.82)" fill="#fff"/>
  </g>
</svg>
