<svg xmlns="http://www.w3.org/2000/svg" width="75" height="75" viewBox="0 0 75 75">
  <g id="strore_category_bt_11_o" transform="translate(-353 -1378)">
    <rect id="사각형_1413" data-name="사각형 1413" width="75" height="75" transform="translate(353 1378)" fill="none"/>
    <path id="패스_2973" data-name="패스 2973" d="M27.5,0A27.5,27.5,0,1,1,0,27.5,27.5,27.5,0,0,1,27.5,0Z" transform="translate(363 1385)" fill="#2d3552"/>
    <g id="그룹_1918" data-name="그룹 1918" transform="translate(374.731 1400.12)">
      <path id="패스_2974" data-name="패스 2974" d="M49.581,9.173a5.09,5.09,0,0,1,1.552.92,2.675,2.675,0,0,1,.624,1.72v3.526H70.249V11.812a2.693,2.693,0,0,1,2.175-2.639s.2-2.651.269-3.657.112-1.8.134-2.367a1.025,1.025,0,0,0-.071-.414,1.1,1.1,0,0,0-.234-.362A1.223,1.223,0,0,0,71.644,2H50.361a1.224,1.224,0,0,0-.878.373,1.1,1.1,0,0,0-.234.362,1.021,1.021,0,0,0-.07.414c.022.57.066,1.361.134,2.367s.157,2.227.269,3.657" transform="translate(-45.233 -1.392)" fill="#fff" stroke="#9397a6" stroke-width="0.3"/>
      <g id="패스_2975" data-name="패스 2975" transform="translate(-45.233 -1.392)" fill="#fff" stroke-miterlimit="10">
        <path d="M 70.39865112304688 15.48828029632568 L 70.2486572265625 15.48828029632568 L 65.43577575683594 15.48828029632568 L 63.40879440307617 15.48828029632568 L 58.59605407714844 15.48828029632568 L 56.56892395019531 15.48828029632568 L 51.75640487670898 15.48828029632568 L 51.60640335083008 15.48828029632568 L 51.60640335083008 15.33827972412109 L 51.60640335083008 13.5751895904541 L 51.60640335083008 11.81209945678711 C 51.60640335083008 11.2201099395752 51.39731597900391 10.64355945587158 51.01765441894531 10.18865966796875 C 50.65781402587891 9.757439613342285 49.5379638671875 9.31682014465332 49.52669525146484 9.312419891357422 L 49.4390754699707 9.278209686279297 L 49.43169403076172 9.184419631958008 C 49.32068252563477 7.76963996887207 49.23006439208984 6.538749694824219 49.1623649597168 5.525929927825928 C 49.09539413452148 4.523679733276367 49.05036544799805 3.725839853286743 49.02853393554688 3.154569864273071 C 49.0220832824707 2.992059946060181 49.04912567138672 2.832219839096069 49.10889434814453 2.679699897766113 C 49.1682243347168 2.528419971466064 49.25761413574219 2.390159845352173 49.37458419799805 2.268709897994995 C 49.50212478637695 2.136259794235229 49.65362548828125 2.032189846038818 49.82486343383789 1.959439873695374 C 49.99603271484375 1.886809825897217 50.17624282836914 1.849999904632568 50.36055374145508 1.849999904632568 L 56.56892395019531 1.849999904632568 L 57.89817428588867 1.849999904632568 L 64.10646057128906 1.849999904632568 L 65.43577575683594 1.849999904632568 L 71.6439208984375 1.849999904632568 C 71.82832336425781 1.849999904632568 72.008544921875 1.886809825897217 72.17957305908203 1.959419846534729 C 72.35084533691406 2.032189846038818 72.50226593017578 2.136279821395874 72.62965393066406 2.268819808959961 C 72.74647521972656 2.390089750289917 72.83587646484375 2.528339862823486 72.895263671875 2.679609775543213 C 72.95504760742188 2.831909894943237 72.98223114013672 2.991679906845093 72.97608184814453 3.154499769210815 C 72.95429229736328 3.725029945373535 72.90922546386719 4.522880077362061 72.84211730957031 5.52593994140625 C 72.77554321289062 6.521080017089844 72.57532501220703 9.157949447631836 72.57331085205078 9.184470176696777 L 72.56464385986328 9.298529624938965 L 72.45236206054688 9.32034969329834 C 71.88233184814453 9.431169509887695 71.36199188232422 9.739560127258301 70.98719787597656 10.18871974945068 C 70.607666015625 10.64346981048584 70.39865112304688 11.21984958648682 70.39865112304688 11.81167030334473 L 70.39865112304688 13.57497978210449 L 70.39865112304688 15.33827972412109 L 70.39865112304688 15.48828029632568 Z" stroke="none"/>
        <path d="M 70.2486572265625 15.33827972412109 L 70.2486572265625 11.81167030334473 C 70.2486572265625 11.1583194732666 70.48292541503906 10.55883979797363 70.87202453613281 10.09261989593506 C 71.26105499267578 9.626399993896484 71.80481719970703 9.293430328369141 72.42374420166016 9.173110008239746 C 72.42374420166016 9.173110008239746 72.62515258789062 6.521899700164795 72.69244384765625 5.515929698944092 C 72.75975799560547 4.509900093078613 72.80442810058594 3.718839883804321 72.82619476318359 3.148839950561523 C 72.83158111572266 3.006109952926636 72.8072509765625 2.865919828414917 72.75564575195312 2.734429836273193 C 72.70404815673828 2.603009939193726 72.62515258789062 2.480359792709351 72.52151489257812 2.372769832611084 C 72.40762329101562 2.254279851913452 72.27069091796875 2.161109924316406 72.12096405029297 2.097489833831787 C 71.97123718261719 2.033929824829102 71.80878448486328 1.99999988079071 71.6439208984375 1.99999988079071 L 50.36055374145508 1.99999988079071 C 50.19577407836914 1.99999988079071 50.0333251953125 2.033929824829102 49.88352584838867 2.097489833831787 C 49.73379516601562 2.161109924316406 49.59671401977539 2.254279851913452 49.48262405395508 2.372769832611084 C 49.37899398803711 2.480359792709351 49.30009460449219 2.603009939193726 49.24855422973633 2.734429836273193 C 49.19702529907227 2.865919828414917 49.17276382446289 3.006109952926636 49.17842483520508 3.148839950561523 C 49.20020294189453 3.718839883804321 49.24480438232422 4.509900093078613 49.31203460693359 5.515929698944092 C 49.37927627563477 6.521899700164795 49.46904373168945 7.742919921875 49.58123397827148 9.172689437866211 C 49.58123397827148 9.172689437866211 50.74365615844727 9.626190185546875 51.1328125 10.09255027770996 C 51.5219841003418 10.55883979797363 51.75640487670898 11.15853977203369 51.75640487670898 11.81209945678711 L 51.75640487670898 15.33827972412109 L 70.2486572265625 15.33827972412109 M 70.54865264892578 15.63827991485596 L 51.45640563964844 15.63827991485596 L 51.45640563964844 11.81209945678711 C 51.45640563964844 11.25516986846924 51.25968551635742 10.71275997161865 50.90249252319336 10.28477954864502 C 50.62449264526367 9.951629638671875 49.77571487426758 9.570779800415039 49.47212600708008 9.452139854431152 L 49.29694366455078 9.383689880371094 L 49.28215408325195 9.196160316467285 C 49.17109298706055 7.780799865722656 49.0804328918457 6.549319744110107 49.01270294189453 5.535939693450928 C 48.94563293457031 4.532269954681396 48.9005241394043 3.73298978805542 48.87864303588867 3.160289764404297 C 48.87138366699219 2.977159976959229 48.90185546875 2.796909809112549 48.96923446655273 2.624969959259033 C 49.03581619262695 2.455219745635986 49.13583374023438 2.30036997795105 49.26655578613281 2.164649963378906 C 49.40815353393555 2.017589807510376 49.57627487182617 1.902079820632935 49.76620483398438 1.821379899978638 C 49.95607376098633 1.740819811820984 50.1559944152832 1.699999809265137 50.36055374145508 1.699999809265137 L 71.6439208984375 1.699999809265137 C 71.84857177734375 1.699999809265137 72.04851531982422 1.740819811820984 72.23818206787109 1.821339845657349 C 72.42824554443359 1.902089834213257 72.59630584716797 2.017659902572632 72.73780059814453 2.16487979888916 C 72.86823272705078 2.300279855728149 72.96826171875 2.455089807510376 73.03489685058594 2.624789953231812 C 73.10227203369141 2.796459913253784 73.13291168212891 2.976569890975952 73.12598419189453 3.160159826278687 C 73.10413360595703 3.732179880142212 73.05898284912109 4.531469821929932 72.99177551269531 5.535959720611572 C 72.92516326904297 6.531759738922119 72.72489166259766 9.169309616088867 72.72288513183594 9.195839881896973 L 72.70555114746094 9.42393970489502 L 72.48099517822266 9.467599868774414 C 71.94472503662109 9.571849822998047 71.45512390136719 9.862079620361328 71.10236358642578 10.28481960296631 C 70.74529266357422 10.71267032623291 70.54865264892578 11.25490951538086 70.54865264892578 11.81167030334473 L 70.54865264892578 15.63827991485596 Z" stroke="none" fill="#9397a6"/>
      </g>
      <path id="패스_2976" data-name="패스 2976" d="M374.385,127.6a.948.948,0,0,0-.659-.265h-2.275a.952.952,0,0,0-.951.951v3.885a2.621,2.621,0,0,1,.93.932,2.581,2.581,0,0,1,.354,1.308v3.152a2.963,2.963,0,0,1-.015.316,1.535,1.535,0,0,1-.061.3,3.366,3.366,0,0,1-.409.871,2.419,2.419,0,0,1-.9.807l.558,2.122.558,2.122a.869.869,0,0,0,1.68-.442l-.666-2.534-.666-2.534h.941a.9.9,0,0,0,.659-.285,1.1,1.1,0,0,0,.293-.709c.055-1.132.265-3.291.47-5.257s.408-3.74.449-4.1a.948.948,0,0,0-.292-.644" transform="translate(-343.748 -117.87)" fill="#fff" stroke="#9397a6" stroke-width="0.3"/>
      <g id="패스_2977" data-name="패스 2977" transform="translate(-343.748 -117.87)" fill="#fff" stroke-miterlimit="10">
        <path d="M 372.3558349609375 144.9075469970703 C 372.1348876953125 144.9075469970703 371.9158935546875 144.8336029052734 371.7391967773438 144.6993255615234 C 371.5567932128906 144.5607452392578 371.4295349121094 144.3700561523438 371.3712158203125 144.1478729248047 L 370.8135986328125 142.0254821777344 L 370.2559204101562 139.9029846191406 L 370.2254028320312 139.7868347167969 L 370.3320617675781 139.7316436767578 C 370.6705932617188 139.5564880371094 370.9546813964844 139.3014373779297 371.1764526367188 138.9735870361328 C 371.3363952636719 138.7370300292969 371.4640808105469 138.4646301269531 371.5668029785156 138.1408233642578 C 371.5926818847656 138.0596771240234 371.6106262207031 137.9705200195312 371.6216735839844 137.8680419921875 C 371.6310424804688 137.7810668945312 371.6354064941406 137.6857452392578 371.6354064941406 137.568115234375 L 371.6354064941406 135.9920654296875 L 371.6354064941406 134.4159698486328 C 371.6354064941406 133.9824523925781 371.5199584960938 133.5562133789062 371.3016052246094 133.1833038330078 C 371.0895385742188 132.8213348388672 370.7863159179688 132.5174560546875 370.4247131347656 132.3045349121094 L 370.350830078125 132.2610321044922 L 370.350830078125 132.1752777099609 L 370.350830078125 130.2326202392578 L 370.350830078125 128.2900390625 C 370.350830078125 127.9962997436523 370.4654541015625 127.7199020385742 370.673583984375 127.5117492675781 C 370.8819274902344 127.303596496582 371.1583251953125 127.1889877319336 371.4519653320312 127.1889877319336 L 372.5894165039062 127.1889877319336 L 373.7269287109375 127.1889877319336 C 374.0123291015625 127.1889877319336 374.2831115722656 127.2979965209961 374.4893188476562 127.4959487915039 C 374.6949462890625 127.693359375 374.8148803710938 127.9582672119141 374.8270568847656 128.2418975830078 L 374.8275451660156 128.2536163330078 L 374.8262329101562 128.2652587890625 L 374.8234558105469 128.2896118164062 C 374.621337890625 130.0672149658203 374.4694519042969 131.4871215820312 374.3776245117188 132.3652648925781 C 374.1123657226562 134.9026031494141 373.9544067382812 136.6686553955078 373.9080810546875 137.6143341064453 C 373.892822265625 137.9244537353516 373.7738342285156 138.2105560302734 373.5730590820312 138.4199829101562 C 373.3688354492188 138.6332550048828 373.0963745117188 138.7507171630859 372.8059387207031 138.7507171630859 L 372.3353271484375 138.7507171630859 L 372.059326171875 138.7507171630859 L 372.6755981445312 141.0962524414062 L 373.3413696289062 143.6299133300781 C 373.4104919433594 143.8930206298828 373.3730163574219 144.1673431396484 373.2358093261719 144.4023742675781 C 373.0984497070312 144.6374816894531 372.8779602050781 144.8048858642578 372.6148986816406 144.8737487792969 C 372.5723876953125 144.8850402832031 372.5285339355469 144.8936767578125 372.4850463867188 144.8992614746094 C 372.4421081542969 144.9047698974609 372.3986511230469 144.9075469970703 372.3558349609375 144.9075469970703 Z" stroke="none"/>
        <path d="M 371.4519653320312 127.3389892578125 C 371.189697265625 127.3389892578125 370.9519348144531 127.4456787109375 370.7796630859375 127.6178131103516 C 370.6074523925781 127.7900238037109 370.5008239746094 128.02783203125 370.5008239746094 128.2900390625 L 370.5008239746094 132.1752777099609 C 370.8846435546875 132.4012756347656 371.205810546875 132.7230682373047 371.4310302734375 133.1075134277344 C 371.6561889648438 133.4919891357422 371.785400390625 133.9391479492188 371.785400390625 134.4159698486328 L 371.785400390625 137.568115234375 C 371.785400390625 137.6747131347656 371.7819519042969 137.7806243896484 371.7708129882812 137.8841705322266 C 371.7596130371094 137.9878082275391 371.7407531738281 138.0890502929688 371.7097778320312 138.1861877441406 C 371.6293029785156 138.4398345947266 371.5059204101562 138.7540740966797 371.3006896972656 139.0576324462891 C 371.0953674316406 139.3611755371094 370.8084411621094 139.654052734375 370.4010009765625 139.8648681640625 L 371.5162963867188 144.1097869873047 C 371.5674743652344 144.3047485351562 371.6809997558594 144.4667358398438 371.8299560546875 144.5798950195312 C 372.0071105957031 144.7145080566406 372.2337951660156 144.7802734375 372.4659118652344 144.75048828125 C 372.5028686523438 144.7457275390625 372.5399169921875 144.7384643554688 372.576904296875 144.7286376953125 C 372.808837890625 144.6679077148438 372.994140625 144.5186767578125 373.1062622070312 144.3267517089844 C 373.2183532714844 144.1347351074219 373.2572326660156 143.8999786376953 373.1962890625 143.6680297851562 L 371.8648071289062 138.6007232666016 L 372.8059387207031 138.6007232666016 C 373.0635681152344 138.6007232666016 373.2946472167969 138.4938507080078 373.4647827148438 138.3161926269531 C 373.6350708007812 138.1385498046875 373.7443237304688 137.8901214599609 373.7582702636719 137.6069946289062 C 373.8136901855469 136.475341796875 374.0228576660156 134.3162231445312 374.2284240722656 132.3496551513672 C 374.43408203125 130.3831787109375 374.6361389160156 128.6093444824219 374.6771850585938 128.2483215332031 C 374.6663513183594 127.9956665039062 374.5564575195312 127.7683258056641 374.3854675292969 127.6041717529297 C 374.2144470214844 127.4400177001953 373.9822692871094 127.3389892578125 373.7269287109375 127.3389892578125 L 371.4519653320312 127.3389892578125 M 371.4519653320312 127.0389862060547 L 373.7269287109375 127.0389862060547 C 374.0512390136719 127.0389862060547 374.3589172363281 127.162841796875 374.5932006835938 127.3877410888672 C 374.8268432617188 127.6120300292969 374.9631042480469 127.9130859375 374.9768981933594 128.2354736328125 L 374.9779052734375 128.2588958740234 L 374.9725036621094 128.3065490722656 C 374.7704467773438 130.0836029052734 374.6185913085938 131.5030212402344 374.5267944335938 132.380859375 C 374.2618408203125 134.9154663085938 374.1040954589844 136.6787261962891 374.0579223632812 137.6216735839844 C 374.0408630371094 137.9679260253906 373.9071350097656 138.2882843017578 373.6813659667969 138.5237884521484 C 373.4486083984375 138.7668151855469 373.1376953125 138.9007263183594 372.8059387207031 138.9007263183594 L 372.2538146972656 138.9007263183594 L 373.4864501953125 143.5917816162109 C 373.5657653808594 143.8936462402344 373.5227355957031 144.2083740234375 373.3653564453125 144.4779968261719 C 373.207763671875 144.7477722167969 372.9547424316406 144.9398193359375 372.6528930664062 145.0188598632812 C 372.6045532226562 145.0317077636719 372.5541687011719 145.0416259765625 372.504150390625 145.0480346679688 C 372.2005920410156 145.0869140625 371.8904113769531 145.0026092529297 371.6484375 144.8187561035156 C 371.4390869140625 144.6596984863281 371.2930297851562 144.4408874511719 371.2261352539062 144.1859588623047 L 370.0498046875 139.7088012695312 L 370.2631225585938 139.5984191894531 C 370.5791625976562 139.4349060058594 370.8446350097656 139.1964111328125 371.0522155761719 138.8895416259766 C 371.2039489746094 138.6651153564453 371.3255004882812 138.4053497314453 371.423828125 138.0954742431641 C 371.4466857910156 138.0238037109375 371.4625854492188 137.9442749023438 371.4725646972656 137.8519439697266 C 371.4813232421875 137.7704772949219 371.4854125976562 137.6802520751953 371.4854125976562 137.568115234375 L 371.4854125976562 134.4159698486328 C 371.4854125976562 134.0090789794922 371.3770751953125 133.6090393066406 371.1721496582031 133.2591094970703 C 370.9729919433594 132.9191741943359 370.6882019042969 132.6337585449219 370.3486022949219 132.4337921142578 L 370.2008361816406 132.3467712402344 L 370.2008361816406 128.2900390625 C 370.2008361816406 127.9562225341797 370.3310546875 127.6421508789062 370.5675354003906 127.4056854248047 C 370.80419921875 127.1691741943359 371.1182861328125 127.0389862060547 371.4519653320312 127.0389862060547 Z" stroke="none" fill="#9397a6"/>
      </g>
      <path id="패스_2978" data-name="패스 2978" d="M5.38,138.98a2.152,2.152,0,0,1-.407-.793c-.021-.1-.04-.2-.054-.3a2.393,2.393,0,0,1-.022-.315v-3.152a2.583,2.583,0,0,1,.354-1.309,2.622,2.622,0,0,1,.93-.932V128.29a.952.952,0,0,0-.951-.951H2.955a.952.952,0,0,0-.95.909c.041.361.243,2.135.449,4.1s.415,4.126.47,5.257a1.1,1.1,0,0,0,.294.709.905.905,0,0,0,.659.285h.941l-.666,2.534-.666,2.534a.868.868,0,0,0,.619,1.061.862.862,0,0,0,.221.029.869.869,0,0,0,.84-.648l.558-2.122.557-2.122a4.638,4.638,0,0,1-.9-.885" transform="translate(-1.395 -117.87)" fill="#fff" stroke="#9397a6" stroke-width="0.3"/>
      <g id="패스_2979" data-name="패스 2979" transform="translate(-1.395 -117.87)" fill="#fff" stroke-miterlimit="10">
        <path d="M 4.326786041259766 144.9075469970703 C 4.283155918121338 144.9075469970703 4.239506244659424 144.9047546386719 4.197046279907227 144.8992462158203 C 4.153185844421387 144.8936004638672 4.109315872192383 144.8849945068359 4.066795825958252 144.8736724853516 C 3.804226160049438 144.8048553466797 3.583735942840576 144.6374206542969 3.446485996246338 144.4023895263672 C 3.309195995330811 144.1673889160156 3.271746158599854 143.8930358886719 3.341046094894409 143.6299133300781 L 4.00666618347168 141.0963439941406 L 4.622896671295166 138.7507171630859 L 4.346856117248535 138.7507171630859 L 3.876326084136963 138.7507171630859 C 3.586066007614136 138.7507171630859 3.313666105270386 138.6332550048828 3.109296083450317 138.4199676513672 C 2.908525943756104 138.21044921875 2.789515972137451 137.9243621826172 2.774196147918701 137.6143951416016 C 2.727905988693237 136.6681213378906 2.569976091384888 134.9021148681641 2.304785966873169 132.3653411865234 C 2.098826169967651 130.3945617675781 1.89478600025177 128.6042633056641 1.855966091156006 128.2653961181641 L 1.854626059532166 128.253662109375 L 1.855136036872864 128.2418518066406 C 1.867356061935425 127.9582977294922 1.987305998802185 127.6934356689453 2.192866086959839 127.4960479736328 C 2.399126052856445 127.2980422973633 2.669906139373779 127.1889877319336 2.955326080322266 127.1889877319336 L 4.092785835266113 127.1889877319336 L 5.230175971984863 127.1889877319336 C 5.523876190185547 127.1889877319336 5.800315856933594 127.3036270141602 6.008575916290283 127.5117874145508 C 6.216775894165039 127.7200012207031 6.33142614364624 127.9963760375977 6.33142614364624 128.2900390625 L 6.33142614364624 130.2324676513672 L 6.33142614364624 132.1748352050781 L 6.33142614364624 132.2605743408203 L 6.257545948028564 132.3040924072266 C 5.895966053009033 132.5170440673828 5.592716217041016 132.8209533691406 5.38058614730835 133.1829681396484 C 5.16222620010376 133.5559539794922 5.046785831451416 133.9823455810547 5.046785831451416 134.4159698486328 L 5.046785831451416 135.9920654296875 L 5.046785831451416 137.5681915283203 C 5.046785831451416 137.6618194580078 5.053525924682617 137.7582855224609 5.06739616394043 137.8630981445312 C 5.078956127166748 137.9513092041016 5.09536600112915 138.0442810058594 5.119076251983643 138.1558532714844 C 5.163216114044189 138.3627319335938 5.298245906829834 138.6231842041016 5.499276161193848 138.8891143798828 C 5.726426124572754 139.1897125244141 6.028106212615967 139.4857330322266 6.371716022491455 139.7452239990234 L 6.4519362449646 139.8058013916016 L 6.426395893096924 139.9030456542969 L 5.86897611618042 142.0252838134766 L 5.311416149139404 144.1474914550781 C 5.253015995025635 144.3695831298828 5.125706195831299 144.5603637695312 4.943235874176025 144.6992645263672 C 4.766556262969971 144.8335876464844 4.547646045684814 144.9075469970703 4.326786041259766 144.9075469970703 Z" stroke="none"/>
        <path d="M 4.326786041259766 144.7575531005859 C 4.519206047058105 144.7575531005859 4.703435897827148 144.6931457519531 4.852385997772217 144.5798950195312 C 5.001266002655029 144.4665832519531 5.115015983581543 144.3045501708984 5.166336059570312 144.109375 L 6.28131628036499 139.8649291992188 C 5.904166221618652 139.5801086425781 5.6006760597229 139.2720947265625 5.379616260528564 138.9795684814453 C 5.158485889434814 138.6870422363281 5.019926071166992 138.4100036621094 4.972355842590332 138.1870269775391 C 4.951146125793457 138.0872192382812 4.932196140289307 137.9858245849609 4.91869592666626 137.8827819824219 C 4.905055999755859 137.7797088623047 4.896786212921143 137.6749267578125 4.896786212921143 137.5681915283203 L 4.896786212921143 134.4159698486328 C 4.896786212921143 133.9390106201172 5.02600622177124 133.4917297363281 5.251165866851807 133.1071319580078 C 5.476466178894043 132.72265625 5.797555923461914 132.4009246826172 6.181426048278809 132.1748352050781 L 6.181426048278809 128.2900390625 C 6.181426048278809 128.02783203125 6.074746131896973 127.7901000976562 5.902535915374756 127.6178817749023 C 5.730256080627441 127.4456787109375 5.492445945739746 127.3389892578125 5.230175971984863 127.3389892578125 L 2.955326080322266 127.3389892578125 C 2.699985980987549 127.3389892578125 2.467826128005981 127.4400177001953 2.296756029129028 127.604248046875 C 2.125816106796265 127.7683868408203 2.015886068344116 127.995735168457 2.004996061325073 128.2483215332031 C 2.046355962753296 128.6094360351562 2.248466014862061 130.3832702636719 2.453976154327393 132.3497467041016 C 2.659546136856079 134.3162231445312 2.868656158447266 136.475341796875 2.924015998840332 137.6069946289062 C 2.938006162643433 137.8901214599609 3.047376155853271 138.1385498046875 3.217606067657471 138.3161926269531 C 3.38783597946167 138.4938507080078 3.618926048278809 138.6007232666016 3.876326084136963 138.6007232666016 L 4.81739616394043 138.6007232666016 L 3.486096143722534 143.6681060791016 C 3.425016164779663 143.9000396728516 3.463896036148071 144.1348266601562 3.576015949249268 144.3267517089844 C 3.688136100769043 144.5187530517578 3.873425960540771 144.6679229736328 4.105366230010986 144.7287139892578 C 4.142276287078857 144.7385406494141 4.179456233978271 144.7457427978516 4.21635627746582 144.75048828125 C 4.253406047821045 144.7552947998047 4.290306091308594 144.7575531005859 4.326786041259766 144.7575531005859 M 4.326786041259766 145.0575561523438 C 4.276726245880127 145.0575561523438 4.22657585144043 145.0543212890625 4.177736282348633 145.0479888916016 C 4.127516269683838 145.0415344238281 4.07710599899292 145.0316314697266 4.028235912322998 145.0186309814453 C 3.727406024932861 144.9397735595703 3.474426031112671 144.7476959228516 3.316956043243408 144.47802734375 C 3.159446001052856 144.2084197998047 3.116476058959961 143.8936309814453 3.195986032485962 143.5917053222656 L 4.428404808044434 138.9007263183594 L 3.876326084136963 138.9007263183594 C 3.544785976409912 138.9007263183594 3.233926057815552 138.766845703125 3.000996112823486 138.5237426757812 C 2.775236129760742 138.2881622314453 2.641476154327393 137.9678344726562 2.624386072158813 137.6218109130859 C 2.578226089477539 136.6782073974609 2.420506000518799 134.9149627685547 2.155606031417847 132.3809356689453 C 1.949716091156006 130.4108581542969 1.74574601650238 128.6212158203125 1.706946015357971 128.2824554443359 L 1.704256057739258 128.2589874267578 L 1.705276012420654 128.2353973388672 C 1.719166040420532 127.9131011962891 1.855436086654663 127.6120986938477 2.088976144790649 127.3878555297852 C 2.323316097259521 127.1628799438477 2.630985975265503 127.0389862060547 2.955326080322266 127.0389862060547 L 5.230175971984863 127.0389862060547 C 5.563936233520508 127.0389862060547 5.878036022186279 127.1692199707031 6.114615917205811 127.4057006835938 C 6.351176261901855 127.6422653198242 6.481426239013672 127.9563217163086 6.481426239013672 128.2900390625 L 6.481426239013672 132.3463134765625 L 6.333675861358643 132.4333343505859 C 5.99406623840332 132.6333618164062 5.709246158599854 132.9187927246094 5.509995937347412 133.2588043212891 C 5.305116176605225 133.6087646484375 5.196785926818848 134.0089416503906 5.196785926818848 134.4159698486328 L 5.196785926818848 137.5681915283203 C 5.196785926818848 137.6551666259766 5.203105926513672 137.7451934814453 5.216105937957764 137.8434143066406 C 5.227156162261963 137.9278106689453 5.242936134338379 138.0170593261719 5.265806198120117 138.1246643066406 C 5.288735866546631 138.2321472167969 5.365176200866699 138.4629669189453 5.618936061859131 138.7986602783203 C 5.837855815887451 139.0883636474609 6.129415988922119 139.3742828369141 6.462106227874756 139.6255340576172 L 6.622546195983887 139.7466888427734 L 5.456486225128174 144.1856079101562 C 5.389495849609375 144.4403991699219 5.243435859680176 144.6592712402344 5.034086227416992 144.8186187744141 C 4.831396102905273 144.9727325439453 4.580245971679688 145.0575561523438 4.326786041259766 145.0575561523438 Z" stroke="none" fill="#9397a6"/>
      </g>
      <path id="패스_2980" data-name="패스 2980" d="M87.685,215.251H68.348a.863.863,0,0,0-.862.862v3.152a.855.855,0,0,0,.1.4.87.87,0,0,0,.259.3h0l.005,0,.005,0a.857.857,0,0,0,.494.157H87.685a.855.855,0,0,0,.263-.041.867.867,0,0,0,.231-.115l0,0,.005,0h0a.87.87,0,0,0,.26-.3.853.853,0,0,0,.1-.4v-3.152a.863.863,0,0,0-.862-.862" transform="translate(-62.247 -199.567)" fill="#fff" stroke="#9397a6" stroke-width="0.3"/>
      <g id="패스_2981" data-name="패스 2981" transform="translate(-62.247 -199.567)" fill="#fff" stroke-miterlimit="10">
        <path d="M 87.68522644042969 220.2773895263672 L 83.31862640380859 220.2773895263672 L 68.34803009033203 220.2773895263672 C 68.24225616455078 220.2773895263672 68.13801574707031 220.2610015869141 68.03822326660156 220.2286987304688 C 67.95284271240234 220.2012176513672 67.87136840820312 220.1622467041016 67.79573822021484 220.1127319335938 L 67.79490661621094 220.1127319335938 L 67.78276824951172 220.1041107177734 C 67.77760314941406 220.1006011962891 67.7724609375 220.0970611572266 67.76735687255859 220.0934600830078 L 67.76394653320312 220.0910797119141 L 67.76068115234375 220.0885009765625 L 67.75973510742188 220.0877227783203 L 67.75462341308594 220.0840911865234 C 67.62807464599609 219.9921417236328 67.52296447753906 219.8704986572266 67.45065307617188 219.7323303222656 C 67.37564086914062 219.5890197753906 67.33600616455078 219.4275360107422 67.33600616455078 219.2653503417969 L 67.33600616455078 217.6893005371094 L 67.33600616455078 216.1131896972656 C 67.33600616455078 215.8431701660156 67.44131469726562 215.5890808105469 67.63254547119141 215.3976898193359 C 67.82392120361328 215.2063598632812 68.0780029296875 215.1009979248047 68.34803009033203 215.1009979248047 L 83.31862640380859 215.1009979248047 L 87.68522644042969 215.1009979248047 C 87.95512390136719 215.1009979248047 88.20915985107422 215.2063446044922 88.40056610107422 215.3976287841797 C 88.59197998046875 215.589111328125 88.69738006591797 215.8432159423828 88.69738006591797 216.1131896972656 L 88.69738006591797 217.6893005371094 L 88.69738006591797 219.2653503417969 C 88.69738006591797 219.4277191162109 88.65767669677734 219.5892791748047 88.58255004882812 219.7325592041016 C 88.51012420654297 219.8706665039062 88.40484619140625 219.9922485351562 88.27810668945312 220.0841674804688 L 88.27531433105469 220.086181640625 L 88.27524566650391 220.0862579345703 L 88.27036285400391 220.0903167724609 L 88.26515960693359 220.0939636230469 C 88.26129913330078 220.0966644287109 88.25742340087891 220.0993347167969 88.25353240966797 220.1019897460938 L 88.23871612548828 220.1127319335938 L 88.23739624023438 220.1127319335938 C 88.16159057617188 220.1622009277344 88.08000183105469 220.2012023925781 87.99443054199219 220.2288360595703 C 87.89463043212891 220.2610473632812 87.79060363769531 220.2773895263672 87.68522644042969 220.2773895263672 Z" stroke="none"/>
        <path d="M 68.34803009033203 215.2510070800781 C 68.11029052734375 215.2510070800781 67.89475250244141 215.34765625 67.73865509033203 215.5037231445312 C 67.5826416015625 215.6598510742188 67.48600006103516 215.8753662109375 67.48600006103516 216.1131896972656 L 67.48600006103516 219.2653503417969 C 67.48600006103516 219.4086303710938 67.52128601074219 219.5437927246094 67.58354949951172 219.6627807617188 C 67.64577484130859 219.7816772460938 67.7349853515625 219.8843994140625 67.84279632568359 219.9627380371094 L 67.84364318847656 219.9627380371094 C 67.84534454345703 219.9640808105469 67.84703063964844 219.9654235839844 67.84866333007812 219.9667358398438 C 67.85034942626953 219.9681701660156 67.85205078125 219.9695129394531 67.85367584228516 219.9707946777344 C 67.92366027832031 220.0200500488281 68.00128936767578 220.0592346191406 68.08442687988281 220.0859985351562 C 68.16748046875 220.1128845214844 68.25607299804688 220.1273803710938 68.34803009033203 220.1273803710938 L 87.68522644042969 220.1273803710938 C 87.77696990966797 220.1273803710938 87.86534118652344 220.1128845214844 87.94833374023438 220.0860900878906 C 88.03132629394531 220.0592956542969 88.10895538330078 220.0202026367188 88.17915344238281 219.9710693359375 C 88.18083953857422 219.9696655273438 88.18239593505859 219.9682312011719 88.18403625488281 219.9668273925781 C 88.18565368652344 219.9654235839844 88.18735504150391 219.9640808105469 88.18918609619141 219.9627380371094 L 88.19004058837891 219.9627380371094 C 88.29804992675781 219.8843994140625 88.38733673095703 219.7818298339844 88.44969940185547 219.6629028320312 C 88.51204681396484 219.5440063476562 88.54738616943359 219.4088439941406 88.54738616943359 219.2653503417969 L 88.54738616943359 216.1131896972656 C 88.54738616943359 215.8753662109375 88.45061492919922 215.6598510742188 88.29452514648438 215.5037231445312 C 88.13836669921875 215.34765625 87.92281341552734 215.2510070800781 87.68522644042969 215.2510070800781 L 68.34803009033203 215.2510070800781 M 68.34803009033203 214.9510040283203 L 87.68522644042969 214.9510040283203 C 87.99517059326172 214.9510040283203 88.28687286376953 215.0719299316406 88.506591796875 215.2915344238281 C 88.72637939453125 215.5113830566406 88.84738159179688 215.8031463623047 88.84738159179688 216.1131896972656 L 88.84738159179688 219.2653503417969 C 88.84738159179688 219.4518890380859 88.80174255371094 219.6375274658203 88.71540069580078 219.8022155761719 C 88.63256072998047 219.9601745605469 88.51231384277344 220.0992584228516 88.36759948730469 220.2045440673828 L 88.35117340087891 220.2168579101562 C 88.34731292724609 220.2195739746094 88.34343719482422 220.2222442626953 88.33954620361328 220.2248992919922 L 88.28737640380859 220.2627410888672 L 88.28037261962891 220.2627410888672 C 88.20463562011719 220.3080444335938 88.12425994873047 220.3445281982422 88.04051971435547 220.3715667724609 C 87.92580413818359 220.4086151123047 87.8062744140625 220.4273834228516 87.68522644042969 220.4273834228516 L 68.34803009033203 220.4273834228516 C 68.22653198242188 220.4273834228516 68.10675048828125 220.4085540771484 67.99201965332031 220.3714141845703 C 67.9085693359375 220.3445434570312 67.82829284667969 220.3080902099609 67.75265502929688 220.2627410888672 L 67.74616241455078 220.2627410888672 L 67.6910400390625 220.2231140136719 C 67.68768310546875 220.2207946777344 67.68434143066406 220.2184753417969 67.68099975585938 220.2161254882812 L 67.66645050048828 220.2054290771484 C 67.52130126953125 220.0999755859375 67.40072631835938 219.9604339599609 67.31775665283203 219.8018798828125 C 67.23155975341797 219.6371765136719 67.18600463867188 219.45166015625 67.18600463867188 219.2653503417969 L 67.18600463867188 216.1131896972656 C 67.18600463867188 215.8031311035156 67.30690002441406 215.5113677978516 67.52644348144531 215.2916717529297 C 67.74620056152344 215.0719604492188 68.03794097900391 214.9510040283203 68.34803009033203 214.9510040283203 Z" stroke="none" fill="#9397a6"/>
      </g>
    </g>
  </g>
</svg>
