<svg xmlns="http://www.w3.org/2000/svg" width="75" height="75" viewBox="0 0 75 75">
  <g id="strore_category_bt_1_o" transform="translate(-353 -1378)">
    <rect id="사각형_1413" data-name="사각형 1413" width="75" height="75" transform="translate(353 1378)" fill="none"/>
    <circle id="타원_169" data-name="타원 169" cx="27.5" cy="27.5" r="27.5" transform="translate(363 1385)" fill="#2d3552"/>
    <path id="합치기_9" data-name="합치기 9" d="M-5801.355,462.13a50.35,50.35,0,0,1,4.409-17.843l.07.038a9.221,9.221,0,0,0,.465-3.234,7.8,7.8,0,0,0-1.419-4.132l-.888,1.813-3.282-.944,1.244-6.306a1.013,1.013,0,0,1,.209-.679,2.614,2.614,0,0,1,2.008-.843h3.638c0,.032-.456,3.222,1.331,4.874a4.161,4.161,0,0,0,2.927,1,4.161,4.161,0,0,0,2.927-1c1.791-1.656,1.336-4.842,1.332-4.874h3.637a2.613,2.613,0,0,1,2.007.843,1.033,1.033,0,0,1,.211.679l1.242,6.306-3.282.944-.888-1.813a7.816,7.816,0,0,0-1.419,4.132,9.167,9.167,0,0,0,.466,3.235l.073-.039a50.35,50.35,0,0,1,4.409,17.843s-3.39,1.5-10.713,1.5S-5801.355,462.13-5801.355,462.13Z" transform="translate(6180.801 966.323)" fill="#fff" stroke="rgba(0,0,0,0)" stroke-miterlimit="10" stroke-width="1"/>
  </g>
</svg>
