<svg xmlns="http://www.w3.org/2000/svg" width="58" height="58" viewBox="0 0 58 58">
  <g id="icon_3" transform="translate(-8.373 6.895)">
    <g id="그룹_43" data-name="그룹 43" transform="translate(1.74 -11)">
      <path id="패스_25" data-name="패스 25" d="M315.795,123.125a5.158,5.158,0,0,0-.723.052,6.541,6.541,0,0,0-6.058-4.235,6.657,6.657,0,0,0-6.535,6.773,6.946,6.946,0,0,0,.671,2.989,5.283,5.283,0,0,0-5.039,5.366v6.737h3.068a5.278,5.278,0,0,1,5.181-5.37h1.931a5.188,5.188,0,0,0,4.31-2.34,5.2,5.2,0,0,0,3.194,1.1,5.538,5.538,0,0,0,0-11.069" transform="translate(-287.446 -103.766)" fill="#fff"/>
      <path id="패스_26" data-name="패스 26" d="M72.306,122.483a6.138,6.138,0,0,1,2.884-1.738,8.068,8.068,0,0,1-.28-2.123,7.716,7.716,0,0,1,7.566-7.842,7.5,7.5,0,0,1,6.693,4.184h.088a6.608,6.608,0,0,1,0,13.207,6.139,6.139,0,0,1-2.975-.762,6.174,6.174,0,0,1-4.529,2H79.822a4.187,4.187,0,0,0-4.02,3.231h46.524a1.051,1.051,0,0,1,1.032,1.069v8.981a1.051,1.051,0,0,1-1.032,1.069H71.574a1.051,1.051,0,0,1-1.032-1.069V126.976a6.524,6.524,0,0,1,1.764-4.494m37.97,19.142h11.018v-6.843H110.276Zm-32.11,0h30.047v-6.843H78.166Zm-5.561,0h3.5v-6.843h-3.5Zm0-8.981H73.7a6.292,6.292,0,0,1,6.127-5.37h1.931a4.178,4.178,0,0,0,3.463-1.881,1.027,1.027,0,0,1,.682-.445,1,1,0,0,1,.783.2,4.174,4.174,0,0,0,2.576.885,4.468,4.468,0,0,0,0-8.931,4.25,4.25,0,0,0-.584.042,1.026,1.026,0,0,1-1.095-.658,5.485,5.485,0,0,0-5.1-3.567,5.612,5.612,0,0,0-5.5,5.7,5.814,5.814,0,0,0,.564,2.517,1.105,1.105,0,0,1-.042,1.025,1.027,1.027,0,0,1-.856.516,4.208,4.208,0,0,0-4.035,4.3Z" transform="translate(-60.909 -96.674)" fill="#484848" stroke="#484848" stroke-width="1"/>
    </g>
    <rect id="사각형_109" data-name="사각형 109" width="58" height="58" transform="translate(8.373 -6.895)" fill="none"/>
  </g>
</svg>
